<?xml version="1.0" encoding="UTF-8"?>
<svg xmlns="http://www.w3.org/2000/svg" xmlns:xlink="http://www.w3.org/1999/xlink" width="170.078735" height="59.527557" viewBox="0 0 170.078735 59.527557">
<defs>
<clipPath id="clip-0">
<path clip-rule="nonzero" d="M 113 0 L 170.078125 0 L 170.078125 59.527344 L 113 59.527344 Z M 113 0 "/>
</clipPath>
</defs>
<path fill-rule="nonzero" fill="rgb(12.548828%, 33.724976%, 68.234253%)" fill-opacity="1" d="M 0.285156 58.238281 L 30.753906 58.238281 C 38.808594 58.238281 45.808594 56.507812 50.773438 52.132812 C 55.734375 47.757812 58.777344 40.6875 58.785156 29.707031 C 58.78125 17.914062 55.941406 10.75 51.214844 6.511719 C 46.488281 2.265625 39.722656 0.839844 31.648438 0.839844 L 0.285156 0.839844 L 0.285156 13.238281 L 26.847656 13.238281 C 30.875 13.214844 33.625 14.644531 35.179688 17.40625 C 36.738281 20.148438 37.207031 24.046875 37.214844 29.121094 C 37.207031 34.027344 36.78125 37.882812 35.253906 40.625 C 33.734375 43.382812 31 44.859375 26.929688 44.839844 L 20.878906 44.839844 L 20.878906 24.519531 L 0.285156 24.519531 L 0.285156 58.238281 "/>
<path fill-rule="nonzero" fill="rgb(12.548828%, 33.724976%, 68.234253%)" fill-opacity="1" d="M 63.257812 58.238281 L 83.851562 58.238281 L 83.851562 37.414062 L 109.507812 37.414062 L 109.507812 24.519531 L 83.851562 24.519531 L 83.851562 13.234375 L 109.507812 13.234375 L 109.507812 0.839844 L 63.257812 0.839844 L 63.257812 58.238281 "/>
<g clip-path="url(#clip-0)">
<path fill-rule="nonzero" fill="rgb(12.548828%, 33.724976%, 68.234253%)" fill-opacity="1" d="M 123.691406 7.074219 C 117.605469 11.882812 113.757812 19.039062 113.75 28.699219 C 113.757812 39.007812 117.460938 46.589844 123.460938 51.652344 C 129.464844 56.710938 137.820312 59.242188 147.148438 59.242188 C 155.886719 59.242188 162.789062 58.363281 170.054688 56.207031 L 170.054688 29.722656 L 152.554688 29.722656 L 152.554688 45.148438 L 152.167969 45.296875 C 150.695312 45.859375 148.859375 45.835938 147.3125 45.84375 C 142.796875 45.855469 139.582031 43.96875 137.609375 41.042969 C 135.632812 38.125 134.835938 34.234375 134.832031 30.125 C 134.832031 24.664062 136.683594 20.390625 139.972656 17.53125 C 143.253906 14.667969 147.902344 13.234375 153.414062 13.234375 C 159.046875 13.234375 163.488281 14.503906 166.648438 16.167969 L 166.648438 1.886719 C 161.445312 0.617188 157.484375 -0.164062 147.148438 -0.167969 L 147.144531 -0.167969 C 138.144531 -0.167969 129.777344 2.265625 123.691406 7.074219 "/>
</g>
</svg>
