<?xml version="1.0" encoding="UTF-8"?>
<svg xmlns="http://www.w3.org/2000/svg" xmlns:xlink="http://www.w3.org/1999/xlink" width="531.496" height="153.302" viewBox="0 0 531.496 153.302">
<defs>
<clipPath id="clip-0">
<path clip-rule="nonzero" d="M 169 0 L 531.496094 0 L 531.496094 153.300781 L 169 153.300781 Z M 169 0 "/>
</clipPath>
<clipPath id="clip-1">
<path clip-rule="nonzero" d="M 0 0 L 154 0 L 154 153.300781 L 0 153.300781 Z M 0 0 "/>
</clipPath>
</defs>
<g clip-path="url(#clip-0)">
<path fill-rule="nonzero" fill="rgb(0%, 31.37207%, 60.784912%)" fill-opacity="1" d="M 169.007812 153.300781 L 531.496094 153.300781 L 531.496094 0 L 169.007812 0 Z M 169.007812 153.300781 "/>
</g>
<g clip-path="url(#clip-1)">
<path fill-rule="nonzero" fill="rgb(0%, 31.37207%, 60.784912%)" fill-opacity="1" d="M 0 153.300781 L 153.300781 153.300781 L 153.300781 0 L 0 0 Z M 0 153.300781 "/>
</g>
<path fill-rule="evenodd" fill="rgb(100%, 100%, 100%)" fill-opacity="1" d="M 295.609375 46.179688 L 309.628906 46.179688 L 309.628906 43.367188 L 299.988281 43.367188 L 309.269531 29.785156 L 309.269531 27.054688 L 296.210938 27.054688 L 296.210938 29.867188 L 304.890625 29.867188 L 295.609375 43.367188 Z M 286.652344 22.554688 L 290.992188 22.554688 L 290.992188 18.457031 L 286.652344 18.457031 Z M 287.015625 46.179688 L 290.632812 46.179688 L 290.632812 27.054688 L 287.015625 27.054688 Z M 265.367188 46.179688 L 268.984375 46.179688 L 268.984375 38.0625 C 268.984375 34.246094 271.074219 30.230469 274.046875 30.230469 C 276.65625 30.230469 276.65625 32.195312 276.65625 35.734375 L 276.65625 46.179688 L 280.277344 46.179688 L 280.277344 32.921875 C 280.277344 30.550781 279.550781 26.613281 275.132812 26.613281 C 271.234375 26.613281 269.707031 29.546875 269.066406 31.152344 L 268.984375 27.054688 L 265.367188 27.054688 Z M 248.453125 36.578125 C 248.453125 33.964844 249.539062 29.425781 252.511719 29.425781 C 255.527344 29.425781 256.003906 33.925781 256.003906 36.695312 C 256.003906 40.234375 255.242188 43.808594 252.066406 43.808594 C 248.53125 43.808594 248.453125 39.550781 248.453125 36.578125 M 248.453125 18.457031 L 244.835938 18.457031 L 244.835938 38.261719 C 244.835938 40.675781 245.078125 46.621094 252.269531 46.621094 C 257.8125 46.621094 260.023438 42.726562 260.023438 36.820312 C 260.023438 31.796875 258.820312 26.613281 253.515625 26.613281 C 250.460938 26.613281 248.976562 28.621094 248.53125 29.664062 Z M 234.878906 22.554688 L 239.21875 22.554688 L 239.21875 18.457031 L 234.878906 18.457031 Z M 235.238281 46.179688 L 238.855469 46.179688 L 238.855469 27.054688 L 235.238281 27.054688 Z M 218.609375 32.800781 C 218.609375 31.957031 219.453125 29.425781 222.425781 29.425781 C 225.199219 29.425781 225.921875 31.59375 225.921875 32.800781 Z M 229.097656 43.125 C 228.253906 43.40625 227.128906 43.808594 225.480469 43.808594 C 220.257812 43.808594 218.449219 38.785156 218.449219 35.210938 L 229.539062 35.210938 L 229.539062 34.285156 C 229.539062 29.785156 227.289062 26.613281 222.628906 26.613281 C 220.175781 26.613281 214.832031 27.496094 214.832031 35.691406 C 214.832031 43.207031 218.53125 46.621094 224.316406 46.621094 C 226.40625 46.621094 227.53125 46.339844 229.097656 45.976562 Z M 197 46.179688 L 211.664062 46.179688 L 211.664062 42.964844 L 201.015625 42.964844 L 201.015625 18.457031 L 197 18.457031 Z M 197 46.179688 "/>
<path fill-rule="evenodd" fill="rgb(100%, 100%, 100%)" fill-opacity="1" d="M 373.761719 88.0625 C 373.242188 88.222656 372.476562 88.34375 371.835938 88.34375 C 369.023438 88.34375 368.78125 86.335938 368.78125 84.609375 L 368.78125 74.402344 L 374.085938 74.402344 L 374.085938 71.589844 L 368.78125 71.589844 L 368.78125 64.839844 L 365.164062 67.089844 L 365.164062 71.589844 L 361.75 71.589844 L 361.75 74.402344 L 365.164062 74.402344 L 365.164062 86.496094 C 365.164062 89.109375 366.289062 91.15625 370.910156 91.15625 C 371.875 91.15625 372.839844 91.078125 373.761719 90.875 Z M 353.796875 82.15625 L 353.796875 83.242188 C 353.796875 85.488281 351.949219 88.34375 349.457031 88.34375 C 348.371094 88.34375 347.367188 87.378906 347.367188 85.894531 C 347.367188 83.441406 350.222656 82.15625 353.074219 82.15625 Z M 353.796875 90.714844 L 357.414062 90.714844 L 357.414062 77.578125 C 357.414062 75.847656 357.414062 71.148438 351.144531 71.148438 C 345.800781 71.148438 343.992188 73.839844 343.992188 76.894531 L 347.808594 76.894531 C 347.808594 75.367188 348.695312 73.960938 350.863281 73.960938 C 352.230469 73.960938 353.476562 74.5625 353.796875 76.410156 L 353.796875 79.746094 C 348.933594 79.746094 343.351562 80.953125 343.351562 86.015625 C 343.351562 88.984375 345.199219 91.15625 348.773438 91.15625 C 351.707031 91.15625 353.234375 89.390625 353.714844 88.34375 Z M 352.589844 67.773438 L 357.53125 67.773438 L 357.53125 63.351562 L 352.589844 63.351562 Z M 344.3125 67.773438 L 349.253906 67.773438 L 349.253906 63.351562 L 344.3125 63.351562 Z M 339.824219 88.0625 C 339.300781 88.222656 338.539062 88.34375 337.894531 88.34375 C 335.082031 88.34375 334.84375 86.335938 334.84375 84.609375 L 334.84375 74.402344 L 340.144531 74.402344 L 340.144531 71.589844 L 334.84375 71.589844 L 334.84375 64.839844 L 331.226562 67.089844 L 331.226562 71.589844 L 327.808594 71.589844 L 327.808594 74.402344 L 331.226562 74.402344 L 331.226562 86.496094 C 331.226562 89.109375 332.351562 91.15625 336.96875 91.15625 C 337.933594 91.15625 338.902344 91.078125 339.824219 90.875 Z M 318.894531 67.089844 L 323.234375 67.089844 L 323.234375 62.992188 L 318.894531 62.992188 Z M 319.257812 90.714844 L 322.875 90.714844 L 322.875 71.589844 L 319.257812 71.589844 Z M 308.496094 78.820312 C 307.25 78.058594 305.722656 77.335938 305.722656 76.007812 C 305.722656 74.804688 307.289062 73.960938 308.859375 73.960938 C 310.949219 73.960938 312.714844 74.84375 313.238281 75.082031 L 313.238281 71.832031 C 312.3125 71.667969 310.828125 71.148438 308.898438 71.148438 C 304.921875 71.148438 302.109375 73.035156 302.109375 76.488281 C 302.109375 79.304688 304.199219 80.589844 305.925781 81.671875 L 307.773438 82.796875 C 309.0625 83.644531 310.828125 84.445312 310.828125 85.894531 C 310.828125 87.863281 308.65625 88.34375 306.929688 88.34375 C 304.921875 88.34375 302.46875 87.378906 302.109375 87.21875 L 302.109375 90.394531 C 302.953125 90.632812 304.640625 91.15625 307.25 91.15625 C 311.550781 91.15625 314.441406 89.390625 314.441406 85.371094 C 314.441406 82.195312 312.03125 80.953125 310.023438 79.703125 Z M 289.421875 90.714844 L 293.039062 90.714844 L 293.039062 82.597656 C 293.039062 76.734375 295.769531 75.082031 299.027344 75.082031 L 299.027344 71.148438 C 295.25 71.148438 293.640625 73.921875 293.121094 75.445312 L 293.039062 71.589844 L 289.421875 71.589844 Z M 273.195312 77.335938 C 273.195312 76.488281 274.039062 73.960938 277.011719 73.960938 C 279.785156 73.960938 280.507812 76.128906 280.507812 77.335938 Z M 283.683594 87.660156 C 282.839844 87.941406 281.710938 88.34375 280.066406 88.34375 C 274.84375 88.34375 273.035156 83.320312 273.035156 79.746094 L 284.125 79.746094 L 284.125 78.820312 C 284.125 74.320312 281.875 71.148438 277.214844 71.148438 C 274.761719 71.148438 269.417969 72.03125 269.417969 80.226562 C 269.417969 87.742188 273.113281 91.15625 278.898438 91.15625 C 280.988281 91.15625 282.113281 90.875 283.683594 90.515625 Z M 256.964844 90.714844 L 260.664062 90.714844 L 267.292969 71.589844 L 263.273438 71.589844 L 258.8125 85.488281 L 253.753906 71.589844 L 249.734375 71.589844 Z M 241.382812 67.089844 L 245.722656 67.089844 L 245.722656 62.992188 L 241.382812 62.992188 Z M 241.746094 90.714844 L 245.363281 90.714844 L 245.363281 71.589844 L 241.746094 71.589844 Z M 220.902344 90.714844 L 224.515625 90.714844 L 224.515625 82.597656 C 224.515625 78.78125 226.605469 74.761719 229.578125 74.761719 C 232.191406 74.761719 232.191406 76.734375 232.191406 80.265625 L 232.191406 90.714844 L 235.808594 90.714844 L 235.808594 77.453125 C 235.808594 75.082031 235.085938 71.148438 230.664062 71.148438 C 226.765625 71.148438 225.242188 74.078125 224.597656 75.6875 L 224.515625 71.589844 L 220.902344 71.589844 Z M 215.480469 62.992188 L 211.464844 62.992188 L 211.464844 81.753906 C 211.464844 83.804688 211.464844 87.941406 206 87.941406 C 200.695312 87.941406 200.695312 83.804688 200.695312 81.753906 L 200.695312 62.992188 L 196.675781 62.992188 L 196.675781 82.519531 C 196.675781 88.464844 200.65625 91.15625 206.039062 91.15625 C 211.464844 91.15625 215.480469 88.464844 215.480469 82.519531 Z M 215.480469 62.992188 "/>
<path fill-rule="evenodd" fill="rgb(100%, 100%, 100%)" fill-opacity="1" d="M 197 135.25 L 201.015625 135.25 L 201.015625 122.433594 L 211.90625 122.433594 L 211.90625 135.25 L 215.921875 135.25 L 215.921875 107.527344 L 211.90625 107.527344 L 211.90625 119.21875 L 201.015625 119.21875 L 201.015625 107.527344 L 197 107.527344 Z M 341.738281 135.25 L 345.355469 135.25 L 345.355469 127.132812 C 345.355469 121.265625 348.085938 119.621094 351.339844 119.621094 L 351.339844 115.683594 C 347.5625 115.683594 345.957031 118.453125 345.433594 119.980469 L 345.355469 116.125 L 341.738281 116.125 Z M 325.507812 121.871094 C 325.507812 121.027344 326.355469 118.492188 329.328125 118.492188 C 332.097656 118.492188 332.820312 120.664062 332.820312 121.871094 Z M 335.996094 132.195312 C 335.152344 132.476562 334.027344 132.878906 332.378906 132.878906 C 327.15625 132.878906 325.347656 127.855469 325.347656 124.28125 L 336.4375 124.28125 L 336.4375 123.355469 C 336.4375 118.855469 334.1875 115.683594 329.527344 115.683594 C 327.078125 115.683594 321.734375 116.566406 321.734375 124.761719 C 321.734375 132.277344 325.429688 135.691406 331.214844 135.691406 C 333.304688 135.691406 334.429688 135.410156 335.996094 135.050781 Z M 308.882812 135.25 L 312.574219 135.25 L 319.203125 116.125 L 315.1875 116.125 L 310.726562 130.027344 L 305.664062 116.125 L 301.648438 116.125 Z M 287.019531 125.6875 C 287.019531 122.59375 287.5 118.492188 291.480469 118.492188 C 295.375 118.492188 295.898438 122.59375 295.898438 125.6875 C 295.898438 128.742188 295.375 132.878906 291.480469 132.878906 C 287.5 132.878906 287.019531 128.742188 287.019531 125.6875 M 291.480469 135.691406 C 297.222656 135.691406 299.914062 131.714844 299.914062 125.6875 C 299.914062 119.578125 297.222656 115.683594 291.480469 115.683594 C 285.691406 115.683594 283 119.578125 283 125.6875 C 283 131.714844 285.691406 135.691406 291.480469 135.691406 M 263.121094 135.25 L 266.738281 135.25 L 266.738281 127.132812 C 266.738281 123.316406 268.828125 119.296875 271.800781 119.296875 C 274.410156 119.296875 274.410156 121.265625 274.410156 124.804688 L 274.410156 135.25 L 278.027344 135.25 L 278.027344 121.992188 C 278.027344 119.621094 277.304688 115.683594 272.886719 115.683594 C 268.988281 115.683594 267.460938 118.617188 266.816406 120.222656 L 266.738281 116.125 L 263.121094 116.125 Z M 241.472656 135.25 L 245.089844 135.25 L 245.089844 127.132812 C 245.089844 123.316406 247.179688 119.296875 250.152344 119.296875 C 252.761719 119.296875 252.761719 121.265625 252.761719 124.804688 L 252.761719 135.25 L 256.378906 135.25 L 256.378906 121.992188 C 256.378906 119.621094 255.65625 115.683594 251.238281 115.683594 C 247.339844 115.683594 245.8125 118.617188 245.171875 120.222656 L 245.089844 116.125 L 241.472656 116.125 Z M 231.671875 126.691406 L 231.671875 127.777344 C 231.671875 130.027344 229.824219 132.878906 227.332031 132.878906 C 226.246094 132.878906 225.242188 131.914062 225.242188 130.425781 C 225.242188 127.976562 228.09375 126.691406 230.949219 126.691406 Z M 231.671875 135.25 L 235.289062 135.25 L 235.289062 122.113281 C 235.289062 120.382812 235.289062 115.683594 229.019531 115.683594 C 223.675781 115.683594 221.867188 118.375 221.867188 121.429688 L 225.6875 121.429688 C 225.6875 119.902344 226.570312 118.492188 228.738281 118.492188 C 230.105469 118.492188 231.351562 119.097656 231.671875 120.945312 L 231.671875 124.28125 C 226.808594 124.28125 221.226562 125.484375 221.226562 130.550781 C 221.226562 133.519531 223.074219 135.691406 226.648438 135.691406 C 229.582031 135.691406 231.109375 133.921875 231.589844 132.878906 Z M 231.671875 135.25 "/>
<path fill-rule="evenodd" fill="rgb(100%, 100%, 100%)" fill-opacity="1" d="M 95.585938 136.171875 C 95.585938 136.171875 95.773438 134.835938 96.570312 134.984375 C 97.367188 135.132812 97.554688 135.765625 97.425781 136.394531 C 97.292969 137.027344 96.867188 138.140625 96.273438 138.140625 C 95.679688 138.140625 95.382812 136.804688 95.417969 136.617188 C 95.457031 136.433594 95.585938 136.171875 95.585938 136.171875 M 126.484375 102.246094 C 126.464844 101.84375 126.882812 101.152344 127.878906 101.066406 C 128.375 101.023438 128.777344 101.21875 129.183594 101.3125 C 129.589844 101.40625 130.003906 101.394531 130.328125 101.597656 C 130.695312 101.828125 130.257812 103.199219 129.453125 103.78125 C 129.101562 104.039062 129.378906 105.371094 129.902344 105.695312 C 130.722656 106.199219 130.855469 106.507812 131.308594 106.578125 C 131.761719 106.648438 132.84375 106.574219 132.898438 107.46875 C 132.949219 108.359375 132.617188 108.152344 132.617188 108.550781 C 132.617188 108.953125 132.683594 109.164062 133.035156 109.390625 C 133.386719 109.617188 133.210938 111.226562 133.210938 111.226562 C 133.210938 111.226562 132.988281 112.523438 132.40625 112.894531 C 132.113281 113.082031 132.023438 113.550781 131.796875 114.195312 C 131.570312 114.84375 131.429688 114.933594 131.308594 115.945312 C 131.183594 116.957031 131.570312 118.285156 131.117188 118.597656 C 130.660156 118.914062 130.574219 120.03125 130.609375 120.3125 C 130.644531 120.589844 130.347656 121.046875 130.992188 121.0625 C 131.640625 121.082031 131.902344 120.835938 131.953125 120.695312 C 132.007812 120.558594 132.808594 120.363281 133.089844 120.589844 C 133.367188 120.820312 133.613281 121.0625 133.59375 121.5 C 133.578125 121.9375 133.4375 122.25 134.066406 122.234375 C 134.695312 122.214844 134.121094 121.167969 134.347656 121.046875 C 134.574219 120.925781 134.660156 120.589844 135.082031 120.589844 C 135.503906 120.589844 137.304688 120.453125 137.457031 121.117188 C 137.613281 121.78125 137.582031 125.0625 136.65625 125.136719 C 135.726562 125.207031 135.800781 125.136719 135.589844 125.5 C 135.378906 125.871094 132.738281 126.007812 132.21875 126.269531 C 131.835938 126.457031 130.921875 126.359375 130.414062 126.410156 C 130.199219 126.167969 130.148438 125.953125 129.785156 125.675781 C 129.457031 125.425781 128.472656 125.679688 128.488281 126.1875 C 128.507812 126.691406 127.847656 127.144531 127.867188 128.054688 C 127.882812 128.960938 127.988281 132.59375 127.847656 132.910156 C 127.707031 133.222656 127.183594 133.523438 127.183594 134.097656 C 127.183594 134.675781 126.765625 135.496094 126.605469 135.84375 C 126.449219 136.195312 126.429688 138.242188 126.429688 138.242188 C 126.429688 138.242188 126.503906 138.867188 126.011719 138.921875 C 125.523438 138.972656 124.789062 137.714844 124.074219 137.769531 C 123.355469 137.820312 121.015625 135.601562 120.546875 135.226562 C 120.523438 135.210938 120.398438 132.734375 120.816406 132.699219 C 121.238281 132.664062 122.007812 131.375 122.148438 131.058594 C 122.375 130.566406 122.554688 128.785156 122.902344 128.785156 C 123.253906 128.785156 124.214844 128.925781 124.195312 128.507812 C 124.175781 128.089844 124.226562 128.015625 123.601562 127.667969 C 122.859375 127.257812 122.566406 126.210938 122.101562 125.816406 C 121.832031 125.59375 121.140625 125.5625 120.839844 125.570312 C 120.351562 125.589844 118.847656 126.007812 118.273438 126.320312 C 117.695312 126.636719 115.144531 127.195312 115.003906 126.773438 C 114.863281 126.355469 114.425781 125.292969 114.023438 125.398438 C 113.625 125.5 113.292969 126.078125 112.574219 126.078125 C 111.859375 126.078125 111.335938 125.5 111.335938 124.59375 C 111.335938 123.683594 111.265625 122.96875 111.929688 122.320312 C 112.824219 121.445312 112.507812 119.507812 112.835938 119.195312 C 113.171875 118.878906 113.96875 117.863281 115.121094 117.671875 C 116.277344 117.480469 116.789062 115.582031 117.066406 115.15625 C 117.394531 114.65625 119.171875 112.378906 119.257812 111.835938 C 119.257812 111.835938 120.058594 109.238281 120.105469 108.96875 C 120.265625 108.078125 122.261719 106.832031 122.765625 106.265625 C 123.023438 105.96875 123.46875 105.503906 123.546875 105.476562 C 123.992188 105.3125 126.503906 102.648438 126.484375 102.246094 M 124.738281 129.53125 C 124.425781 129.433594 124.382812 129.980469 124.433594 129.984375 C 124.648438 129.851562 124.613281 129.515625 124.640625 129.515625 Z M 125.3125 107.519531 C 125.3125 107.519531 125.015625 107.871094 124.839844 108.34375 C 124.664062 108.8125 124.527344 109.003906 124.316406 109.109375 C 124.109375 109.21875 124.175781 109.828125 124.175781 110.492188 C 124.175781 111.15625 122.746094 114.582031 122.148438 114.964844 C 121.558594 115.351562 120.734375 118.039062 120.296875 118.230469 C 119.863281 118.425781 118.96875 119.925781 118.566406 119.894531 C 118.164062 119.855469 118.046875 120.835938 118.671875 120.890625 C 119.300781 120.941406 118.882812 120.609375 120.175781 120.625 C 121.46875 120.644531 121.363281 121.378906 122.398438 121.292969 C 123.425781 121.203125 123.320312 121.535156 123.984375 121.515625 C 124.648438 121.5 124.246094 121.445312 125.121094 121.046875 C 125.996094 120.648438 126.222656 118.824219 126.273438 118.039062 C 126.328125 117.253906 127.394531 115.804688 127.601562 115.648438 C 127.8125 115.488281 128.265625 113.058594 127.953125 112.761719 C 127.640625 112.464844 127.601562 109.632812 127.621094 108.394531 C 127.640625 107.152344 127.882812 107.46875 127.8125 106.59375 C 127.742188 105.722656 127.238281 105.914062 126.851562 105.964844 C 126.464844 106.019531 126.554688 106.628906 126.152344 106.824219 C 125.75 107.015625 125.3125 107.519531 125.3125 107.519531 M 121.652344 75.71875 C 121.652344 75.71875 120.855469 75.40625 120.742188 74.011719 C 120.632812 72.621094 120.742188 72.75 120.28125 72.34375 C 119.816406 71.933594 119.585938 71.574219 119.335938 70.765625 C 119.125 70.089844 118.8125 69.613281 118.851562 68.964844 C 118.886719 68.3125 118.914062 67.851562 119.238281 67.238281 C 119.460938 66.824219 119.109375 65.359375 119.5 64.664062 C 119.820312 64.09375 121.371094 62.28125 122.882812 62.144531 C 124.339844 62.015625 123.769531 61.589844 124.847656 61.550781 C 125.925781 61.515625 126.539062 61.164062 127.167969 60.808594 C 127.792969 60.460938 127.742188 60.253906 129.171875 60.144531 C 130.601562 60.03125 131.679688 59.65625 132.460938 59.613281 C 132.808594 59.59375 133.3125 59.570312 133.589844 59.457031 C 133.871094 59.347656 134.832031 59.46875 134.90625 60.230469 C 134.980469 60.992188 135.117188 61.730469 135.226562 62.113281 C 135.523438 63.179688 136.191406 63.515625 136.210938 63.960938 C 136.230469 64.40625 136.441406 65.273438 135.839844 65.660156 C 135.839844 65.660156 135.820312 67.375 135.5625 67.671875 C 135.378906 67.878906 135.234375 68.175781 135.1875 68.609375 C 135.078125 69.667969 135.429688 70.503906 134.503906 70.746094 C 133.574219 70.988281 133.183594 71.230469 133.109375 72.433594 C 133.035156 73.640625 133.015625 74.105469 132.699219 74.328125 C 132.472656 74.488281 131.769531 76.402344 130.992188 77.039062 C 130.347656 77.570312 129.371094 79.707031 128.730469 80.292969 C 128.265625 80.71875 127.960938 81.359375 127.523438 81.808594 C 127.148438 82.195312 126.609375 82.417969 126.609375 82.417969 C 126.863281 82.539062 127.023438 82.417969 127.207031 82.496094 C 127.410156 82.589844 127.296875 82.871094 127.09375 83.277344 C 126.851562 83.761719 126.015625 83.316406 125.792969 83.796875 C 125.570312 84.28125 125.074219 85.035156 125.777344 85.449219 C 126.140625 85.664062 126.480469 85.320312 126.5 85.988281 C 126.515625 86.65625 127.113281 87.191406 127.707031 87.171875 C 128.300781 87.15625 128.789062 86.011719 128.339844 85.65625 C 128.003906 85.390625 130.910156 85.320312 130.957031 85.207031 C 132.210938 85.445312 134.902344 84.652344 135.050781 84.894531 C 135.140625 85.039062 135.585938 85.175781 135.949219 85.097656 C 136.191406 85.046875 136.296875 84.917969 136.355469 84.792969 C 136.503906 84.476562 137.964844 84.175781 138.277344 84.210938 C 138.59375 84.25 139.332031 84.1875 139.425781 84.96875 C 139.519531 85.746094 139.457031 86.105469 139.976562 86.550781 C 140.496094 86.996094 141.09375 87.363281 140.90625 88.066406 C 140.722656 88.773438 140.070312 88.773438 139.644531 88.734375 C 139.214844 88.699219 136.675781 89.089844 136.542969 89.648438 C 136.414062 90.203125 135.875 90.871094 135.261719 90.816406 C 134.648438 90.757812 134.464844 90.351562 134.074219 90.351562 C 133.683594 90.351562 133.742188 90.742188 132.8125 90.816406 C 132.410156 90.847656 130.734375 91.445312 129.878906 91.261719 C 128.128906 91.351562 126.207031 91.183594 125.964844 91.332031 C 125.445312 91.648438 123.734375 91.246094 123.734375 91.246094 C 123.734375 91.246094 122.273438 90.664062 121.023438 90.648438 C 119.554688 90.628906 118.070312 90.109375 118.070312 90.109375 C 118.070312 90.109375 117.53125 89.980469 116.472656 90.277344 C 115.414062 90.574219 115.488281 89.199219 115.488281 89.199219 C 115.488281 89.199219 115.347656 88.371094 116.546875 88.253906 C 116.980469 88.210938 117.648438 85.75 118.273438 85.765625 C 119.035156 85.785156 120.484375 83.984375 120.503906 83.722656 C 120.519531 83.464844 122.570312 81.832031 122.972656 81.382812 C 123.125 81.214844 124.125 79.246094 124.28125 78.980469 C 124.453125 78.6875 124.964844 77.203125 124.964844 77.203125 C 124.964844 77.203125 124.953125 76.640625 125.601562 76.621094 C 126.25 76.605469 126.71875 76.667969 126.703125 76.222656 C 126.683594 75.589844 126.277344 72.75 126.890625 72.882812 C 127.503906 73.011719 128.277344 72.875 128.382812 72.640625 C 128.585938 72.175781 128.226562 71.023438 129.042969 70.671875 C 129.859375 70.316406 130.917969 70.484375 130.84375 69.335938 C 130.769531 68.183594 130.503906 67.238281 130.492188 66.660156 C 130.484375 66.335938 130.660156 65.15625 129.859375 65.15625 C 129.0625 65.15625 126.742188 65.714844 126.3125 65.789062 C 125.886719 65.863281 124.671875 65.917969 124.523438 66.753906 C 124.375 67.589844 124.496094 68.128906 124.496094 68.128906 C 124.496094 68.128906 124.886719 69.277344 124.105469 69.761719 C 123.324219 70.246094 124.011719 72.007812 124.363281 72.640625 C 124.363281 72.640625 123.222656 73.8125 123.175781 74.066406 C 123.066406 74.71875 121.652344 75.71875 121.652344 75.71875 M 128.324219 78.257812 C 128.527344 78.460938 128.664062 78.601562 128.691406 78.71875 C 129.027344 78.882812 128.996094 78.171875 128.96875 78.082031 C 128.765625 77.753906 128.664062 77.785156 128.457031 77.777344 C 128.253906 77.769531 128.324219 78.257812 128.324219 78.257812 M 128.371094 64.480469 C 128.804688 64.234375 128.765625 64.144531 128.773438 64.074219 C 128.777344 64 128.457031 64.019531 128.378906 64.03125 C 128.292969 64.511719 128.371094 64.480469 128.371094 64.480469 M 122.734375 66.09375 C 123.085938 66.152344 123.1875 66.15625 123.242188 66.03125 C 123.691406 65.851562 123.722656 65.722656 123.714844 65.519531 C 123.707031 65.316406 123.179688 65.425781 123.140625 65.421875 C 122.8125 65.894531 122.6875 65.734375 122.640625 65.878906 Z M 131.519531 68.738281 C 131.519531 69.316406 131.988281 69.785156 132.570312 69.785156 C 133.148438 69.785156 133.617188 69.316406 133.617188 68.738281 C 133.617188 68.160156 133.148438 67.691406 132.570312 67.691406 C 131.988281 67.691406 131.519531 68.160156 131.519531 68.738281 M 84.167969 20.5625 C 84.167969 20.5625 85.300781 19.039062 86.191406 19.222656 C 87.082031 19.410156 87.460938 20.363281 87.472656 21.191406 C 87.5 22.613281 85.507812 23.980469 86.65625 25.648438 C 86.671875 26.113281 87.035156 26.683594 87.035156 27.257812 C 87.035156 27.292969 86.871094 27.511719 86.859375 27.886719 C 86.792969 29.558594 86.765625 33.933594 86.75 34.769531 C 86.734375 35.40625 85.183594 39.007812 85.253906 39.910156 C 85.328125 40.878906 85.035156 41.402344 83.617188 42.511719 C 83.238281 42.8125 81.617188 43.199219 81.765625 44.460938 C 81.914062 45.722656 82.800781 47.183594 82.800781 47.183594 C 82.800781 47.183594 84.328125 49.585938 83.128906 50.40625 C 82.609375 50.765625 82.351562 51.417969 82.28125 52.25 C 82.1875 53.027344 81.683594 53.796875 79.683594 53.328125 C 79.683594 53.328125 79.140625 52.832031 78.742188 52.398438 C 78.203125 51.804688 77.46875 51.53125 77.460938 50.355469 C 77.449219 48.261719 77.503906 44.230469 77.503906 44.230469 C 77.457031 43.457031 76.710938 42.597656 77.230469 41.558594 C 77.75 40.519531 78 39.585938 78.238281 38.414062 C 78.457031 37.351562 79.527344 36.230469 79.527344 35.414062 C 79.527344 35.097656 79.496094 34.597656 79.332031 34.125 C 79.066406 33.371094 78.777344 32.894531 78.976562 32.105469 C 79.289062 30.871094 79.84375 30.535156 80.933594 30.558594 C 81.984375 30.578125 83.070312 29.175781 83.144531 28.0625 C 83.214844 26.949219 83.15625 25.992188 83.144531 25.558594 C 82.992188 24.726562 82.523438 24.269531 82.976562 23.160156 C 83.222656 22.558594 83.210938 21.78125 83.210938 21.78125 C 83.210938 21.78125 83.617188 21.136719 83.886719 20.851562 Z M 83.199219 33.65625 C 82.9375 33.792969 82.960938 34.046875 82.960938 34.144531 C 82.6875 34.246094 82.738281 34.558594 82.726562 34.609375 C 83.1875 34.449219 83.195312 34.25 83.183594 34.148438 C 83.460938 34.023438 83.425781 33.6875 83.425781 33.601562 Z M 68.75 120.4375 C 68.757812 120.304688 68.71875 119.539062 68.835938 118.820312 C 68.988281 117.875 69.65625 116.679688 70.019531 116.289062 C 70.550781 115.722656 71.675781 114.265625 72.660156 114.210938 C 73.808594 114.144531 75.519531 113.875 76.1875 112.871094 C 76.855469 111.871094 76.777344 111.386719 77.976562 111.320312 C 79.335938 111.246094 78.441406 112.007812 80.140625 111.878906 C 81.855469 111.746094 80.96875 110.65625 81.902344 110.160156 C 82.339844 109.929688 83.40625 109.800781 83.984375 109.921875 C 84.917969 110.117188 84.652344 110.644531 85.691406 110.570312 C 86.730469 110.496094 87.335938 110.589844 87.351562 111.117188 C 87.375 111.785156 87.25 111.941406 86.917969 112.054688 C 86.75 112.109375 86.832031 113.882812 86.832031 113.882812 C 86.832031 113.882812 86.945312 115.097656 86.371094 115.953125 C 86.257812 116.476562 86.175781 117.0625 85.988281 117.625 L 85.949219 122.378906 C 85.949219 122.378906 85.117188 123.28125 85.28125 125.609375 C 85.320312 126.113281 84.855469 126.15625 84.757812 126.597656 C 84.550781 127.207031 84.292969 127.585938 83.871094 128.503906 C 82.839844 130.773438 80.519531 131.203125 80.519531 131.203125 C 80.519531 131.203125 79.246094 131.613281 78.859375 132.730469 C 78.460938 133.878906 78.007812 134.074219 77.078125 134.148438 C 76.148438 134.222656 75.519531 134.222656 75.21875 134.632812 C 74.921875 135.039062 74.625 134.816406 74.292969 134.445312 C 73.957031 134.074219 73.328125 132.625 71.433594 132.699219 C 70.441406 132.738281 69.492188 132.71875 69.160156 131.976562 C 68.847656 131.121094 68.3125 130.375 68.175781 130.082031 C 68.054688 129.824219 68.035156 128.804688 68.089844 128.164062 C 68.117188 127.816406 68.046875 127.453125 68.109375 127.15625 C 68.238281 126.535156 69.019531 125.980469 69.453125 125.820312 L 69.464844 124.34375 C 69.464844 124.34375 68.859375 122.113281 68.757812 121.113281 C 68.722656 120.753906 68.742188 120.519531 68.75 120.4375 M 72.898438 129.265625 C 72.652344 128.835938 72.5625 128.875 72.492188 128.867188 C 72.417969 128.859375 72.4375 129.179688 72.453125 129.257812 C 72.933594 129.34375 72.898438 129.265625 72.898438 129.265625 M 78.804688 119.316406 C 78.804688 119.316406 78.765625 119.519531 78.339844 120.113281 C 77.914062 120.707031 74.570312 120.613281 74.125 120.558594 C 73.679688 120.503906 72.597656 120.78125 72.363281 122.378906 C 72.289062 122.859375 72.871094 124.109375 73.238281 124.722656 C 73.945312 125.597656 74.953125 126.28125 75.816406 126.332031 C 77.003906 126.402344 76.703125 126.445312 77.539062 125.964844 C 77.820312 125.800781 78.238281 125.578125 78.929688 125.296875 C 79.730469 124.972656 80.164062 124.738281 80.496094 124.253906 C 81.292969 123.105469 80.914062 121.738281 81.359375 121.4375 C 81.992188 121.011719 82.332031 120.1875 82.332031 120.1875 C 82.332031 120.1875 82.757812 118.914062 82.347656 118.136719 C 82.164062 117.792969 81.738281 117.671875 81.179688 117.589844 C 79.359375 117.308594 78.804688 119.316406 78.804688 119.316406 M 37.839844 119.8125 C 37.839844 119.8125 37.734375 118.113281 39.105469 117.757812 C 40.480469 117.40625 40.566406 116.910156 40.847656 115.503906 C 41.128906 114.09375 45.65625 112.539062 47.277344 112.539062 C 49.484375 112.539062 50.199219 113.648438 51.183594 113.683594 C 52.167969 113.71875 53.191406 112.347656 54.878906 112.628906 C 56.570312 112.910156 56.492188 114.230469 56.007812 114.882812 C 55.804688 115.152344 55.792969 116.925781 56.21875 117.207031 C 56.640625 117.488281 56.289062 119.25 55.792969 119.742188 C 55.300781 120.230469 54.890625 122.847656 54.316406 123.578125 C 54.265625 123.644531 54.382812 126.511719 54.382812 126.511719 C 53.976562 127.292969 53.089844 127.566406 52.523438 128.425781 C 52.207031 128.90625 52.453125 129.078125 52.273438 129.457031 C 51.457031 131.203125 50.527344 132.105469 49.210938 132.0625 C 47.523438 132.007812 46.5 131.886719 46.007812 132.941406 C 45.515625 134 45.050781 134.304688 43.394531 134.339844 C 41.738281 134.375 40.339844 134.492188 39.707031 133.578125 C 39.074219 132.660156 37.769531 132.660156 37.769531 132.660156 C 37.769531 132.660156 37.03125 132.484375 36.820312 131.5 C 36.605469 130.511719 36.324219 129.953125 36.007812 129.847656 C 35.691406 129.742188 35.660156 127.207031 35.804688 126.976562 C 35.929688 126.773438 36.191406 126.382812 36.328125 125.851562 C 36.496094 125.191406 36.535156 124.332031 36.570312 123.4375 C 36.570312 123.4375 37.101562 123.296875 37.136719 122.242188 C 37.171875 121.183594 37.125 120.898438 37.546875 120.546875 Z M 42.878906 120.1875 C 42.878906 120.1875 42.898438 120.222656 42.082031 120.558594 C 41.261719 120.890625 41.320312 122.324219 41.28125 122.953125 C 41.242188 123.585938 40.574219 123.121094 40.316406 124.199219 C 40.054688 125.273438 41.523438 126.222656 41.800781 126.59375 C 42.082031 126.964844 43.074219 127.109375 44.363281 127.59375 C 45.949219 128.195312 46.917969 127.851562 48.640625 126.683594 C 51.34375 124.851562 50.917969 121.113281 50.972656 119.667969 C 51.027344 118.21875 51.140625 118.238281 49.636719 117.4375 C 48.132812 116.640625 48.699219 116.878906 47.816406 115.917969 C 47.277344 115.328125 45.839844 115.371094 45.28125 115.910156 C 44.726562 116.449219 45.21875 117.921875 44.863281 118.757812 C 44.511719 119.59375 42.878906 120.1875 42.878906 120.1875 M 95.921875 130.546875 C 95.921875 130.546875 95.363281 129.785156 95.882812 129.542969 C 96.402344 129.304688 96.90625 129.117188 97.535156 129.582031 C 98.167969 130.046875 99.632812 131.328125 98.558594 131.882812 C 97.480469 132.441406 95.921875 130.546875 95.921875 130.546875 M 94.101562 120.429688 C 94.101562 120.429688 94.289062 119.09375 95.085938 119.238281 C 95.882812 119.386719 96.070312 120.019531 95.9375 120.652344 C 95.808594 121.28125 95.382812 122.398438 94.789062 122.398438 C 94.195312 122.398438 93.898438 121.058594 93.933594 120.875 C 93.972656 120.6875 94.101562 120.429688 94.101562 120.429688 M 96.945312 110.476562 C 96.945312 110.382812 96.925781 109.34375 97.535156 109.4375 C 98.148438 109.53125 98.261719 109.53125 98.335938 110.460938 C 98.40625 111.386719 98.128906 111.183594 98.464844 111.628906 C 98.800781 112.074219 99.152344 113.058594 98.746094 113.707031 C 98.335938 114.359375 97.722656 114.582031 97.742188 115.527344 C 97.757812 116.472656 97.386719 117.570312 96.945312 117.605469 C 96.496094 117.644531 96.273438 117.199219 96.21875 116.4375 C 96.164062 115.675781 95.9375 115.378906 95.792969 115.171875 C 95.644531 114.96875 95.753906 114.210938 96.292969 114.078125 C 96.832031 113.949219 96.945312 113.410156 96.960938 113.132812 C 96.980469 112.855469 97.015625 112.652344 97.609375 112.296875 C 98.203125 111.941406 97.367188 111.40625 97.222656 111.125 C 97.070312 110.847656 96.945312 110.476562 96.945312 110.476562 M 97.832031 103.105469 C 97.832031 103.105469 97.796875 102.011719 98.652344 101.75 C 99.503906 101.492188 100.210938 101.863281 100.023438 102.550781 C 99.839844 103.238281 99.503906 104.164062 98.855469 104.292969 C 98.203125 104.425781 98.335938 103.550781 98 103.421875 Z M 98.316406 80.863281 C 98.273438 80.140625 98.488281 79.851562 98.914062 79.320312 C 99.128906 78.847656 99.277344 78.410156 99.746094 78.300781 C 99.746094 78.300781 100.246094 78.203125 100.617188 79.21875 C 100.726562 80.097656 101.359375 80.160156 101.453125 81.03125 C 101.734375 83.554688 101.136719 81.160156 101.046875 83.722656 C 101.046875 83.722656 101.148438 84.34375 100.175781 85.117188 C 100.175781 85.117188 100.226562 86.953125 99.632812 87.640625 C 99.632812 87.640625 99.566406 88.046875 99.949219 88.652344 C 100.316406 89.234375 100.972656 90.964844 100.46875 91.949219 C 99.96875 92.933594 99.820312 92.300781 99.691406 93.804688 C 99.5625 95.308594 99.523438 97.980469 99.820312 98.425781 C 100.117188 98.871094 100.253906 100.066406 99.714844 100.289062 C 99.175781 100.511719 98.667969 100.320312 98.222656 99.746094 C 97.777344 99.171875 97.535156 99.394531 97.59375 98.058594 C 97.648438 96.71875 97.628906 94.25 97.628906 94.25 C 97.628906 94.25 97.984375 93.1875 97.503906 92.757812 C 97.019531 92.332031 96.945312 92.320312 96.90625 91.464844 C 96.886719 91.039062 96.859375 90.054688 96.910156 89.117188 C 96.964844 88.171875 96.894531 87.789062 97.417969 87.027344 C 97.867188 86.371094 98.25 85.535156 98.546875 84.886719 C 98.84375 84.238281 99.5625 84.019531 99.617188 83.445312 C 99.671875 82.871094 99.402344 82.175781 98.929688 81.851562 C 98.398438 81.484375 98.316406 80.863281 98.316406 80.863281 M 98.820312 71.320312 C 98.820312 71.320312 98.910156 69.929688 100.265625 69.578125 C 101.621094 69.222656 101.992188 72.882812 101.992188 72.882812 C 101.992188 72.882812 101.972656 73.734375 101.453125 74.050781 C 100.933594 74.367188 101.417969 73.546875 100.414062 73.640625 C 99.410156 73.734375 100.746094 72.15625 99.839844 72.027344 C 98.929688 71.898438 98.761719 71.730469 98.761719 71.597656 Z M 99.242188 66.882812 C 99.242188 66.882812 99.429688 65.957031 99.929688 66.085938 C 100.433594 66.214844 100.582031 66.25 100.691406 66.402344 C 100.804688 66.550781 101.214844 67.070312 100.839844 67.496094 C 100.46875 67.921875 100.359375 67.90625 99.855469 67.664062 C 99.355469 67.421875 99.242188 66.882812 99.242188 66.882812 M 100.601562 50.339844 C 100.601562 50.339844 100.359375 48.484375 101.492188 48.652344 C 101.492188 48.652344 101.863281 48.839844 101.898438 49.617188 C 101.9375 50.398438 101.753906 50.285156 102.328125 50.859375 C 102.902344 51.4375 102.476562 51.863281 102.789062 52.125 C 103.105469 52.382812 104.089844 53.257812 104.035156 53.960938 C 103.980469 54.667969 103.367188 55.058594 103.347656 55.59375 C 103.328125 56.136719 102.644531 56.429688 102.644531 57.175781 C 102.644531 57.917969 102.753906 57.824219 103.011719 58.289062 C 103.273438 58.753906 103.402344 59.625 102.734375 60.105469 C 102.066406 60.589844 101.214844 61.722656 101.285156 62.113281 C 101.359375 62.5 101.0625 63.300781 100.804688 63.320312 C 100.542969 63.335938 99.820312 62.855469 99.855469 62.28125 C 99.894531 61.703125 100.582031 61.480469 100.582031 60.460938 C 100.582031 59.4375 100.453125 57.636719 100.804688 57.433594 C 101.15625 57.230469 101.898438 56.636719 101.972656 55.59375 C 102.050781 54.554688 102.234375 54.628906 102.382812 54.390625 C 102.53125 54.148438 102.605469 53.664062 102.085938 53.683594 C 101.566406 53.703125 100.601562 53.515625 100.582031 52.773438 C 100.5625 52.03125 100.601562 50.339844 100.601562 50.339844 M 100.582031 45.3125 C 100.582031 45.3125 100.617188 44.027344 101.753906 44.324219 C 102.882812 44.621094 102.457031 45.8125 102.789062 46.199219 C 103.125 46.589844 104.40625 48.371094 103.605469 48.984375 C 102.808594 49.597656 101.917969 48.371094 101.9375 48.003906 C 101.953125 47.632812 101.753906 46.964844 101.324219 46.738281 C 100.898438 46.515625 100.542969 46.183594 100.5625 45.886719 Z M 101.214844 33.113281 C 101.214844 33.113281 101.898438 32.257812 102.957031 32.871094 C 104.015625 33.484375 103.886719 34.484375 103.347656 35.191406 C 102.808594 35.898438 102.347656 36.730469 102.476562 37.566406 C 102.605469 38.402344 102.789062 40.261719 101.992188 40.410156 C 101.195312 40.558594 101.117188 38.71875 101.285156 38.199219 C 101.453125 37.679688 102.085938 37.699219 101.953125 36.660156 C 101.824219 35.617188 101.359375 36.378906 101.269531 35.488281 C 101.175781 34.597656 101.160156 34.644531 100.898438 34.113281 C 100.617188 33.558594 101.214844 33.113281 101.214844 33.113281 M 100.804688 19.152344 C 100.804688 19.152344 101.136719 18.277344 101.9375 18.464844 C 102.734375 18.648438 102.605469 18.722656 104.203125 19.558594 C 105.800781 20.394531 106.078125 20.210938 106.113281 20.953125 C 106.152344 21.695312 105.558594 22.25 104.945312 22.546875 C 104.332031 22.84375 103.515625 23.03125 103.308594 23.753906 C 103.105469 24.480469 102.734375 25.242188 101.992188 25.296875 C 101.25 25.351562 101.136719 24.628906 101.230469 24.015625 C 101.324219 23.402344 102.101562 23.03125 101.972656 21.992188 C 101.84375 20.953125 101.898438 20.617188 101.359375 20.265625 C 100.820312 19.910156 100.65625 19.800781 100.675781 19.503906 C 100.691406 19.207031 100.804688 19.152344 100.804688 19.152344 M 126.210938 24.867188 C 126.210938 24.867188 125.144531 23.957031 126.902344 22.523438 C 127.847656 21.746094 129.226562 21.519531 130.808594 22.796875 C 131.628906 23.464844 131.558594 25.261719 131.105469 26.753906 C 130.089844 28.128906 129.953125 28.070312 129.953125 29.136719 C 129.953125 30.121094 129.945312 30.601562 129.785156 31.023438 C 129.554688 31.632812 129.152344 32.003906 129.226562 32.675781 C 129.304688 33.433594 129.324219 34.152344 128.898438 34.972656 C 128.367188 35.421875 128.019531 35.792969 127.902344 36.273438 L 127.871094 38.359375 C 127.871094 38.359375 127.179688 39.449219 127.222656 39.855469 L 127.222656 44.6875 C 127.222656 44.6875 127.757812 45.417969 127.871094 46.164062 C 128.042969 47.285156 128.445312 47.273438 128.636719 47.515625 C 128.875 47.824219 129.265625 48.203125 129.226562 49.035156 C 129.191406 49.714844 128.765625 50.183594 128.335938 50.589844 C 127.859375 51.03125 127.359375 51.386719 126.898438 51.402344 C 124.992188 51.480469 124.203125 50.171875 124.148438 49.84375 C 124.019531 49.070312 123.523438 49.199219 123.300781 48.996094 C 123.078125 48.792969 122.714844 48.269531 122.792969 47.015625 C 122.875 45.761719 122.894531 44.632812 122.429688 44.121094 C 121.789062 43.414062 122.097656 42.015625 122.496094 41.28125 C 122.777344 40.757812 122.804688 40.625 122.949219 39.613281 C 123.179688 38.972656 123.882812 38.371094 123.988281 37.386719 C 124.078125 36.535156 123.421875 36.515625 123.460938 35.140625 C 123.476562 34.644531 123.511719 34.078125 123.597656 33.523438 C 123.722656 32.710938 123.847656 32.605469 124.511719 31.488281 C 125.136719 30.429688 125.765625 30.148438 126.65625 29.660156 C 126.65625 29.660156 126.734375 28.617188 126.507812 27.390625 C 126.453125 26.378906 126.429688 25.597656 126.371094 25.3125 C 126.3125 25.019531 126.210938 24.867188 126.210938 24.867188 M 22.101562 112.171875 C 22.101562 112.171875 22.984375 111.433594 23.125 110.902344 C 23.261719 110.375 24.636719 110.304688 24.707031 111.078125 C 24.777344 111.851562 25.039062 113.574219 26.414062 114.542969 C 27.402344 115.242188 26.75 117.804688 26.433594 117.839844 C 26.117188 117.875 25.304688 118.332031 25.484375 120.65625 C 25.660156 122.980469 24.636719 124.386719 24.636719 124.386719 C 24.636719 124.386719 24.25 125.40625 24.847656 125.621094 C 25.449219 125.832031 26.222656 126.464844 25.902344 127.203125 C 25.589844 127.941406 24.496094 128.925781 24.777344 130.195312 C 25.058594 131.464844 25.234375 131.394531 26.398438 131.394531 C 27.558594 131.394531 29.109375 131.324219 29.074219 133.046875 C 29.050781 134.195312 25.871094 138.011719 23.300781 138.46875 C 23.300781 138.46875 22.648438 138.074219 21.980469 137.875 C 21.632812 137.769531 21.242188 137.964844 21.011719 137.765625 C 19.660156 136.59375 19.710938 135.96875 19.710938 134.140625 C 19.710938 133.15625 19.832031 131.996094 19.746094 131.058594 C 19.671875 130.257812 19.339844 129.992188 19.226562 129.617188 C 19.109375 129.242188 19.601562 128.261719 20.484375 126.289062 C 21.363281 124.316406 21.398438 124 20.695312 122.167969 C 19.992188 120.339844 20.378906 120.65625 20.625 119.035156 C 20.871094 117.417969 20.308594 116.097656 20.941406 115.375 C 21.691406 114.515625 21.078125 113.574219 21.429688 113.152344 C 21.78125 112.730469 22.101562 112.171875 22.101562 112.171875 M 77.984375 69.25 C 79.179688 68.695312 82.515625 66.777344 83.375 67.441406 C 83.8125 67.78125 84.417969 68.710938 84.550781 69.828125 C 84.742188 71.449219 83.917969 73.238281 81.742188 73.921875 C 81.742188 73.921875 81.113281 74.921875 79.929688 75.316406 C 79.28125 75.53125 78.261719 77.636719 78.261719 77.636719 C 78.261719 77.636719 77.539062 78.675781 77.378906 80.277344 C 77.324219 80.816406 77.425781 81.414062 77.5 81.980469 C 77.855469 82.929688 78.378906 84.058594 79.246094 84.441406 C 80.488281 84.984375 81.355469 84.320312 82.265625 83.71875 C 83.167969 83.121094 84.160156 82.453125 84.863281 82.429688 C 86.277344 82.378906 88.164062 82.4375 88.210938 80.667969 C 88.261719 78.902344 87.804688 77.835938 88.855469 76.417969 C 88.855469 76.417969 88.933594 73.582031 88.949219 73.519531 C 89.378906 73.054688 89.957031 72.910156 89.957031 71.925781 C 89.957031 70.945312 89.5625 70.089844 88.261719 69.839844 C 87.9375 69.773438 87.148438 68.75 87.097656 68.585938 C 86.898438 67.902344 86.886719 67.195312 86.886719 67.195312 C 86.886719 67.195312 86.894531 66.164062 89.242188 66.460938 C 91.589844 66.753906 91.738281 68.816406 91.738281 68.816406 C 91.738281 68.816406 92.226562 70.277344 91.835938 71.261719 C 91.441406 72.242188 91.34375 72.195312 91.492188 72.929688 C 91.640625 73.667969 91.933594 74.589844 91.6875 75.277344 C 91.441406 75.964844 91.148438 76.160156 91.195312 76.703125 C 91.246094 77.242188 92.082031 77.722656 91.882812 79.296875 C 91.6875 80.867188 90.214844 81.515625 90.3125 83.273438 C 90.410156 85.03125 89.636719 86.0625 88.40625 86.453125 C 87.179688 86.84375 84.429688 91.453125 81.445312 91.648438 C 78.460938 91.84375 77.332031 92.082031 73.511719 88.898438 C 69.691406 85.714844 70.414062 84.097656 70.894531 83.320312 C 71.375 82.546875 72.96875 80.171875 72.289062 78.703125 C 71.601562 77.222656 71.914062 76.652344 72.527344 76.015625 C 73.179688 75.339844 74.445312 74.6875 74.6875 73.078125 C 74.835938 72.136719 75.730469 71.871094 76.25 70.574219 C 76.644531 69.59375 77.210938 69.507812 77.984375 69.25 M 46.609375 70.105469 C 46.609375 70.105469 46.707031 67.710938 48.84375 67.96875 C 49.507812 68.050781 49.730469 68.636719 49.976562 69.425781 C 50.867188 70.992188 50.535156 72.550781 50.535156 72.550781 C 50.535156 72.550781 50.359375 74.210938 48.738281 75.25 C 48.738281 75.25 48.269531 75.71875 48.988281 76.800781 C 49.707031 77.878906 50.140625 78.78125 49.960938 79.863281 C 49.777344 80.941406 49.238281 80.90625 48.414062 80.976562 C 47.585938 81.050781 47.65625 82.992188 47.65625 82.992188 L 48.304688 82.992188 C 48.304688 82.992188 49.058594 82.019531 49.960938 82.019531 C 50.859375 82.019531 50.640625 84.113281 50.640625 84.113281 L 50.640625 87.886719 C 50.734375 88.625 49.996094 88.9375 49.996094 89.472656 C 49.996094 90.015625 50.289062 93.039062 48.59375 93.039062 C 46.898438 93.039062 46.007812 91.921875 45.980469 90.300781 C 45.964844 89.257812 46.035156 87.960938 46.035156 87.960938 C 46.035156 87.960938 46.140625 87.277344 45.710938 87.277344 C 45.4375 87.277344 45.324219 86.96875 45.167969 86.523438 C 45.082031 86.265625 44.875 86 44.875 85.628906 L 44.882812 83.789062 C 44.882812 83.789062 44.488281 83.460938 44.488281 82.523438 C 44.488281 81.589844 45.0625 81.839844 44.988281 81.191406 C 44.917969 80.546875 44.988281 77.734375 44.988281 77.734375 C 44.988281 77.734375 45.007812 76.71875 45.601562 76.585938 C 45.628906 75.882812 46.089844 75.46875 46.753906 75.46875 C 46.753906 75.46875 46.96875 75.179688 46.789062 74.75 C 46.609375 74.316406 46.535156 74.816406 46.535156 73.628906 C 46.535156 72.441406 46.4375 72.421875 46.140625 71.792969 C 45.851562 71.183594 46.609375 70.105469 46.609375 70.105469 "/>
</svg>
