<?xml version="1.0" encoding="UTF-8" standalone="no"?>
<!-- Created with Inkscape (http://www.inkscape.org/) -->

<svg
   width="131mm"
   height="131mm"
   viewBox="0 0 131 131"
   version="1.1"
   id="svg5"
   xml:space="preserve"
   inkscape:version="1.2.2 (b0a8486541, 2022-12-01)"
   sodipodi:docname="Logo SRA_nachzeichnung.svg"
   xmlns:inkscape="http://www.inkscape.org/namespaces/inkscape"
   xmlns:sodipodi="http://sodipodi.sourceforge.net/DTD/sodipodi-0.dtd"
   xmlns="http://www.w3.org/2000/svg"
   xmlns:svg="http://www.w3.org/2000/svg"><sodipodi:namedview
     id="namedview7"
     pagecolor="#ffffff"
     bordercolor="#666666"
     borderopacity="1.0"
     inkscape:showpageshadow="2"
     inkscape:pageopacity="0.0"
     inkscape:pagecheckerboard="0"
     inkscape:deskcolor="#d1d1d1"
     inkscape:document-units="mm"
     showgrid="false"
     inkscape:zoom="0.64693624"
     inkscape:cx="210.22164"
     inkscape:cy="91.971969"
     inkscape:window-width="1276"
     inkscape:window-height="714"
     inkscape:window-x="0"
     inkscape:window-y="3"
     inkscape:window-maximized="0"
     inkscape:current-layer="svg5" /><defs
     id="defs2" /><g
     inkscape:groupmode="layer"
     id="layer2"
     inkscape:label="vektor"
     style="display:inline"><rect
       style="opacity:1;fill:#d12121;fill-opacity:1;stroke:none;stroke-width:0.364864;stroke-linecap:round;stroke-linejoin:round;paint-order:markers fill stroke"
       id="rect354"
       width="131"
       height="131"
       x="0"
       y="0" /><rect
       style="opacity:1;fill:#ffffff;fill-opacity:1;stroke:none;stroke-width:0.233831;stroke-linecap:round;stroke-linejoin:round;paint-order:markers fill stroke"
       id="rect1645"
       width="3.3348053"
       height="14.725388"
       x="6.69556"
       y="5.3812051" /><path
       style="fill:#ffffff;fill-opacity:0.94902;stroke:none;stroke-width:0.264583px;stroke-linecap:butt;stroke-linejoin:miter;stroke-opacity:1"
       d="m 33.688467,8.9591243 c 0,0 0.326361,-3.6060969 -8.233417,-3.9353337 -8.26663,0.243316 -9.71814,2.6223169 -9.818081,3.9869184 -0.09016,1.231029 1.805363,3.270763 9.146334,3.864975 2.416724,0.195621 6.744035,1.131217 6.496785,3.04332 -0.471517,3.646461 -13.738331,3.430342 -13.300466,-0.242387 0,0 -3.027531,-0.08905 -3.092847,-0.06248 -0.03469,0.01412 -0.42691,4.230076 9.600744,4.496865 1.596316,0.04247 9.959297,-0.579529 10.058685,-4.400817 0.09668,-3.717027 -6.875837,-3.850069 -9.900068,-4.265603 -1.646208,-0.226192 -5.653244,-0.727508 -5.672493,-2.4895867 -0.01203,-1.1012936 1.806971,-2.5601203 6.427834,-2.4376139 5.428909,0.1439291 5.356002,2.5222031 5.333773,2.4881495 z"
       id="path2271"
       sodipodi:nodetypes="ccsssssssssscc" /><path
       style="fill:#ffffff;fill-opacity:0.94902;stroke:none;stroke-width:0.264583px;stroke-linecap:butt;stroke-linejoin:miter;stroke-opacity:1"
       d="m 39.526649,5.3807568 5.29e-4,14.6644112 17.74957,-7.93e-4 -6.1e-5,-1.373682 -14.50686,6.35e-4 -2.33e-4,-5.242789 14.541735,-6.62e-4 -6.4e-5,-1.398314 -14.581425,6.61e-4 -2.33e-4,-5.1832604 14.533589,-6.614e-4 -6.4e-5,-1.4494291 -17.736608,7.938e-4 z"
       id="path2369" /><path
       style="display:inline;fill:#ffffff;fill-opacity:0.94902;stroke:none;stroke-width:0.264583px;stroke-linecap:butt;stroke-linejoin:miter;stroke-opacity:1"
       d="m 140.37793,150.2432 0.70379,1.8086 5.60853,0.0114 -0.82392,-1.82316 z"
       id="path2467"
       sodipodi:nodetypes="ccccc"
       transform="translate(-17.155155,-26.15556)" /><path
       style="display:inline;fill:#ffffff;fill-opacity:0.94902;stroke:none;stroke-width:0.264583px;stroke-linecap:butt;stroke-linejoin:miter;stroke-opacity:1"
       d="m 137.41717,143.21086 1.32975,3.37021 5.53803,-0.002 -1.33699,-3.36945 z"
       id="path2465"
       sodipodi:nodetypes="ccccc"
       transform="translate(-17.155155,-26.15556)" /><path
       style="display:inline;fill:#ffffff;fill-opacity:0.94902;stroke:none;stroke-width:0.264583px;stroke-linecap:butt;stroke-linejoin:miter;stroke-opacity:1"
       d="m 104.35326,136.04528 -2.01734,4.6411 5.1994,0.0205 2.02513,-4.53379 24.81453,0.0441 1.9089,4.46806 5.57588,0.0222 -2.00583,-4.65261 z"
       id="path2459"
       sodipodi:nodetypes="ccccccccc"
       transform="translate(-17.155155,-26.15556)" /><path
       style="display:inline;fill:#ffffff;fill-opacity:0.94902;stroke:none;stroke-width:0.264583px;stroke-linecap:butt;stroke-linejoin:miter;stroke-opacity:1"
       d="m 107.89923,127.4425 10.92227,-25.54283 6.45338,-0.0116 10.87222,25.54826 -5.39948,-0.008 -8.82628,-20.9396 -8.72986,20.94252 z"
       id="path2463"
       sodipodi:nodetypes="cccccccc"
       transform="translate(-17.155155,-26.15556)" /><path
       style="display:inline;fill:#ffffff;fill-opacity:0.94902;stroke:none;stroke-width:0.264583px;stroke-linecap:butt;stroke-linejoin:miter;stroke-opacity:1"
       d="m 101.25295,143.19044 -1.442017,3.33609 5.356067,-1.1e-4 1.32061,-3.32331 z"
       id="path2457"
       sodipodi:nodetypes="ccccc"
       transform="translate(-17.155155,-26.15556)" /><path
       style="display:inline;fill:#ffffff;fill-opacity:0.94902;stroke:none;stroke-width:0.264583px;stroke-linecap:butt;stroke-linejoin:miter;stroke-opacity:1"
       d="m 98.293183,150.15514 -0.865285,1.86168 5.388222,3.7e-4 0.89107,-1.83985 z"
       id="path2455"
       sodipodi:nodetypes="ccccc"
       transform="translate(-17.155155,-26.15556)" /><path
       style="display:inline;fill:#ffffff;fill-opacity:0.94902;stroke:none;stroke-width:0.264583px;stroke-linecap:butt;stroke-linejoin:miter;stroke-opacity:1"
       d="m 87.660781,150.12273 1.366483,1.92645 6.236511,0.007 -1.239711,-1.9307 z"
       id="path2453"
       sodipodi:nodetypes="ccccc"
       transform="translate(-17.155155,-26.15556)" /><path
       style="display:inline;fill:#ffffff;fill-opacity:0.94902;stroke:none;stroke-width:0.264583px;stroke-linecap:butt;stroke-linejoin:miter;stroke-opacity:1"
       d="m 82.946131,143.20503 2.177764,3.34507 6.321176,-0.007 -2.324541,-3.35875 z"
       id="path2451"
       transform="translate(-17.155155,-26.15556)" /><path
       style="display:inline;fill:#ffffff;fill-opacity:0.94902;stroke:none;stroke-width:0.264583px;stroke-linecap:butt;stroke-linejoin:miter;stroke-opacity:1"
       d="m 78.162544,136.30487 2.95316,4.37031 6.358083,0.0472 -3.122134,-4.44854 z"
       id="path2449"
       transform="translate(-17.155155,-26.15556)" /><path
       style="display:inline;fill:#ffffff;fill-opacity:0.94902;stroke:none;stroke-width:0.264583px;stroke-linecap:butt;stroke-linejoin:miter;stroke-opacity:1"
       d="m 72.862646,128.49981 4.190505,6.21139 6.238823,0.003 -1.367104,-2.28138 c 4.580769,-0.34413 8.243519,-2.63452 8.967894,-3.94245 z"
       id="path2447"
       sodipodi:nodetypes="cccccc"
       transform="translate(-17.155155,-26.15556)" /><path
       style="display:inline;fill:#ffffff;fill-opacity:0.94902;stroke:none;stroke-width:0.264583px;stroke-linecap:butt;stroke-linejoin:miter;stroke-opacity:1"
       d="m 60.082031,101.91128 -0.0021,25.55109 5.171024,-0.0153 -0.01799,-20.6904 c 0,0 6.909114,-0.0787 13.422796,0.0827 6.513683,0.16142 11.098372,4.56394 11.019019,10.79603 -0.08605,6.75813 -4.16689,8.81014 -7.286568,9.75581 l 9.505793,0.085 c 0,0 3.579698,-4.10813 3.608108,-9.28454 0.0413,-7.52535 -5.071676,-16.22927 -18.688341,-16.25878 z"
       id="path2445"
       sodipodi:nodetypes="cccczsccscc"
       transform="translate(-17.155155,-26.15556)" /><rect
       style="display:inline;opacity:1;fill:#ffffff;fill-opacity:0.94902;stroke:none;stroke-width:0.222;stroke-linecap:round;stroke-linejoin:round;paint-order:markers fill stroke"
       id="rect2443"
       width="5.0904026"
       height="6.1486707"
       x="60.124588"
       y="128.51997"
       transform="translate(-17.155155,-26.15556)" /><rect
       style="display:inline;opacity:1;fill:#ffffff;fill-opacity:0.94902;stroke:none;stroke-width:0.222;stroke-linecap:round;stroke-linejoin:round;paint-order:markers fill stroke"
       id="rect2441"
       width="5.0232334"
       height="4.4120536"
       x="60.142479"
       y="136.27074"
       transform="translate(-17.155155,-26.15556)" /><rect
       style="display:inline;opacity:1;fill:#ffffff;fill-opacity:0.94902;stroke:none;stroke-width:0.222;stroke-linecap:round;stroke-linejoin:round;paint-order:markers fill stroke"
       id="rect2439"
       width="5.1347585"
       height="3.3894653"
       x="60.090195"
       y="143.1655"
       transform="translate(-17.155155,-26.15556)" /><rect
       style="display:inline;opacity:1;fill:#ffffff;fill-opacity:0.94902;stroke:none;stroke-width:0.222;stroke-linecap:round;stroke-linejoin:round;paint-order:markers fill stroke"
       id="rect2437"
       width="5.1644144"
       height="1.7851175"
       x="60.098244"
       y="150.25816"
       transform="translate(-17.155155,-26.15556)" /><path
       style="display:inline;fill:#ffffff;fill-opacity:0.94902;stroke:none;stroke-width:0.264583px;stroke-linecap:butt;stroke-linejoin:miter;stroke-opacity:1"
       d="m 4.3353827,111.72764 c 0,0 -0.031856,1.87258 0.2770461,2.81503 l 5.1504321,-0.004 c 0,0 -0.3286457,-1.2212 -0.3270214,-2.81543 z"
       id="path2383"
       sodipodi:nodetypes="ccccc" /><path
       style="display:inline;fill:#ffffff;fill-opacity:0.94902;stroke:none;stroke-width:0.264583px;stroke-linecap:butt;stroke-linejoin:miter;stroke-opacity:1"
       d="m 5.1631691,117.03939 c 0.087787,0.33559 0.5985717,2.1638 1.7511272,3.34104 l 7.0681117,0.0146 c 0,0 -2.102562,-1.40294 -3.231667,-3.36548 z"
       id="path2381"
       sodipodi:nodetypes="ccccc" /><path
       style="display:inline;fill:#ffffff;fill-opacity:0.94902;stroke:none;stroke-width:0.264583px;stroke-linecap:butt;stroke-linejoin:miter;stroke-opacity:1"
       d="m 29.41836,124.06013 -19.291122,-0.002 c 0,0 3.314415,2.89596 9.186328,2.91227 7.313573,0.0203 10.104794,-2.91016 10.104794,-2.91016 z"
       id="path2379"
       sodipodi:nodetypes="ccsc" /><path
       style="display:inline;fill:#ffffff;fill-opacity:0.94902;stroke:none;stroke-width:0.264583px;stroke-linecap:butt;stroke-linejoin:miter;stroke-opacity:1"
       d="m 28.986003,117.01595 5.663176,-0.012 c 0,0 -0.720267,2.36926 -1.771038,3.37165 l -7.197916,-0.004 c 0,0 2.466716,-1.58264 3.305778,-3.35563 z"
       id="path2377"
       sodipodi:nodetypes="ccccc" /><path
       style="display:inline;fill:#ffffff;fill-opacity:0.94902;stroke:none;stroke-width:0.264583px;stroke-linecap:butt;stroke-linejoin:miter;stroke-opacity:1"
       d="m 30.191059,110.14844 c 0.171168,3.41349 -0.211434,4.34319 -0.211434,4.34319 l 5.35323,0.0426 c 0.406692,-1.53833 0.318161,-4.40927 0.318161,-4.40927 z"
       id="path2375"
       sodipodi:nodetypes="ccccc" /><path
       style="display:inline;fill:#ffffff;fill-opacity:0.94902;stroke:none;stroke-width:0.264583px;stroke-linecap:butt;stroke-linejoin:miter;stroke-opacity:1"
       d="m 21.669398,102.30875 c 0,0 6.597986,2.54627 7.796904,6.12084 l 6.022756,0.009 c 0,0 0.08649,-3.52502 -2.970026,-6.14495 z"
       id="path2373"
       sodipodi:nodetypes="ccccc" /><path
       style="display:inline;fill:#ffffff;fill-opacity:0.94902;stroke:none;stroke-width:0.264583px;stroke-linecap:butt;stroke-linejoin:miter;stroke-opacity:1"
       d="m 34.564375,88.043303 c 0,0 0.06675,-13.13063 -13.734213,-13.120064 -9.248631,0.0071 -15.3303645,5.898818 -15.3037255,13.309742 0.037336,10.386655 9.4692325,11.618472 12.9149225,13.042349 l 12.914168,0.012 C 25.175303,95.85924 11.20321,97.392543 11.116547,88.641194 c -0.04486,-4.530037 2.811542,-9.065331 9.355531,-9.094867 9.112536,-0.04113 9.240161,8.462368 9.240161,8.462368 z"
       id="path2371"
       sodipodi:nodetypes="cssccsscc" /><path
       style="display:inline;fill:#ffffff;fill-opacity:0.94902;stroke:none;stroke-width:0.264583px;stroke-linecap:butt;stroke-linejoin:miter;stroke-opacity:1"
       d="m 90.331675,102.42103 -2.531228,6.04572 34.197363,-0.0227 -2.52858,-6.02376 -5.38777,-0.004 1.37094,3.2491 -21.193295,-0.0207 1.236317,-3.21769 z"
       id="path2502"
       sodipodi:nodetypes="ccccccccc" /></g></svg>
