<?xml version="1.0" encoding="UTF-8" standalone="no"?>
<!-- Created with Inkscape (http://www.inkscape.org/) -->

<svg
   version="1.1"
   id="svg1"
   width="708.7381"
   height="710.7782"
   viewBox="0 0 708.7381 710.7782"
   sodipodi:docname="logo_sensors.svg"
   inkscape:version="1.3.2 (091e20ef0f, 2023-11-25)"
   inkscape:export-filename="logo_sensors.png"
   inkscape:export-xdpi="34.540264"
   inkscape:export-ydpi="34.540264"
   xmlns:inkscape="http://www.inkscape.org/namespaces/inkscape"
   xmlns:sodipodi="http://sodipodi.sourceforge.net/DTD/sodipodi-0.dtd"
   xmlns="http://www.w3.org/2000/svg"
   xmlns:svg="http://www.w3.org/2000/svg">
  <defs
     id="defs1" />
  <sodipodi:namedview
     id="namedview1"
     pagecolor="#ffffff"
     bordercolor="#111111"
     borderopacity="1"
     inkscape:showpageshadow="0"
     inkscape:pageopacity="0"
     inkscape:pagecheckerboard="1"
     inkscape:deskcolor="#d1d1d1"
     inkscape:zoom="4.5643223"
     inkscape:cx="143.72342"
     inkscape:cy="317.24315"
     inkscape:window-width="1920"
     inkscape:window-height="1036"
     inkscape:window-x="0"
     inkscape:window-y="0"
     inkscape:window-maximized="1"
     inkscape:current-layer="g1" />
  <g
     inkscape:groupmode="layer"
     inkscape:label="Image"
     id="g1"
     transform="translate(-4.1860645,-1.9655889)">
    <path
       style="display:inline;fill:#000000"
       d="m 270.88664,700.75 c -1.48547,-7.52768 -1.33749,-12.18936 -1.22942,-25.24832 0.1113,-13.4486 -0.18081,-19.21343 -1,-19.73469 -0.63647,-0.405 -6.21972,-0.74326 -12.40722,-0.75168 L 245,655 v -39.35993 -39.35992 l -16.25,-0.54434 c -13.61529,-0.45608 -17.70922,-0.97519 -25.25,-3.20166 -28.59829,-8.44388 -50.94351,-31.73965 -58.54374,-61.03415 -1.43506,-5.53133 -2.25778,-12.70236 -2.66613,-23.23853 L 141.69955,473.02294 102.59977,472.76147 63.5,472.5 63.219992,460.34601 62.939983,448.19202 40.719992,447.80395 C 15.367617,447.36117 13.044301,446.80476 8.1108975,439.99439 0.37854624,429.32019 5.3647193,413.49067 17.522546,410.11538 19.832841,409.47399 30.197409,409.00882 42.25,409.00558 L 63,409 V 393.5 378 H 41.21189 C 20.601558,378 19.183311,377.87837 14.975265,375.75 12.374388,374.43451 9.2751804,371.69903 7.5133751,369.16386 4.9365284,365.45587 4.4061154,362.00672 4.5,358.5 c 0.1043314,-3.89692 0.4301947,-6.93674 3,-10.5748 5.48864,-7.77024 7.805194,-8.37943 33.25,-8.74394 L 63,338.86252 v -14.83483 -14.83482 l -22.25,-0.369 C 16.087274,308.41486 14.982296,308.16068 9.1905233,301.56421 5.5973688,297.47184 3.570054,291.03687 4.3533066,286.21025 5.2585438,280.63193 9.6638995,274.22237 14.293141,271.74831 18.23029,269.64414 19.926494,269.47956 40.75,269.18126 L 63,268.86252 V 256.93126 245 h 39.35816 39.35816 l 0.55887,-15.75 c 0.39476,-11.12517 1.16506,-18.09912 2.62325,-23.75 4.29858,-16.65817 15.98996,-34.73333 29.62619,-45.80283 7.6202,-6.18587 24.03044,-14.26534 33.01567,-16.25505 3.82784,-0.84764 13.8222,-1.80849 22.2097,-2.13522 L 245,140.71285 V 101.35642 62 h 12.31063 12.31062 l -0.0334,-21.75 c -0.0309,-20.127524 0.12603,-22.099362 2.10366,-26.433346 2.22485,-4.875791 4.32698,-8.431923 12.17624,-11.0475081 2.14226,-0.7138583 7.68671,-1.7181503 12.8606,0.8715395 6.26752,3.1370799 7.83122,5.7151276 10.11462,9.8593146 1.36891,2.484464 1.71034,6.909479 1.98684,25.75 L 309.16369,62 H 324 338.83631 l 0.33386,-22.75 c 0.27706,-18.878991 0.61611,-23.260463 1.99258,-25.75 3.56606,-6.4497341 7.82851,-11.7334073 18.20937,-11.4906159 8.8991,0.2081355 12.99211,5.2298964 15.77115,9.6998869 C 377.39509,15.33126 377.52226,16.523816 378,38.5 l 0.5,23 h 15 15 L 408.5801,40 c 0.0989,-26.554361 0.22123,-30.024743 10.56703,-35.7104517 8.51272,-4.6783044 19.74878,-1.3609794 22.69791,4.0707617 3.39184,6.24713 5.58832,6.533294 5.97954,30.88969 L 448.18996,62 h 11.89341 11.89342 l 0.2616,39.25 0.26161,39.25 15,0.65714 c 16.41604,0.71918 25.1932,2.37715 35.49214,6.70431 20.17689,8.47743 39.25597,28.36337 46.58528,48.5554 3.07027,8.4585 5.42258,21.27593 5.42258,29.54693 0,3.70856 0.28911,9.50885 0.64246,12.88953 L 576.28491,245 H 615.14246 654 v 11.91815 11.91816 l 22.91626,0.33184 22.91627,0.33185 4.33373,3.01338 c 12.20095,8.48367 11.42582,26.90839 -1.41738,33.69098 -3.95972,2.09116 -5.76489,2.26923 -26.52506,2.61655 l -22.27618,0.37269 0.27618,14.6532 L 654.5,338.5 677,339 c 18.39235,0.40872 23.04769,0.80214 25.5,2.15499 12.823,7.07396 14.07823,25.31673 2.30388,33.48338 L 700.6781,377.5 677.58905,378 654.5,378.5 v 15 15 l 23.5,0.56474 c 12.925,0.3106 23.58099,0.71453 23.74712,0.75 5.60162,1.19609 9.26992,8.16381 9.80942,10.97483 1.47857,7.704 1.01507,16.56044 -4.72287,21.9127 C 701.73896,447.45454 698.51611,448 675.53212,448 H 654 v 12.5 12.5 h -38.95469 -38.95468 l -0.49554,3.25 c -0.27254,1.7875 -0.7073,9.325 -0.96612,16.75 -0.82996,23.80943 -7.52325,39.62533 -24.06406,56.86221 C 533.50986,567.63496 516.54388,574.68525 488,575.86135 l -15.5,0.63865 -0.26158,39.21836 -0.26158,39.21837 -11.73842,0.28163 L 448.5,655.5 l -0.61248,21 c -0.33687,11.55 0.26312,20.94607 -1.38593,25.75 -2.40577,7.00838 -10.58938,10.21536 -16.64093,10.47595 -6.09914,0.26264 -15.81732,-2.33704 -18.92244,-10.3627 C 410.13886,700.29718 409.46572,692.30357 409.0904,678 L 408.5,655.5 h -15 -15 l -0.609,22 c -0.33495,12.1 0.86598,20.00784 -1.38084,25.75 -2.65722,6.79102 -10.37361,9.89476 -17.54524,9.44742 -5.74095,-0.35811 -11.0211,-1.635 -15.09337,-5.69742 -1.27436,-1.27128 -2.97028,-5.25 -2.97028,-5.25 -0.74536,-3.09473 -1.3541,-13.2553 -1.48282,-24.75 -0.1201,-10.725 -0.26338,-20.0625 -0.31841,-20.75 C 339.02481,655.31 335.27998,655 324,655 h -15 l -0.0198,17.25 c -0.0177,15.39382 0.19252,22.35541 -1.89715,30.80837 -1.38395,5.59823 -10.70209,9.31956 -18.01378,9.20603 -6.55728,-0.10182 -16.48771,-2.92532 -18.18263,-11.5144 z M 433,596 v -20 h -74 -74 v 20 20 h 74 74 z m 65.45235,-60.45953 c 4.19556,-0.80275 9.96098,-2.71525 12.81204,-4.25 6.59491,-3.55012 15.4459,-12.37492 18.95911,-18.90304 5.96075,-11.07604 5.74557,-5.33642 5.76172,-153.69002 0.0164,-150.65996 0.30862,-143.73195 -6.55284,-155.3541 -1.89737,-3.21382 -5.58335,-7.77851 -8.19107,-10.14376 C 515.20909,187.72823 504.08819,182.25371 497,181.26623 493.975,180.8448 429.625,180.725 354,181 l -137.5,0.5 -5.69642,2.36828 C 198.67493,188.91075 187.57939,200.94603 183.45515,213.533 181.55281,219.33882 181.5,223.26809 181.5,359 v 139.5 l 2.25466,5.92009 c 3.34936,8.79447 6.42677,13.51563 12.64067,19.39247 6.36758,6.02219 15.56932,10.71769 23.60467,12.04507 3.07644,0.50821 63.95727,0.96008 138.16203,1.02547 112.486,0.0991 133.82219,-0.10507 140.29032,-1.34263 z M 142,358.5 V 284 H 122.5 103 v 74.5 74.5 h 19.5 19.5 z m 473,0 V 284 h -20 -20 v 74.5 74.5 h 20 20 z M 432.77114,121.25 432.5,101.5 358.75,101.24355 285,100.9871 V 120.99355 141 h 74.02114 74.02114 z"
       id="path14"
       inkscape:label="chip"
       sodipodi:nodetypes="sssscccsssscccccsssscccsssssscccssssscccccssssscccccsssssscccssssscccsssscccccssssscccccccssscccssscccccssssscccccsssscccccssssscccsssscssscsssscccccccccsssssssscssscsssssccccccccccccccccccccccccccc" />
    <path
       style="display:inline;fill:#ff2923;fill-opacity:1;stroke-width:2;stroke-dasharray:none;stroke:#ff2923;stroke-opacity:1;paint-order:normal;stroke-linecap:butt;stroke-linejoin:miter"
       d="m 313.7977,513.0692 c -12.14496,-3.88322 -18.88819,-9.83455 -25.73389,-22.71179 L 284.5,483.65364 276,481.93672 c -14.85379,-3.00032 -24.09979,-7.95041 -29.95964,-16.0397 -4.49214,-6.20122 -5.3662,-10.69098 -4.65225,-23.89702 l 0.62172,-11.5 -7.60039,-5 c -8.91781,-5.86667 -14.36071,-11.65712 -18.0549,-19.20778 -2.16769,-4.4306 -2.75472,-7.28282 -3.13827,-15.24804 -0.55471,-11.51955 1.0937,-20.25019 6.21056,-32.89371 l 3.37907,-8.34952 -2.92969,-8.65048 c -6.57432,-19.41196 -8.47183,-38.23311 -5.37715,-53.33509 0.8425,-4.11138 3.53177,-11.45195 6.14014,-16.76001 6.0019,-12.2139 17.39609,-24.06176 30.8608,-32.08954 6.24153,-3.72126 12.6805,-8.90591 21.00828,-16.91586 12.89999,-12.40766 18.14924,-15.68845 32.66933,-20.41838 16.12593,-5.25304 30.73343,-5.75608 44.41723,-1.52958 7.58887,2.34396 10.56828,2.20416 22.33753,-1.04815 11.6685,-3.22447 25.83283,-2.21967 41.06763,2.91328 13.57107,4.57241 18.89716,7.96895 31.49172,20.08283 8.29454,7.97797 14.79167,13.2135 21.00828,16.92891 11.34763,6.78201 23.70996,18.88142 28.97061,28.35447 11.45944,20.63545 12.43282,42.83273 3.15731,72.00061 l -3.44524,10.83397 2.96999,7.16603 c 4.13338,9.97309 6.83205,21.89002 6.84032,30.20594 0.0176,17.72037 -7.02308,29.20193 -24.6302,40.1654 l -4.48823,2.7947 0.68445,11.27938 c 0.80019,13.18655 -0.10758,17.55327 -5.06986,24.38802 -5.93112,8.16919 -14.44338,12.72843 -29.48915,15.79465 l -8.5,1.73225 -4,7.18049 c -5.31308,9.53763 -8.79939,13.72464 -14.37188,17.2604 -11.13103,7.06267 -27.20875,8.78332 -44.38706,4.75033 -9.54306,-2.24044 -12.98768,-2.1618 -24.74106,0.56487 -9.0315,2.09521 -24.0303,1.91198 -31.2023,-0.38119 z M 337,500.94664 c 3.575,-0.57104 8.1875,-1.48498 10.25,-2.03099 L 351,497.92291 V 444.46146 391 H 333.5 316 v 13.56698 13.56698 l 5.25,5.94402 c 6.80202,7.7012 8.75,11.4165 8.75,16.68854 0,12.45084 -12.45848,23.68735 -23.95475,21.60518 C 295.20565,460.40846 287,451.1929 287,440.98246 287,435.6032 289.08869,431.67021 295.4878,425 l 5.27645,-5.5 0.55795,-18.33406 c 0.65327,-21.46652 1.0263,-22.53066 8.24485,-23.52008 C 312.1587,377.29064 322.54134,377 332.63957,377 H 351 V 349.5 322 h -10.55718 c -10.96719,0 -18.62416,-1.30864 -20.43688,-3.49285 -0.58,-0.69885 -1.33866,-7.84886 -1.68591,-15.8889 L 317.68865,288 h -7.43704 -7.43704 l -6.15729,5.59063 c -7.87079,7.14645 -10.93093,8.69508 -17.1817,8.69508 -15.41903,0 -25.9517,-16.02287 -19.57972,-29.78571 4.77454,-10.31251 17.72046,-15.63502 27.12649,-11.15263 1.91271,0.91148 6.2498,4.13121 9.63798,7.15494 l 6.16032,5.49769 9.83968,0.006 c 10.24246,0.006 16.37058,1.12181 18.18858,3.31236 0.58596,0.70604 1.37792,7.89834 1.75992,15.98289 L 333.30336,308 h 8.91369 8.91369 l -0.31537,-44.25 c -0.31461,-44.14372 -0.32081,-44.25763 -2.5822,-47.428 -1.26987,-1.78031 -3.87622,-3.70915 -5.9262,-4.38571 -5.75035,-1.89778 -21.21318,-0.61621 -31.30697,2.59474 -14.59086,4.64154 -18.74443,7.2943 -29.38146,18.7651 -6.25982,6.75048 -11.48168,11.38578 -14.88121,13.20963 -16.58699,8.89892 -27.08025,18.03186 -32.58589,28.36149 C 229.90815,282.82847 227,294.57489 227,303.75288 c 0,8.40116 2.79364,23.32964 6.31526,33.74712 l 2.36635,7 11.2939,0.28401 11.29391,0.28401 6.70723,-6.47529 c 7.09577,-6.85038 9.71346,-8.07282 17.12829,-7.99878 9.72758,0.0971 18.66014,8.90576 19.66803,19.39513 1.18553,12.33804 -8.52492,22.93154 -21.07263,22.98896 -6.03832,0.0276 -9.65778,-1.84199 -16.85366,-8.70569 l -5.71143,-5.44778 -11.52662,0.33771 c -13.31938,0.39025 -13.12641,0.26579 -16.80395,10.83772 -3.2458,9.33083 -3.29181,25.65427 -0.0892,31.64255 3.04121,5.68645 8.32606,9.92145 20.19245,16.18117 5.55062,2.92804 10.09204,5.94752 10.09204,6.70994 0,0.76242 -1.17755,5.95726 -2.61677,11.5441 -3.88395,15.07687 -2.62335,21.07102 5.60976,26.67437 4.17107,2.83878 8.08419,3.88645 21.60557,5.78451 5.94962,0.83518 11.16843,2.0686 11.59736,2.74093 0.42893,0.67234 1.96541,4.37243 3.41441,8.22243 4.25375,11.30226 6.66162,14.78589 12.36587,17.89053 4.57767,2.49148 10.75,4.16655 16.5238,4.4843 1.1,0.0605 4.925,-0.35715 8.5,-0.92819 z m 66.74237,-3.0578 c 6.64003,-3.19819 9.66439,-6.98758 12.28199,-15.38884 1.00975,-3.24081 4.53045,-11.1797 5.4331,-12.25121 0.11639,-0.13816 5.08197,-0.93488 11.03462,-1.77049 16.86527,-2.36746 21.20988,-3.95853 25.84234,-9.46389 3.89446,-4.6283 4.29328,-9.01477 1.81767,-19.99213 -2.56435,-11.37084 -2.66734,-14.86509 -0.58373,-19.8044 0.86261,-2.04483 1.82622,-7.60909 2.14136,-12.36501 l 0.57299,-8.64712 -29.11403,-0.35288 c -36.24845,-0.43934 -33.4167,1.06788 -33.99394,-18.09356 L 398.7753,366.5 l -5.24771,-5.52906 c -6.6224,-6.97743 -8.63651,-10.87701 -8.66831,-16.78294 -0.0326,-6.0497 1.21848,-9.16143 5.65967,-14.0773 12.15821,-13.45768 33.17897,-6.88459 36.95486,11.55562 1.17496,5.73817 -1.09118,10.89058 -8.02069,18.23623 L 413,366.7432 v 8.6257 8.62571 l 27.38329,-0.0457 c 15.0608,-0.0251 28.50434,0.23572 29.87453,0.57961 3.66898,0.92086 4.91637,4.67593 5.72884,17.24579 0.4008,6.2009 1.03768,11.58332 1.41529,11.96092 1.05002,1.05003 5.18835,-4.46839 9.08867,-12.11964 2.94175,-5.77079 3.50938,-7.931 3.50938,-13.3556 0,-8.2819 -1.94743,-15.702 -6.97982,-26.59461 C 480.80908,356.87947 479,352.16331 479,351.18503 c 0,-0.97829 1.80176,-7.14178 4.00391,-13.69666 7.11476,-21.17766 8.47355,-32.81769 5.48517,-46.98837 -3.7998,-18.01835 -14.45054,-30.92448 -34.48393,-41.78621 -5.79377,-3.14128 -10.24147,-6.84214 -19.50515,-16.22994 -11.86856,-12.02759 -12.0982,-12.19606 -20.96564,-15.38143 -16.54911,-5.94479 -32.50183,-7.81416 -39.9887,-4.68595 -6.78636,2.83553 -7.00472,3.84726 -7.40067,34.28906 L 365.78999,274 h 26.69772 26.69772 l 6.15729,-5.59063 c 3.3865,-3.07485 7.49675,-6.28914 9.13388,-7.14286 6.5312,-3.40587 17.66741,-1.06161 23.21133,4.88617 2.97994,3.19702 6.26459,10.69573 6.28453,14.34732 0.0638,11.67504 -9.90783,21.78571 -21.48605,21.78571 -6.25201,0 -9.72768,-1.76298 -17.30378,-8.77711 L 419.23269,288 H 392.61634 366 v 73 73 h 12.79705 12.79705 l 3.95295,-4.12678 c 2.17412,-2.26973 5.95355,-5.41973 8.39873,-7 14.45806,-9.34396 34.69172,5.30853 30.89715,22.37459 -1.90081,8.54886 -7.90129,14.48475 -16.93907,16.75673 -7.20576,1.81143 -11.6961,0.0994 -19.80641,-7.55142 L 391.2568,448 H 378.6284 366 v 24.96146 24.96145 l 4.25,1.16178 c 13.33305,3.64472 24.25184,3.25486 33.49237,-1.19585 z m 15.07502,-49.11998 c 3.21592,-1.66301 2.78498,-5.96756 2.78498,-8.71327 0,-3.67318 -2.27426,-6.72901 -8.76259,-6.57985 -3.2928,0.0757 -6.91249,3.38577 -7.50059,6.24311 -0.84796,4.11995 1.34199,7.36408 4.41613,8.92069 2.1175,1.07221 7.52106,0.92621 9.06207,0.12932 z M 314.25,445.8862 C 318.35259,440.94488 314.99298,434 308.5,434 c -7.09195,0 -10.03659,7.55432 -4.93371,12.6572 2.07002,2.07002 3.18194,2.44741 5.75,1.95153 1.75104,-0.33811 3.97121,-1.56325 4.93371,-2.72253 z m -28.07874,-88.54119 c 2.33228,-2.11068 2.37361,-7.47204 0.0787,-10.21562 -1.21023,-1.44687 -3.13629,-2.51543 -6.25,-2.36079 -0.93839,0.0466 -4.86696,1.47716 -5.41554,4.47037 -0.54858,2.99321 0.17087,9.76103 5.56536,9.76103 2.49803,0 4.93187,-0.66894 6.02144,-1.65499 z M 412,349 c 4.42976,-4.42976 0.69663,-12 -5.91759,-12 -6.50498,0 -9.93171,6.37928 -6.06635,11.29328 2.70063,3.4333 8.89223,3.79843 11.98394,0.70672 z M 284.54545,286.54545 C 289.61726,281.47365 286.57954,273.8 279.5,273.8 c -2.8377,0 -4.41377,0.61024 -5.70982,2.21078 -6.06818,7.49389 3.96685,17.3231 10.75527,10.53467 z m 161.38303,0.99154 C 453.26845,283.74134 450.52959,274 442.12244,274 c -4.80291,0 -6.57699,1.95105 -6.57699,7.23307 0,2.96579 0.596,4.46305 2.33806,5.87369 2.8112,2.27637 4.31899,2.357 8.04497,0.43023 z"
       id="path55"
       sodipodi:nodetypes="sscssscsssscssssssssssssscssscssscssssssscccccccssssscssscccssscccsssssccsscccssssssssscccssssscsssssssssssssssssssssscsscssssscccssssssssssssssscccsssssscccccccssssscccccsssssssssssssssssssssssssssssssss"
       inkscape:label="brain" />
  </g>
</svg>
