<?xml version="1.0" encoding="UTF-8" standalone="no"?>
<!-- Created with Inkscape (http://www.inkscape.org/) -->

<svg
   xmlns:dc="http://purl.org/dc/elements/1.1/"
   xmlns:cc="http://creativecommons.org/ns#"
   xmlns:rdf="http://www.w3.org/1999/02/22-rdf-syntax-ns#"
   xmlns:svg="http://www.w3.org/2000/svg"
   xmlns="http://www.w3.org/2000/svg"
   xmlns:sodipodi="http://sodipodi.sourceforge.net/DTD/sodipodi-0.dtd"
   xmlns:inkscape="http://www.inkscape.org/namespaces/inkscape"
   version="1.1"
   id="svg2"
   xml:space="preserve"
   width="660"
   height="660"
   viewBox="0 0 660 660"
   sodipodi:docname="sra_bw.svg"
   inkscape:version="0.92.2 2405546, 2018-03-11"><metadata
     id="metadata8"><rdf:RDF><cc:Work
         rdf:about=""><dc:format>image/svg+xml</dc:format><dc:type
           rdf:resource="http://purl.org/dc/dcmitype/StillImage" /><dc:title></dc:title></cc:Work></rdf:RDF></metadata><defs
     id="defs6" /><sodipodi:namedview
     pagecolor="#ffffff"
     bordercolor="#666666"
     borderopacity="1"
     objecttolerance="10"
     gridtolerance="10"
     guidetolerance="10"
     inkscape:pageopacity="0"
     inkscape:pageshadow="2"
     inkscape:window-width="2560"
     inkscape:window-height="1388"
     id="namedview4"
     showgrid="false"
     inkscape:zoom="0.50568849"
     inkscape:cx="-958.74543"
     inkscape:cy="10.750861"
     inkscape:window-x="2560"
     inkscape:window-y="29"
     inkscape:window-maximized="1"
     inkscape:current-layer="g12" /><g
     id="g10"
     inkscape:groupmode="layer"
     inkscape:label="LogoSRA"
     transform="matrix(1.3333333,0,0,-1.3333333,0,660)"><g
       id="g12"><path
         d="M 0,0 H 495 V 495 H 0 Z"
         style="fill:#231f20;fill-opacity:1;fill-rule:nonzero;stroke:none"
         id="path14"
         inkscape:connector-curvature="0" /><path
         d="m 70.648,472.449 c 9.082,3.192 18.872,3.821 28.43,3.481 8.293,-0.61 17.223,-1.59 24.024,-6.821 2.699,-1.961 4.238,-4.961 5.097,-8.109 l -11.918,0.012 c -2.269,6.136 -9.301,8.047 -15.172,8.707 -7.808,0.621 -15.98,0.531 -23.339,-2.457 -2.872,-1.274 -6.43,-3.621 -5.739,-7.274 0.91,-3.258 4.547,-4.379 7.418,-5.34 13.629,-3.648 28.11,-3.179 41.52,-7.796 3.543,-1.332 7.492,-3.051 9.211,-6.684 2.109,-4.367 -0.09,-9.688 -3.692,-12.559 -5.777,-4.648 -13.199,-6.668 -20.429,-7.718 -11.957,-1.512 -24.411,-1.411 -35.969,2.32 -6.41,2.18 -13.449,6.379 -14.281,13.789 h 11.953 c 0.66,-2.988 2.449,-5.641 5.238,-7.012 7.879,-4.359 17.27,-4.258 26.02,-3.789 5.718,0.61 11.89,1.551 16.46,5.352 2.211,1.758 3.469,5.211 1.809,7.73 -1.508,1.949 -3.801,3.071 -6.027,3.989 -10.391,3.941 -21.614,4.398 -32.434,6.441 -5.617,1.25 -11.566,2.32 -16.308,5.801 -2.809,2.019 -4.442,5.879 -3.051,9.199 1.793,4.75 6.801,6.98 11.179,8.738 z"
         style="fill:#fdf8f8;fill-opacity:1;fill-rule:nonzero;stroke:none"
         id="path16"
         inkscape:connector-curvature="0" /><path
         d="M 25,475 H 38 V 419 H 25 Z"
         style="fill:#fdf8f8;fill-opacity:1;fill-rule:nonzero;stroke:none"
         id="path18"
         inkscape:connector-curvature="0" /><path
         d="m 149,475 h 68 v -6 h -55 v -19 h 55 v -6 h -55 v -19 h 55 v -6 h -68 z"
         style="fill:#fdf8f8;fill-opacity:1;fill-rule:nonzero;stroke:none"
         id="path20"
         inkscape:connector-curvature="0" /><path
         d="m 39.961,200.18 c 12.848,10.179 30.117,13.148 46.09,11.332 12.719,-1.223 25.379,-6.883 33.429,-17.032 7.571,-9.07 10.571,-20.941 11.61,-32.48 h -19.012 c -0.949,8.691 -3.957,17.602 -10.457,23.719 -6.519,6.16 -15.762,8.601 -24.562,8.293 -11.418,0.117 -23.188,-4.883 -29.75,-14.481 -7.289,-10.582 -7.848,-27.051 2,-36.25 5.652,-5.711 13.371,-8.562 20.82,-11.09 16.68,-5.711 35.051,-8.711 49.109,-20.113 -16.379,-0.027 -32.789,-0.258 -49.148,0.113 -13.61,3.778 -27.68,8.758 -37.981,18.84 -9.531,9.168 -12.257,23.379 -10.711,36.09 1.262,12.969 8.153,25.238 18.563,33.059 z"
         style="fill:#fdf8f8;fill-opacity:1;fill-rule:nonzero;stroke:none"
         id="path22"
         inkscape:connector-curvature="0" /><path
         d="m 162,209 h 60.988 c 11.672,-0.469 23.602,-1.148 34.602,-5.43 14.07,-5.261 26.031,-15.98 32.449,-29.601 9.891,-19.699 7.406,-45.309 -7.305,-62 H 245.27 c 9.328,2.812 18.23,8.761 23.582,16.992 5.269,8.199 6.16,18.519 4.347,27.918 -2.558,13.68 -12.828,25.82 -26.179,30.031 -6.411,2.149 -13.231,2.469 -19.93,2.852 C 212.07,190.238 182,190 182,190 v -78.031 h -20 z"
         style="fill:#fdf8f8;fill-opacity:1;fill-rule:nonzero;stroke:none"
         id="path24"
         inkscape:connector-curvature="0" /><path
         d="m 384.129,209 h 24.723 l 41.418,-97.031 h -21.723 l -32.945,78.89 -32.95,-78.89 -19.863,0.031 z"
         style="fill:#fdf8f8;fill-opacity:1;fill-rule:nonzero;stroke:none"
         id="path26"
         inkscape:connector-curvature="0" /><path
         d="m 162,108.637 h 20 V 84.594 h -20 z"
         style="fill:#fdf8f8;fill-opacity:1;fill-rule:nonzero;stroke:none"
         id="path28"
         inkscape:connector-curvature="0" /><path
         d="m 210.242,108.637 h 69.653 C 270.555,99.379 257.93,93.809 244.828,92.898 l 5.656,-8.312 h -24.019 z"
         style="fill:#fdf8f8;fill-opacity:1;fill-rule:nonzero;stroke:none"
         id="path30"
         inkscape:connector-curvature="0" /><path
         d="m 341.289,108.637 h 19.969 l -5.274,-12.625 h 79.231 l -5.274,12.625 h 21.75 L 461.965,84.57 331.02,84.582 Z"
         style="fill:#fdf8f8;fill-opacity:1;fill-rule:nonzero;stroke:none"
         id="path32"
         inkscape:connector-curvature="0" /><path
         d="m 113.496,79.469 h 21.508 c 0.223,-5.918 -0.508,-11.989 -1.27,-17.848 H 112.77 c 1.242,5.848 1.668,11.918 0.726,17.848 z"
         style="fill:#fdf8f8;fill-opacity:1;fill-rule:nonzero;stroke:none"
         id="path34"
         inkscape:connector-curvature="0" /><path
         d="m 162,79.469 h 20 V 61.621 h -20 z"
         style="fill:#fdf8f8;fill-opacity:1;fill-rule:nonzero;stroke:none"
         id="path36"
         inkscape:connector-curvature="0" /><path
         d="m 229.922,79.469 h 24.109 l 12.371,-17.848 h -24.437 z"
         style="fill:#fdf8f8;fill-opacity:1;fill-rule:nonzero;stroke:none"
         id="path38"
         inkscape:connector-curvature="0" /><path
         d="m 321.219,61.621 7.617,17.848 h 20.242 l -7.457,-17.848 z"
         style="fill:#fdf8f8;fill-opacity:1;fill-rule:nonzero;stroke:none"
         id="path40"
         inkscape:connector-curvature="0" /><path
         d="m 442.121,79.469 h 22.02 l 7.621,-17.848 h -22.184 z"
         style="fill:#fdf8f8;fill-opacity:1;fill-rule:nonzero;stroke:none"
         id="path42"
         inkscape:connector-curvature="0" /><path
         d="M 15.922,73 H 35.93 c 0.172,-3.82 0.754,-7.641 1.562,-11.379 H 17.031 c -0.527,3.75 -0.929,7.59 -1.109,11.379 z"
         style="fill:#fdf8f8;fill-opacity:1;fill-rule:nonzero;stroke:none"
         id="path44"
         inkscape:connector-curvature="0" /><path
         d="m 109.332,52.965 h 21.996 c -1.75,-4.629 -3.707,-9.535 -6.93,-13.356 H 95.461 c 5.918,2.969 10.539,7.657 13.871,13.356 z"
         style="fill:#fdf8f8;fill-opacity:1;fill-rule:nonzero;stroke:none"
         id="path46"
         inkscape:connector-curvature="0" /><path
         d="m 162,52.965 h 20 V 39.61 h -20 z"
         style="fill:#fdf8f8;fill-opacity:1;fill-rule:nonzero;stroke:none"
         id="path48"
         inkscape:connector-curvature="0" /><path
         d="m 247.801,52.965 h 24.597 l 9.258,-13.356 h -24.844 z"
         style="fill:#fdf8f8;fill-opacity:1;fill-rule:nonzero;stroke:none"
         id="path50"
         inkscape:connector-curvature="0" /><path
         d="m 317.523,52.965 h 20.485 L 332.43,39.609 h -20.61 z"
         style="fill:#fdf8f8;fill-opacity:1;fill-rule:nonzero;stroke:none"
         id="path52"
         inkscape:connector-curvature="0" /><path
         d="m 453.191,52.965 h 22.266 l 5.699,-13.356 H 458.77 Z"
         style="fill:#fdf8f8;fill-opacity:1;fill-rule:nonzero;stroke:none"
         id="path54"
         inkscape:connector-curvature="0" /><path
         d="m 37.898,26.496 h 74.11 C 100.758,17.656 86.059,14.699 72.02,15.012 59.91,15.48 47.309,18.504 37.898,26.496 Z"
         style="fill:#fdf8f8;fill-opacity:1;fill-rule:nonzero;stroke:none"
         id="path56"
         inkscape:connector-curvature="0" /><path
         d="m 162,26.496 h 20 v -7.473 h -20 z"
         style="fill:#fdf8f8;fill-opacity:1;fill-rule:nonzero;stroke:none"
         id="path58"
         inkscape:connector-curvature="0" /><path
         d="m 265.66,26.496 h 25.086 l 5.18,-7.473 h -25.223 z"
         style="fill:#fdf8f8;fill-opacity:1;fill-rule:nonzero;stroke:none"
         id="path60"
         inkscape:connector-curvature="0" /><path
         d="m 306.223,26.496 h 20.73 l -3.121,-7.473 h -20.797 z"
         style="fill:#fdf8f8;fill-opacity:1;fill-rule:nonzero;stroke:none"
         id="path62"
         inkscape:connector-curvature="0" /><path
         d="m 464.246,26.496 h 22.508 l 3.191,-7.473 h -22.578 z"
         style="fill:#fdf8f8;fill-opacity:1;fill-rule:nonzero;stroke:none"
         id="path64"
         inkscape:connector-curvature="0" /><path
         d="m 122.977,108.637 c 6.957,-5.817 10.527,-16.305 11.492,-24.043 h -22.621 c -6.211,12.281 -18.907,19.051 -31.118,24.043 z"
         style="fill:#ffffff;fill-opacity:1;fill-rule:nonzero;stroke:none"
         id="path66"
         inkscape:connector-curvature="0" /><path
         d="M 19.059,52.965 H 40.953 C 44.422,47.387 48.617,42.68 54.488,39.609 H 25.582 c -2.656,3.262 -5.012,9.114 -6.523,13.356 z"
         style="fill:#ffffff;fill-opacity:1;fill-rule:nonzero;stroke:none"
         id="path68"
         inkscape:connector-curvature="0" /></g></g></svg>