<?xml version="1.0" encoding="UTF-8" standalone="no"?>
<svg
   version="1.1"
   id="svg2"
   xml:space="preserve"
   width="3.7033062cm"
   height="1.3699943cm"
   viewBox="0 0 139.96748 51.779312"
   sodipodi:docname="tubs-logo.svg"
   inkscape:version="1.3.2 (091e20ef0f, 2023-11-25)"
   xmlns:inkscape="http://www.inkscape.org/namespaces/inkscape"
   xmlns:sodipodi="http://sodipodi.sourceforge.net/DTD/sodipodi-0.dtd"
   xmlns="http://www.w3.org/2000/svg"
   xmlns:svg="http://www.w3.org/2000/svg"
   xmlns:rdf="http://www.w3.org/1999/02/22-rdf-syntax-ns#"
   xmlns:cc="http://creativecommons.org/ns#"
   xmlns:dc="http://purl.org/dc/elements/1.1/"><metadata
     id="metadata8"><rdf:RDF><cc:Work
         rdf:about=""><dc:format>image/svg+xml</dc:format><dc:type
           rdf:resource="http://purl.org/dc/dcmitype/StillImage" /></cc:Work></rdf:RDF></metadata><defs
     id="defs6"><clipPath
       clipPathUnits="userSpaceOnUse"
       id="clipPath18-3"><path
         d="M 362.835,272.5 H 0 V 0.374 h 362.835 z"
         id="path16-6"
         inkscape:connector-curvature="0"
         style="clip-rule:evenodd" /></clipPath><clipPath
       clipPathUnits="userSpaceOnUse"
       id="clipPath18-36"><path
         d="M 362.835,272.5 H 0 V 0.374 h 362.835 z"
         id="path16-7"
         inkscape:connector-curvature="0"
         style="clip-rule:evenodd" /></clipPath><clipPath
       clipPathUnits="userSpaceOnUse"
       id="clipPath6700"><g
         id="g6704"
         transform="matrix(4.1666667,0,0,4.1666667,-506.25,-1135.4167)"><path
           d="M 484.335,272.5 H 121.5 V 0.374 h 362.835 z"
           id="path6702"
           inkscape:connector-curvature="0"
           style="clip-rule:evenodd" /></g></clipPath><clipPath
       clipPathUnits="userSpaceOnUse"
       id="clipPath6706"><g
         id="g6710"><path
           d="M 484.335,272.5 H 121.5 V 0.374 h 362.835 z"
           id="path6708"
           inkscape:connector-curvature="0"
           style="clip-rule:evenodd" /></g></clipPath><clipPath
       clipPathUnits="userSpaceOnUse"
       id="clipPath6712"><g
         id="g6716"><path
           d="M 484.335,272.5 H 121.5 V 0.374 h 362.835 z"
           id="path6714"
           inkscape:connector-curvature="0"
           style="clip-rule:evenodd" /></g></clipPath><clipPath
       id="clip-0"><path
         clip-rule="nonzero"
         d="M 0,0 H 362.83594 V 272.125 H 0 Z m 0,0"
         id="path794" /></clipPath><clipPath
       id="clip-1"><path
         clip-rule="nonzero"
         d="M 11,54.152344 H 351.94922 V 162 H 11 Z m 0,0"
         id="path797" /></clipPath><clipPath
       id="clip-5"><rect
         x="0"
         y="0"
         width="105"
         height="40"
         id="rect971" /></clipPath><clipPath
       id="clip-2"><path
         clip-rule="nonzero"
         d="M 0,0.0546875 H 104.88281 V 39.011719 H 0 Z m 0,0"
         id="path801" /></clipPath><clipPath
       id="clip-4"><rect
         x="0"
         y="0"
         width="105"
         height="40"
         id="rect807" /></clipPath><clipPath
       id="clip-3"><path
         clip-rule="nonzero"
         d="M 0,0.0546875 H 104.88281 V 39.011719 H 0 Z m 0,0"
         id="path804" /></clipPath><clipPath
       id="clipPath1660"><rect
         x="0"
         y="0"
         width="105"
         height="40"
         id="rect1658" /></clipPath><clipPath
       id="clipPath1664"><path
         clip-rule="nonzero"
         d="M 0,0.0546875 H 104.88281 V 39.011719 H 0 Z m 0,0"
         id="path1662" /></clipPath><clipPath
       id="clipPath1668"><rect
         x="0"
         y="0"
         width="105"
         height="40"
         id="rect1666" /></clipPath><clipPath
       id="clipPath1672"><path
         clip-rule="nonzero"
         d="M 0,0.0546875 H 104.88281 V 39.011719 H 0 Z m 0,0"
         id="path1670" /></clipPath><clipPath
       id="clipPath1676"><rect
         x="0"
         y="0"
         width="105"
         height="40"
         id="rect1674" /></clipPath><clipPath
       id="clipPath1680"><path
         clip-rule="nonzero"
         d="M 0,0.0546875 H 104.88281 V 39.011719 H 0 Z m 0,0"
         id="path1678" /></clipPath></defs><sodipodi:namedview
     pagecolor="#ffffff"
     bordercolor="#666666"
     borderopacity="1"
     objecttolerance="10"
     gridtolerance="10"
     guidetolerance="10"
     inkscape:pageopacity="0"
     inkscape:pageshadow="2"
     inkscape:window-width="2560"
     inkscape:window-height="1403"
     id="namedview4"
     showgrid="false"
     units="cm"
     inkscape:zoom="7.3487204"
     inkscape:cx="88.790969"
     inkscape:cy="21.024068"
     inkscape:window-x="0"
     inkscape:window-y="0"
     inkscape:window-maximized="1"
     inkscape:current-layer="layer3"
     inkscape:document-rotation="0"
     inkscape:showpageshadow="2"
     inkscape:pagecheckerboard="0"
     inkscape:deskcolor="#d1d1d1"
     inkscape:document-units="cm" /><g
     inkscape:groupmode="layer"
     id="layer2"
     inkscape:label="&lt;1-2&gt; Bar unten"
     style="display:inline" /><g
     inkscape:groupmode="layer"
     id="layer1"
     inkscape:label="&lt;1-2&gt; Farbakzent"
     style="display:none"
     sodipodi:insensitive="true"><path
       d="m 419.579,15.4921 h 55.685 v -3.0236 h -55.685 z"
       style="fill:#be1e3c;fill-opacity:1;fill-rule:nonzero;stroke:none"
       id="path4513"
       inkscape:connector-curvature="0"
       clip-path="url(#clipPath6706)"
       transform="matrix(1.3333333,0,0,-1.3333333,0,363.33317)" /></g><g
     inkscape:groupmode="layer"
     id="layer3"
     inkscape:label="&lt;1&gt; Logo Groß"
     style="display:inline"><rect
       style="display:inline;fill:#ffffff;stroke-width:0.198363;paint-order:markers fill stroke"
       id="rect783-7"
       width="23.227343"
       height="22.891085"
       x="9.6279039"
       y="5.628438" /><path
       id="Icon-5"
       fill="#999999"
       d="m 31.900654,17.04124 c 0,-0.53236 -0.329383,-0.99125 -0.796714,-1.17987 V 8.38972 c 0.467331,-0.18862 0.796714,-0.64778 0.796714,-1.17958 0,-0.70381 -0.571494,-1.27531 -1.272489,-1.27531 -0.700995,0 -1.272489,0.5715 -1.272489,1.27531 0,0.53208 0.329383,0.99124 0.796713,1.17958 v 7.47137 c -0.0056,0.003 -0.01408,0.006 -0.02252,0.008 l -5.284208,-5.28111 c 0.06757,-0.15203 0.104164,-0.32094 0.104164,-0.49858 0,-0.70381 -0.571494,-1.27502 -1.272489,-1.27502 -0.70381,0 -1.275304,0.57121 -1.275304,1.27502 0,0.70099 0.571494,1.27277 1.275304,1.27277 0.174545,0 0.34346,-0.0366 0.498298,-0.10417 l 5.281393,5.28421 c -0.0028,0.009 -0.0056,0.0172 -0.0084,0.0225 H 21.976976 C 21.788355,16.09738 21.32947,15.768 20.797389,15.768 c -0.70381,0 -1.275304,0.57178 -1.275304,1.27277 0,0.70043 0.571494,1.27249 1.275304,1.27249 0.532081,0 0.990966,-0.32938 1.179587,-0.79671 h 7.47165 c 0.0028,0.006 0.0056,0.0138 0.0084,0.0225 l -5.281392,5.28393 c -0.154838,-0.0676 -0.323753,-0.10389 -0.501113,-0.10389 -0.700995,0 -1.272489,0.57122 -1.272489,1.27503 0,0.70099 0.571494,1.27249 1.272489,1.27249 0.70381,0 1.275304,-0.57122 1.275304,-1.27249 0,-0.17765 -0.0366,-0.34628 -0.104164,-0.4983 l 5.284208,-5.28449 h 0.0028 c 0.0084,0.003 0.01408,0.006 0.01971,0.009 v 7.47136 c -0.467329,0.18863 -0.796712,0.64779 -0.796712,1.18269 0,0.70099 0.571493,1.27249 1.272488,1.27249 0.700995,0 1.27249,-0.57122 1.27249,-1.27249 0,-0.5349 -0.329384,-0.99406 -0.796714,-1.18269 v -7.47136 c 0.46733,-0.18863 0.796714,-0.64779 0.796714,-1.17931 z m -8.22332,-6.63017 c -0.180175,0 -0.323753,-0.14358 -0.323753,-0.32122 0,-0.18018 0.143578,-0.32347 0.323753,-0.32347 0.17736,0 0.320938,0.14357 0.320938,0.32347 2.87e-4,0.17764 -0.143578,0.32122 -0.320938,0.32122 z m -2.879992,6.95336 c -0.180175,0 -0.323752,-0.14639 -0.323752,-0.32319 0,-0.17764 0.143577,-0.32375 0.323752,-0.32375 0.177361,0 0.320938,0.14639 0.320938,0.32375 2.86e-4,0.1768 -0.143577,0.32319 -0.320938,0.32319 z m 2.877177,6.95111 c -0.17736,0 -0.320938,-0.14414 -0.320938,-0.32122 0,-0.18045 0.143578,-0.32375 0.320938,-0.32375 0.180175,0 0.323753,0.14358 0.323753,0.32375 2.87e-4,0.17736 -0.143578,0.32122 -0.323753,0.32122 z m 6.953646,2.87971 c -0.17736,0 -0.323753,-0.14357 -0.323753,-0.32065 0,-0.18046 0.146393,-0.32375 0.323753,-0.32375 0.17736,0 0.323752,0.14357 0.323752,0.32375 0,0.17708 -0.146392,0.32065 -0.323752,0.32065 z m 0,-9.83082 c -0.17736,0 -0.323753,-0.14639 -0.323753,-0.32319 0,-0.17764 0.146393,-0.32375 0.323753,-0.32375 0.17736,0 0.323752,0.14639 0.323752,0.32375 0,0.1768 -0.146392,0.32319 -0.323752,0.32319 z m 0,-9.83364 c -0.17736,0 -0.323753,-0.14357 -0.323753,-0.32093 0,-0.18018 0.146393,-0.32348 0.323753,-0.32348 0.17736,0 0.323752,0.14358 0.323752,0.32348 0,0.17736 -0.146392,0.32093 -0.323752,0.32093 z"
       style="display:inline;stroke-width:0.281524" /><g
       id="use1335"
       clip-path="url(#clip-5)"
       transform="matrix(1.3345209,0,0,1.329139,-8.2371087e-4,-0.07268729)"><g
         clip-path="url(#clip-2)"
         id="g2153"><g
           id="use2151"
           clip-path="url(#clip-4)"><g
             clip-path="url(#clip-3)"
             id="g2159"><path
               fill-rule="nonzero"
               fill="#be1e3c"
               fill-opacity="1"
               d="M -1.058594,38.851562 V -1.152344 H 105.94922 v 41.0625 H -1.058594 Z m 0,0"
               id="path2157" /></g><path
             fill-rule="evenodd"
             fill="#ffffff"
             fill-opacity="1"
             d="m 21.679688,17.5 c 0.230468,-0.136719 0.503906,-0.289062 0.664062,-0.421875 0.199219,-0.160156 0.464844,-0.515625 0.464844,-0.652344 -0.300782,-0.34375 -0.25,-0.683593 -0.265625,-1.007812 -0.0078,-0.07031 -0.09766,-0.148438 -0.222657,-0.08594 -0.347656,0.167969 -0.75,0.292969 -0.75,0.292969 0,0 -0.08594,0.503906 0.02344,0.621094 0.117188,0.121094 0.382812,0.08203 0.363281,0.261718 -0.01563,0.113282 -0.1875,0.3125 -0.296875,0.398438 -0.1875,0.148438 -0.410156,0.273438 -0.527344,0.328125 0,0 -0.339843,-0.121094 -0.808593,-0.07813 -0.179688,0.01953 -0.1875,0.167969 -0.1875,0.167969 0,0 -0.0625,0 -0.109375,0.02344 -0.05469,0.02344 -0.08984,0.07422 -0.08984,0.07422 0,0 0.03516,0.04687 0.09766,0.07031 0.04297,0.01562 0.101563,0.01562 0.101563,0.01562 0.01953,0.06641 0.08203,0.136719 0.175781,0.152344 0.226562,0.02734 0.378906,0.0078 0.503906,-0.02344 0.07031,-0.01953 0.121094,-0.0078 0.140625,0.04687 0.01563,0.05469 -0.03516,0.09766 -0.08203,0.128906 -0.175781,0.101562 -0.300781,0.179688 -0.371094,0.269531 -0.07422,0.08594 -0.109375,0.203125 -0.07422,0.292969 -0.01953,0.03125 -0.04297,0.0625 -0.05469,0.109375 -0.01563,0.05078 -0.01172,0.09766 0.0039,0.148437 0.03125,0 0.06641,-0.0039 0.101563,-0.01953 0.03516,-0.01172 0.07422,-0.03516 0.101562,-0.07813 0.09375,0.02734 0.214844,0.0078 0.304688,-0.121094 0.07031,-0.105468 0.15625,-0.296874 0.183593,-0.375 0.02344,-0.07422 0.05859,-0.09375 0.101563,-0.08203 0.03906,0.0078 0.07422,0.03516 0.05078,0.15625 -0.01953,0.08984 -0.01563,0.277344 0,0.359375 0.05859,0.304688 0.21875,0.285156 0.21875,0.285156 0,0 0.01563,0.05469 0.04687,0.09766 0.03516,0.04297 0.08203,0.07031 0.125,0.08203 0.01563,-0.03906 0.03516,-0.101562 0.02734,-0.152344 -0.0039,-0.05469 -0.02344,-0.08984 -0.02344,-0.08984 0.04297,-0.03125 0.09766,-0.09375 0.07031,-0.222656 -0.04297,-0.21875 -0.132812,-0.320312 -0.195312,-0.417968 -0.03906,-0.06641 -0.02344,-0.117188 0.01562,-0.140626 0.03906,-0.03125 0.09766,-0.02344 0.148438,0.05078 0.05859,0.08594 0.136719,0.199218 0.296875,0.277344 0.105469,0.05078 0.191406,0.03125 0.242187,-0.0078 0,0 0.04688,0.02344 0.08594,0.03906 0.03906,0.01172 0.08203,0.01953 0.128906,0.01172 -0.0078,-0.04297 -0.01953,-0.08594 -0.03516,-0.125 -0.01953,-0.03906 -0.03906,-0.0625 -0.07031,-0.08984 0.0078,-0.0625 -0.0039,-0.175781 -0.05469,-0.222656 C 22.074219,17.667969 21.679688,17.5 21.679688,17.5 Z m 0,0"
             id="path2161" /><path
             fill-rule="evenodd"
             fill="#ffffff"
             fill-opacity="1"
             d="m 19.886719,10.261719 c 0,0 0.261719,0.34375 0.40625,0.238281 0.121093,-0.08203 0.05469,-0.222656 -0.03516,-0.316406 -0.121093,-0.128906 -0.25,-0.03516 -0.371093,0.07813 z m 5.132812,7.984375 c -0.04687,0.0078 -0.09375,0 -0.128906,-0.01172 -0.04297,-0.01563 -0.08594,-0.04297 -0.08594,-0.04297 -0.05078,0.04297 -0.136719,0.0625 -0.246094,0.01172 -0.15625,-0.07813 -0.238282,-0.191406 -0.296875,-0.277344 -0.05078,-0.07031 -0.109375,-0.08203 -0.148438,-0.05469 -0.03906,0.03125 -0.05078,0.08203 -0.01172,0.144531 0.05859,0.09766 0.148438,0.199219 0.191407,0.421875 0.02734,0.125 -0.02734,0.191406 -0.06641,0.222656 0,0 0.01172,0.03516 0.01953,0.08203 0.0078,0.05469 -0.0078,0.117187 -0.02734,0.15625 -0.03906,-0.0078 -0.08984,-0.03906 -0.121094,-0.08203 -0.03516,-0.04297 -0.04687,-0.09766 -0.04687,-0.09766 0,0 -0.164062,0.01953 -0.222656,-0.28125 -0.01172,-0.08594 -0.01563,-0.273438 0,-0.363281 0.02344,-0.121094 -0.0078,-0.148438 -0.04687,-0.15625 -0.04687,-0.01172 -0.07813,0.0078 -0.105469,0.08203 -0.02344,0.07813 -0.113281,0.269531 -0.183593,0.375 -0.08984,0.132812 -0.210938,0.152344 -0.304688,0.121094 -0.02734,0.04687 -0.0625,0.06641 -0.101562,0.07813 -0.03906,0.01563 -0.07031,0.01953 -0.101563,0.01953 -0.01563,-0.05078 -0.01953,-0.09766 -0.0039,-0.144531 0.01172,-0.04687 0.03516,-0.08203 0.05469,-0.109375 -0.03516,-0.09375 0,-0.210938 0.07422,-0.296875 0.07031,-0.08984 0.195313,-0.167969 0.375,-0.269531 0.04297,-0.02734 0.09375,-0.07422 0.07813,-0.128907 -0.01953,-0.05469 -0.07031,-0.06641 -0.140625,-0.04687 -0.125,0.03125 -0.277344,0.05078 -0.503906,0.01953 -0.09375,-0.01172 -0.15625,-0.08203 -0.175781,-0.152344 0,0 -0.05859,0.0039 -0.101563,-0.01172 -0.05859,-0.02734 -0.09766,-0.07031 -0.09766,-0.07031 0,0 0.03516,-0.05469 0.08984,-0.07422 0.04297,-0.02344 0.105469,-0.02344 0.105469,-0.02344 0,0 0.0078,-0.136718 0.191407,-0.164062 0.351562,-0.04687 0.6875,0.07031 0.796874,0.101562 0.08984,-0.203125 0.207032,-0.742187 0.15625,-1.050781 -0.05859,-0.320313 -0.480468,-0.230469 -0.628906,-0.53125 -0.183594,-0.375 -0.144531,-0.9375 -0.398437,-0.988281 -0.421875,-0.07813 -0.08203,0.25 -1.566407,0.613281 -0.453124,0.109375 -0.804687,0.05078 -1.058593,0.308594 -0.101563,0.105469 -0.273438,0.582031 -0.515625,0.890625 -0.425782,0.546875 -0.746094,0.703125 -0.746094,0.703125 0.0625,0.02734 0.296875,0.132812 0.425781,0.289062 0.04687,0.05469 0.0625,0.160157 0.05469,0.222657 0.03125,0.02734 0.05078,0.05078 0.06641,0.09375 0.01953,0.03906 0.03125,0.08203 0.03906,0.125 -0.04688,0.0039 -0.09375,0 -0.128907,-0.01172 -0.03906,-0.01563 -0.08594,-0.04297 -0.08594,-0.04297 -0.05078,0.04297 -0.136719,0.05859 -0.242188,0.0078 -0.160156,-0.07422 -0.238281,-0.191406 -0.300781,-0.273437 -0.05078,-0.07422 -0.109375,-0.08203 -0.148437,-0.05469 -0.03906,0.02734 -0.05469,0.07812 -0.01172,0.140624 0.0625,0.09766 0.148437,0.199219 0.195312,0.421876 0.02734,0.128906 -0.03125,0.191406 -0.07031,0.222656 0,0 0.01563,0.03516 0.01953,0.08594 0.0078,0.05078 -0.0078,0.113281 -0.02344,0.15625 -0.04297,-0.01172 -0.08984,-0.04297 -0.125,-0.08203 -0.03125,-0.04297 -0.04687,-0.09766 -0.04687,-0.09766 0,0 -0.164063,0.01953 -0.21875,-0.285156 -0.01563,-0.08594 -0.01953,-0.273438 -0.0039,-0.363282 0.02344,-0.121094 -0.0078,-0.148437 -0.05078,-0.15625 -0.04297,-0.0078 -0.07422,0.0078 -0.09766,0.08594 -0.02734,0.07422 -0.113282,0.269531 -0.1875,0.375 -0.08984,0.128906 -0.210938,0.148437 -0.304688,0.121094 -0.02734,0.04297 -0.0625,0.0625 -0.101562,0.07812 -0.03516,0.01563 -0.07031,0.01953 -0.101563,0.01953 -0.01563,-0.05469 -0.01953,-0.101563 -0.0078,-0.148438 0.01563,-0.04687 0.03906,-0.08203 0.05859,-0.109375 -0.03516,-0.08984 0,-0.207031 0.07422,-0.296875 0.07422,-0.08984 0.195313,-0.164062 0.375,-0.269531 0.04687,-0.02734 0.09375,-0.07031 0.07813,-0.128906 -0.01953,-0.05469 -0.06641,-0.0625 -0.136718,-0.04687 -0.125,0.03125 -0.277344,0.05469 -0.507813,0.02344 -0.09375,-0.01563 -0.15625,-0.08594 -0.175781,-0.152343 0,0 -0.05859,0.0039 -0.09766,-0.01563 -0.0625,-0.02344 -0.101563,-0.07031 -0.101563,-0.07031 0,0 0.03516,-0.05078 0.08984,-0.07422 0.04687,-0.02344 0.109375,-0.02344 0.109375,-0.02344 0,0 0.03516,-0.144532 0.207031,-0.167969 0.464844,-0.0625 0.867187,0.105469 0.867187,0.105469 0,0 0.5625,-0.378906 0.738282,-0.632813 0.140625,-0.203125 0.253906,-0.445312 0.292968,-0.660156 0.05078,-0.269531 -0.03125,-0.296875 -0.109374,-0.359375 C 19.15625,15.132812 18.976562,15.015625 18.75,14.75 c -0.128906,-0.148438 -0.300781,-0.527344 -0.304688,-0.894531 -0.179687,-0.15625 -0.417968,-0.433594 -0.582031,-0.652344 0.0039,0.101563 0.01172,0.292969 -0.07031,0.507813 -0.02344,0.06641 -0.121094,0.121093 -0.179688,0.136718 -0.01563,0.03906 -0.03125,0.06641 -0.05859,0.09766 -0.03125,0.03516 -0.0625,0.05859 -0.101563,0.08594 -0.02344,-0.04297 -0.03516,-0.08203 -0.03906,-0.125 -0.0039,-0.04297 0.0039,-0.09375 0.0039,-0.09375 -0.05859,-0.03125 -0.109375,-0.101562 -0.101563,-0.222656 0.0078,-0.175782 0.08203,-0.292969 0.136719,-0.382813 0.04687,-0.07422 0.03125,-0.128906 -0.01172,-0.15625 -0.03906,-0.02734 -0.08984,-0.01563 -0.132812,0.04297 -0.06641,0.09766 -0.125,0.214844 -0.3125,0.34375 -0.109375,0.07422 -0.1875,0.05078 -0.230469,0.02344 0,0 -0.02734,0.02734 -0.07422,0.05469 -0.04297,0.02344 -0.105468,0.03516 -0.152344,0.03516 -0.0039,-0.04297 0.0039,-0.09766 0.02734,-0.144531 0.02734,-0.05078 0.07031,-0.08203 0.07031,-0.08203 0,0 -0.07813,-0.144531 0.175781,-0.3125 0.07422,-0.04687 0.246094,-0.125 0.332031,-0.144531 0.125,-0.02734 0.136719,-0.06641 0.128907,-0.105469 -0.01172,-0.04687 -0.03906,-0.07031 -0.121094,-0.0625 -0.07813,0.0078 -0.289063,0 -0.417969,-0.02344 -0.152344,-0.03125 -0.21875,-0.136719 -0.226563,-0.230469 -0.05078,-0.01172 -0.08594,-0.03516 -0.109374,-0.06641 -0.03125,-0.02734 -0.05078,-0.05469 -0.0625,-0.08594 0.04297,-0.03516 0.08594,-0.05469 0.132812,-0.0625 0.05078,-0.0078 0.08984,0.0039 0.125,0.01172 0.07031,-0.07031 0.191406,-0.08203 0.300781,-0.05078 0.109375,0.03125 0.230469,0.117188 0.394531,0.238282 0.04297,0.03125 0.105469,0.0625 0.148438,0.02344 0.04297,-0.03906 0.03516,-0.08594 -0.0078,-0.144531 -0.07813,-0.105469 -0.160157,-0.234375 -0.21875,-0.457032 -0.02734,-0.09375 0.01562,-0.179687 0.07031,-0.21875 0,0 -0.02734,-0.05469 -0.02734,-0.09766 0,-0.07031 0.02734,-0.121094 0.02734,-0.121094 0,0 0.0625,0.01172 0.105469,0.05078 0.03516,0.03516 0.0625,0.09375 0.0625,0.09375 0,0 0.175781,-0.03906 0.261719,0.121094 0.167968,0.3125 0.136718,0.5625 0.121093,0.660156 0.128907,0.242187 0.257813,0.355468 0.410157,0.503906 0.08984,0.08203 0.234374,0.167969 0.402343,0.25 0.109375,-0.171875 0.261719,-0.335938 0.453125,-0.523438 0.226563,-0.222656 0.386719,-0.320312 0.558594,-0.476562 0.199219,-0.183594 0.300781,-0.371094 0.300781,-0.371094 0,0 -0.34375,-0.105468 -0.707031,0.0078 -0.04297,-0.06641 -0.117188,-0.207031 -0.05078,-0.296875 0.273437,-0.113282 0.671875,-0.09375 0.855469,-0.03906 0.05859,-0.09375 0.183593,-0.324219 0.03906,-0.453125 -0.191406,-0.160156 -0.660156,-0.195312 -1,-0.01953 -0.08594,-0.04297 -0.203125,-0.207031 -0.121094,-0.386719 -0.1875,-0.199218 -0.06641,-0.265625 0,-0.292968 0.214844,-0.08984 0.386719,-0.05859 0.582032,-0.06641 0.0039,-0.08203 0.0039,-0.125 0.03906,-0.21875 0.09375,-0.222656 0.679688,-0.152343 0.898438,-0.152343 0.152343,-0.00391 0.28125,-0.03125 0.410156,-0.054688 0.175781,-0.039062 0.183594,0.136719 0.136718,0.207031 l -0.113281,0.15625 c 0.175781,0.07031 0.355469,0.175781 0.425781,0.367188 0.04688,0.148437 0.0078,0.3125 0.04688,0.445312 0.04297,0.152344 0.121093,0.203125 0.191406,0.328125 0.105468,0.195313 0.125,0.34375 0.148437,0.550782 0.02344,0.175781 -0.152343,0.179687 -0.21875,0.128906 -0.03906,-0.03125 -0.144531,-0.167969 -0.257812,-0.152344 -0.07422,0.0078 -0.132813,0.113281 -0.160157,0.1875 0,0 0.164063,0.296875 0.21875,0.550781 0.04688,0.214844 0.02734,0.394531 0.0039,0.570313 -0.02344,0.179687 -0.203125,0.132812 -0.25,0.0625 -0.03516,-0.05469 -0.08984,-0.195313 -0.207031,-0.210938 -0.125,-0.01563 -0.234376,0.117188 -0.25,0.253906 -0.01172,0.148438 0,0.28125 0.08594,0.398438 0.359375,0.523438 1.996094,-0.472656 2.707031,0.09375 0.04687,-0.191406 0.06641,-0.394531 0.02734,-0.566406 -0.08594,-0.378906 -0.742188,-0.5625 -1.050781,-0.992188 V 12.125 c -0.05859,-0.08594 -0.109375,-0.183594 -0.132813,-0.292969 -0.121094,-0.503906 0.21875,-1.207031 0.390625,-1.523437 -0.132812,-0.214844 -0.07031,-0.640625 0.0078,-0.828125 0.08984,-0.222657 0.164062,-0.335938 0.273437,-0.488281 0.109375,-0.152344 0.382813,-0.132813 0.382813,-0.042969 0,0 -0.316406,0.367187 -0.199219,0.496093 0.109375,0.113282 0.6875,-0.285156 0.269531,0.605469 -0.152344,0.316407 -0.355468,0.414063 -0.519531,0.390625 -0.171875,0.34375 -0.386719,0.882813 -0.285156,1.289063 0.04297,0.164062 0.144531,0.285156 0.277343,0.394531 0.332032,0.277344 0.835938,0.457031 0.941407,0.953125 0.05859,0.296875 -0.02734,0.6875 -0.113281,0.96875 0.125,0.289063 0.132812,0.601563 0.207031,0.875 0.03906,0.105469 0.117187,0.273437 0.242187,0.261719 0.117188,-0.01172 0.175782,-0.132813 0.21875,-0.199219 0.05859,-0.08594 0.21875,-0.101563 0.246094,0.07422 0.02734,0.175781 0.08984,0.347656 0.08984,0.539062 0,0.765625 -0.246094,1.367188 -0.433594,1.835938 0,0 0.21875,0.05859 0.519531,0.261718 0.210938,0.148438 0.152344,0.273438 0.144531,0.335938 0.02734,0.02344 0.05078,0.05078 0.06641,0.08984 0.01953,0.03906 0.03125,0.08203 0.03906,0.125 z m 0,0"
             id="path2163" /><path
             fill-rule="evenodd"
             fill="#ffffff"
             fill-opacity="1"
             d="m 18.246094,11.308594 c 0.425781,0.179687 0.957031,-0.09766 0.957031,-0.160156 -0.65625,0.09766 -0.898437,-0.08594 -0.742187,-0.410157 -0.472657,0.05469 -0.429688,0.476563 -0.214844,0.570313 z m 0,0"
             id="path2165" /><path
             fill-rule="evenodd"
             fill="#ffffff"
             fill-opacity="1"
             d="m 21.679688,27.546875 c 0.230468,-0.132813 0.503906,-0.289063 0.664062,-0.417969 0.199219,-0.164062 0.464844,-0.515625 0.464844,-0.652344 -0.300782,-0.34375 -0.25,-0.683593 -0.265625,-1.007812 -0.0078,-0.07031 -0.09766,-0.148438 -0.222657,-0.08594 -0.347656,0.167969 -0.75,0.292969 -0.75,0.292969 0,0 -0.08594,0.5 0.02344,0.617188 0.117188,0.125 0.382812,0.08203 0.363281,0.261719 -0.01563,0.117187 -0.1875,0.3125 -0.296875,0.402343 -0.1875,0.148438 -0.410156,0.273438 -0.527344,0.328125 0,0 -0.339843,-0.121094 -0.808593,-0.07813 -0.179688,0.01563 -0.1875,0.164063 -0.1875,0.164063 0,0 -0.0625,0.0039 -0.109375,0.02344 -0.05469,0.02344 -0.08984,0.07422 -0.08984,0.07422 0,0 0.03516,0.05078 0.09766,0.07422 0.04297,0.01953 0.101563,0.01172 0.101563,0.01172 0.01953,0.06641 0.08203,0.140624 0.175781,0.152343 0.226562,0.03516 0.378906,0.0078 0.503906,-0.02344 0.07031,-0.01563 0.121094,-0.0039 0.140625,0.05078 0.01563,0.05469 -0.03516,0.09766 -0.08203,0.125 -0.175781,0.105469 -0.300781,0.183594 -0.371094,0.269531 -0.07422,0.08984 -0.109375,0.207032 -0.07422,0.300782 -0.01563,0.02344 -0.04297,0.05859 -0.05469,0.109374 -0.01563,0.04297 -0.01172,0.08984 0.0039,0.144532 0.03516,0 0.06641,-0.0078 0.101563,-0.01953 0.03516,-0.01562 0.07422,-0.03516 0.101562,-0.07812 0.09375,0.03125 0.214844,0.0078 0.304688,-0.121094 0.07031,-0.105469 0.15625,-0.296875 0.183593,-0.375 0.02344,-0.07813 0.05859,-0.09375 0.101563,-0.08203 0.03906,0.0039 0.07422,0.03125 0.05078,0.15625 -0.01953,0.08984 -0.01563,0.273438 0,0.359376 0.05859,0.304687 0.21875,0.285156 0.21875,0.285156 0,0 0.01563,0.05469 0.04687,0.09766 0.03516,0.04297 0.08203,0.07031 0.125,0.08203 0.01563,-0.04297 0.03516,-0.105469 0.02734,-0.15625 -0.0039,-0.05078 -0.02344,-0.08594 -0.02344,-0.08594 0.04297,-0.03125 0.09766,-0.09375 0.07031,-0.222656 -0.04297,-0.222657 -0.132812,-0.324219 -0.195312,-0.417969 -0.03906,-0.06641 -0.02344,-0.117188 0.01562,-0.144531 0.03906,-0.02734 0.09766,-0.01953 0.148438,0.05469 0.05859,0.08203 0.136719,0.199219 0.296875,0.273437 0.105469,0.05078 0.191406,0.03516 0.242187,-0.0078 0,0 0.04688,0.02734 0.08594,0.04297 0.03906,0.01172 0.08203,0.01563 0.128906,0.01172 -0.0078,-0.04297 -0.01953,-0.08594 -0.03516,-0.128907 -0.01953,-0.03906 -0.03906,-0.0625 -0.07031,-0.08984 0.0078,-0.05859 -0.0039,-0.171876 -0.05469,-0.21875 -0.175781,-0.179688 -0.570312,-0.351563 -0.570312,-0.351563 z m 0,0"
             id="path2167" /><path
             fill-rule="evenodd"
             fill="#ffffff"
             fill-opacity="1"
             d="m 20.292969,20.550781 c -0.144531,0.105469 -0.40625,-0.242187 -0.40625,-0.242187 0.121093,-0.109375 0.25,-0.203125 0.371093,-0.07422 0.08984,0.09375 0.15625,0.230469 0.03516,0.316406 z m 4.6875,7.617188 c -0.01563,-0.03906 -0.03906,-0.0625 -0.06641,-0.08984 0.0078,-0.05859 0.06641,-0.1875 -0.144531,-0.332031 C 24.46875,27.539062 24.25,27.484375 24.25,27.484375 c 0.1875,-0.46875 0.433594,-1.070313 0.433594,-1.835937 0,-0.191407 -0.0625,-0.367188 -0.08984,-0.542969 -0.02734,-0.175781 -0.1875,-0.160157 -0.246094,-0.07031 -0.04297,0.06641 -0.101562,0.183594 -0.21875,0.195313 -0.125,0.01563 -0.203125,-0.152344 -0.242187,-0.261719 -0.05859,-0.210938 -0.08203,-0.445312 -0.144531,-0.679688 0.222656,-0.04687 0.402343,-0.164062 0.558593,-0.296874 0.289063,-0.246094 0.265625,-0.628907 0.109375,-0.929688 -0.125,-0.246094 -0.285156,-0.339844 -1.054687,-0.625 -0.308594,-0.117188 -0.527344,-0.25 -0.6875,-0.421875 -0.05859,-0.07031 -0.117188,-0.15625 -0.15625,-0.238281 -0.08203,-0.164063 -0.01953,-0.347656 0.113281,-0.472656 0.03125,-0.02734 0.09766,-0.07813 0.175781,-0.128907 0.238281,0.171875 0.882813,0.08203 1.132813,-0.0078 0.289062,-0.101563 0.511718,-0.234375 0.714844,-0.351563 0.207031,-0.117187 0.171874,-0.359375 0.0625,-0.359375 0,0 -0.753907,0.320313 -0.882813,0.191407 -0.117187,-0.113282 0.148437,-0.519532 -0.652344,-0.164063 -0.285156,0.125 -0.5,0.300781 -0.484375,0.46875 -0.28125,0.148437 -0.546875,0.394531 -0.507812,0.722656 0.01172,0.109375 0.0625,0.246094 0.136718,0.359375 h 0.0039 c 0.21875,0.308594 0.65625,0.542969 1.128906,0.699219 0.457031,0.148437 0.632813,0.234375 0.710937,0.535156 0.105469,0.394531 -0.109374,0.636719 -0.546874,0.703125 -0.05078,-0.09375 -0.113282,-0.175781 -0.167969,-0.234375 -0.613281,-0.636719 -2.386719,0.429688 -2.746094,-0.09766 -0.08594,-0.117187 -0.09766,-0.246094 -0.08594,-0.394531 0.01562,-0.136719 0.125,-0.273438 0.25,-0.253906 0.117187,0.01562 0.171874,0.152343 0.207031,0.210937 0.04687,0.06641 0.226562,0.113281 0.25,-0.0625 0.02344,-0.175781 0.04297,-0.351563 -0.0039,-0.570313 -0.05469,-0.257812 -0.21875,-0.550781 -0.21875,-0.550781 0.02734,-0.07813 0.08594,-0.183593 0.160157,-0.191406 0.113281,-0.01172 0.21875,0.125 0.257812,0.152344 0.06641,0.05469 0.242188,0.05078 0.21875,-0.125 -0.02344,-0.207031 -0.04297,-0.359375 -0.148437,-0.554688 -0.07031,-0.121093 -0.148438,-0.171875 -0.191406,-0.324219 -0.03906,-0.132812 0,-0.300781 -0.04688,-0.445312 -0.07031,-0.191406 -0.25,-0.296875 -0.425781,-0.371094 l 0.113281,-0.152344 c 0.04688,-0.07031 0.03906,-0.246093 -0.136718,-0.207031 -0.128906,0.02344 -0.257813,0.05078 -0.410156,0.05078 -0.21875,0.0039 -0.804688,-0.07031 -0.898438,0.15625 -0.03516,0.09375 -0.03516,0.136719 -0.03906,0.21875 -0.195313,0.0078 -0.367188,-0.02734 -0.582032,0.06641 -0.06641,0.02734 -0.1875,0.09375 0,0.292969 -0.08203,0.179687 0.03516,0.339843 0.121094,0.386718 0.339844,-0.179687 0.808594,-0.140625 1,0.01953 0.144531,0.125 0.01953,0.359374 -0.03906,0.453124 -0.183594,-0.05469 -0.582032,-0.07422 -0.855469,0.03516 -0.06641,0.09375 0.0078,0.234375 0.05078,0.296875 0.363281,-0.109375 0.707031,-0.0039 0.707031,-0.0039 0,0 -0.101562,0.1875 -0.300781,0.375 -0.171875,0.152343 -0.332031,0.25 -0.558594,0.46875 -0.21875,0.21875 -0.386718,0.398437 -0.496094,0.601562 -0.277343,-0.06641 -0.542968,-0.148438 -0.6875,-0.246094 -0.175781,-0.121094 -0.324218,-0.210937 -0.488281,-0.425781 0,-0.101563 -0.01563,-0.351563 -0.230469,-0.632813 -0.113281,-0.144531 -0.277343,-0.07812 -0.277343,-0.07812 0,0 -0.03516,-0.05078 -0.07813,-0.07813 -0.04687,-0.03125 -0.113282,-0.03516 -0.113282,-0.03516 0,0 -0.01953,0.05469 -0.0039,0.121094 0.0039,0.04297 0.04297,0.09375 0.04297,0.09375 -0.05078,0.05078 -0.07813,0.144531 -0.03906,0.226562 0.09766,0.210938 0.203126,0.328126 0.296876,0.417969 0.05078,0.04687 0.07031,0.09375 0.03125,0.140625 -0.03516,0.04687 -0.101563,0.02344 -0.148438,0.0039 -0.183594,-0.09375 -0.316406,-0.15625 -0.429688,-0.171874 -0.113281,-0.01172 -0.234374,0.01562 -0.289062,0.101562 -0.03516,0 -0.07813,-0.0039 -0.125,0.0078 -0.04297,0.01563 -0.08203,0.04297 -0.117188,0.08203 0.01563,0.03125 0.03906,0.05469 0.07031,0.07813 0.03125,0.02344 0.07031,0.04687 0.121094,0.04687 0.02344,0.08984 0.105469,0.183594 0.261719,0.1875 0.132812,0.0039 0.339843,-0.02734 0.417968,-0.04687 0.07813,-0.01953 0.109375,0 0.128906,0.04297 0.01172,0.03516 0.0078,0.07812 -0.109374,0.125 -0.08203,0.03516 -0.238282,0.136718 -0.300782,0.195312 -0.226562,0.210938 -0.121094,0.339844 -0.121094,0.339844 0,0 -0.03906,0.03906 -0.05859,0.09375 -0.01563,0.05078 -0.01563,0.105468 -0.0039,0.144531 0.04688,-0.0039 0.105469,-0.02734 0.144532,-0.05859 0.03906,-0.03125 0.0625,-0.06641 0.0625,-0.06641 0.04687,0.01953 0.128906,0.03125 0.226562,-0.05859 0.160156,-0.160156 0.199219,-0.289062 0.25,-0.394531 0.03125,-0.06641 0.08203,-0.08203 0.125,-0.0625 0.04687,0.01563 0.07031,0.07031 0.03516,0.152344 -0.03906,0.09375 -0.08984,0.226562 -0.07031,0.398437 0.01563,0.117188 0.07422,0.179688 0.136719,0.203125 0,0 0,0.05078 0.01172,0.08984 0.01172,0.04297 0.03125,0.08203 0.05859,0.121094 0.03516,-0.03125 0.0625,-0.06641 0.08594,-0.101563 0.02344,-0.03516 0.03516,-0.06641 0.04297,-0.105469 0.05469,-0.02734 0.144531,-0.09766 0.15625,-0.167968 0.04297,-0.222656 0.0039,-0.414063 -0.01953,-0.511719 0.253906,0.238281 0.621094,0.539063 0.824219,0.617187 0.0078,0.0039 0.01953,0.01172 0.02734,0.01563 0.03516,0.328124 0.183593,0.640624 0.300781,0.777343 0.226562,0.265625 0.40625,0.382813 0.523438,0.464844 0.07812,0.06641 0.160156,0.09375 0.109374,0.359375 -0.03906,0.21875 -0.152343,0.460938 -0.292968,0.660156 -0.175782,0.257813 -0.738282,0.632813 -0.738282,0.632813 0,0 -0.402343,-0.164063 -0.867187,-0.101563 -0.171875,0.02344 -0.207031,0.167969 -0.207031,0.167969 0,0 -0.0625,0.0039 -0.109375,0.01953 -0.05469,0.02344 -0.08984,0.07422 -0.08984,0.07422 0,0 0.03906,0.05078 0.101563,0.07422 0.03906,0.01953 0.09766,0.01563 0.09766,0.01563 0.01953,0.06641 0.08203,0.136719 0.175781,0.152343 0.230469,0.03125 0.382813,0.0039 0.507813,-0.02344 0.07031,-0.01563 0.117187,-0.0078 0.136718,0.04687 0.01563,0.05469 -0.03125,0.09766 -0.07813,0.125 -0.179687,0.105469 -0.300781,0.183594 -0.375,0.273438 -0.07422,0.08594 -0.109375,0.203124 -0.07422,0.296874 -0.01953,0.02734 -0.04297,0.0625 -0.05859,0.109376 -0.01172,0.04687 -0.0078,0.09766 0.0078,0.144531 0.03125,0.0039 0.06641,-0.0039 0.101563,-0.01563 0.03906,-0.01563 0.07422,-0.03906 0.101562,-0.08203 0.09375,0.03125 0.214844,0.01172 0.304688,-0.117187 0.07422,-0.109375 0.160156,-0.300781 0.1875,-0.375 0.02344,-0.07813 0.05469,-0.09375 0.09766,-0.08594 0.04297,0.0078 0.07422,0.03516 0.05078,0.160156 -0.01563,0.08594 -0.01172,0.273437 0.0039,0.359375 0.05469,0.300781 0.21875,0.28125 0.21875,0.28125 0,0 0.01562,0.05469 0.04687,0.09766 0.03516,0.04297 0.08203,0.07422 0.125,0.08203 0.01563,-0.03906 0.03125,-0.101562 0.02344,-0.152344 -0.0039,-0.05078 -0.01953,-0.08594 -0.01953,-0.08594 0.03906,-0.03125 0.09766,-0.09766 0.07031,-0.222656 -0.04687,-0.222657 -0.132812,-0.324219 -0.195312,-0.421875 -0.04297,-0.06641 -0.02734,-0.113282 0.01172,-0.144532 0.03906,-0.02734 0.09766,-0.01953 0.148437,0.05469 0.0625,0.08594 0.140625,0.199219 0.300781,0.277344 0.105469,0.05078 0.191406,0.03516 0.242188,-0.0078 0,0 0.04687,0.02734 0.08594,0.03906 0.03516,0.01172 0.08203,0.01563 0.128907,0.01172 -0.0078,-0.04297 -0.01953,-0.08594 -0.03906,-0.125 -0.01563,-0.03906 -0.03516,-0.0625 -0.06641,-0.08984 0.0078,-0.05859 -0.0078,-0.167969 -0.05469,-0.222657 -0.128906,-0.15625 -0.363281,-0.261718 -0.425781,-0.289062 0,0 0.320312,-0.15625 0.746094,-0.703125 0.242187,-0.3125 0.414062,-0.789063 0.515625,-0.890625 0.253906,-0.261719 0.605469,-0.195312 1.058593,-0.308594 1.484376,-0.363281 1.144532,-0.695312 1.566407,-0.613281 0.253906,0.04687 0.214843,0.617187 0.398437,0.988281 0.148438,0.296875 0.570313,0.210938 0.628906,0.53125 0.05078,0.308594 -0.06641,0.84375 -0.15625,1.050782 -0.109374,-0.03125 -0.445312,-0.148438 -0.796874,-0.101563 -0.183594,0.02344 -0.191407,0.160156 -0.191407,0.160156 0,0 -0.0625,0.0039 -0.105469,0.02344 -0.05469,0.02344 -0.08984,0.07422 -0.08984,0.07422 0,0 0.03906,0.04687 0.09766,0.07422 0.04297,0.01563 0.101563,0.01172 0.101563,0.01172 0.01953,0.06641 0.08203,0.140625 0.175781,0.152344 0.226562,0.03516 0.378906,0.0078 0.503906,-0.02344 0.07031,-0.01563 0.121094,-0.0078 0.140625,0.05078 0.01563,0.05469 -0.03516,0.09766 -0.07813,0.125 -0.179687,0.105469 -0.304687,0.183594 -0.375,0.269532 -0.07422,0.08984 -0.113281,0.207031 -0.07422,0.296875 -0.01953,0.03125 -0.04297,0.0625 -0.05469,0.109375 -0.01563,0.04687 -0.01172,0.09766 0.0039,0.148437 0.03125,0 0.0625,-0.0039 0.101563,-0.01953 0.03906,-0.01563 0.07422,-0.03516 0.101562,-0.07813 0.09375,0.03125 0.214844,0.0078 0.304688,-0.117187 0.07031,-0.109376 0.160156,-0.300782 0.183593,-0.378907 0.02734,-0.07813 0.05859,-0.09375 0.105469,-0.08594 0.03906,0.01172 0.07031,0.03906 0.04687,0.160156 -0.01563,0.08984 -0.01172,0.277344 0,0.359375 0.05859,0.304687 0.222656,0.285156 0.222656,0.285156 0,0 0.01172,0.05469 0.04687,0.09766 0.03125,0.04297 0.08203,0.07031 0.121094,0.08203 0.01953,-0.04297 0.03516,-0.105469 0.02734,-0.152344 -0.0078,-0.05469 -0.01953,-0.08984 -0.01953,-0.08984 0.03906,-0.03125 0.09375,-0.09375 0.06641,-0.222656 -0.04297,-0.21875 -0.128907,-0.324219 -0.191407,-0.417969 -0.04297,-0.06641 -0.02734,-0.117187 0.01172,-0.144531 0.03906,-0.02734 0.09766,-0.01953 0.148438,0.05469 0.05859,0.08203 0.140625,0.199219 0.296875,0.273438 0.109375,0.05469 0.195312,0.03516 0.246094,-0.0078 0,0 0.04297,0.02734 0.08594,0.04297 0.03516,0.01172 0.08203,0.01563 0.128906,0.01172 -0.0078,-0.04297 -0.01953,-0.08984 -0.03906,-0.128906 z m 0,0"
             id="path2169" /><path
             fill-rule="evenodd"
             fill="#ffffff"
             fill-opacity="1"
             d="m 18.246094,21.359375 c 0.433594,0.171875 0.957031,-0.101563 0.957031,-0.15625 -0.65625,0.09375 -0.898437,-0.09375 -0.742187,-0.414063 -0.472657,0.05469 -0.449219,0.476563 -0.214844,0.570313 z m 0,0"
             id="path2171" /><path
             fill-rule="nonzero"
             fill="#ffffff"
             fill-opacity="1"
             d="M 32.328125,13.171875 C 32.3125,12.972656 32.175781,12.875 31.488281,13.011719 c -0.820312,0.117187 -1.246093,-0.210938 -1.007812,-0.582031 -0.621094,0.03516 -0.648438,0.875 0.02734,0.898437 0.679688,0.02344 1.082032,-0.265625 1.820313,-0.15625 z m 0,0"
             id="path2173" /><path
             fill-rule="nonzero"
             fill="#ffffff"
             fill-opacity="1"
             d="m 33.226562,21.078125 c -0.109374,-0.03906 -0.449218,-0.148437 -0.449218,-0.148437 0,0 -0.582032,0.726562 -1.640625,1.089843 -0.886719,0.308594 -1.285157,0.570313 -1.488281,0.90625 -0.171876,0.285157 -0.261719,0.566407 -0.273438,0.742188 -0.02344,0.296875 0.0039,0.492187 0.03906,0.726562 0.03516,0.25 0.3125,0.21875 0.351563,0.04687 0.02734,-0.128906 0.109375,-0.269531 0.238281,-0.285156 0.125,-0.01563 0.246094,0.125 0.246094,0.125 0,0 -0.128906,0.519531 -0.519531,1.027344 -0.125,0.164062 -0.683594,0.753906 -0.894531,0.859375 -0.261719,-0.117188 -0.605469,-0.246094 -0.78125,-0.265625 -0.136719,-0.01563 -0.351563,-0.02344 -0.421876,0.08203 -0.08984,-0.0039 -0.183593,0.03906 -0.265624,0.105469 0.07812,0.09375 0.21875,0.144531 0.21875,0.144531 0.02344,0.167969 0.179687,0.246094 0.367187,0.261719 0.199219,0.01953 0.355469,0.01563 0.441406,0.0078 0.08203,-0.0078 0.132813,0.03906 0.140625,0.09766 0.01563,0.05859 -0.02344,0.128907 -0.117187,0.140626 -0.484375,0.07031 -0.660157,0.316406 -0.644531,0.574218 -0.05469,0.0625 -0.128907,0.183594 -0.117188,0.3125 0.07813,0 0.230469,-0.02734 0.308594,-0.09766 0.316406,0.04297 0.542968,-0.292969 0.632812,-0.464844 0.04687,-0.08984 0.08984,-0.132812 0.15625,-0.101562 0.0625,0.02734 0.07813,0.08203 0.03906,0.179687 -0.04297,0.121094 -0.09375,0.277344 -0.09766,0.421875 0,0.226563 0.08594,0.34375 0.210938,0.40625 0,0 0.07813,0.191406 0.175781,0.234375 0.05859,-0.08984 0.05078,-0.257812 0.05078,-0.257812 0.109376,-0.05859 0.164063,-0.242188 0.140626,-0.414063 -0.01563,-0.109375 -0.08984,-0.261718 -0.144532,-0.386718 -0.03906,-0.07813 -0.02344,-0.144532 0.02734,-0.164063 0.0625,-0.03125 0.121094,0 0.171875,0.117187 0.03125,0.07031 0.121094,0.234376 0.179687,0.296876 0.08984,0.08594 0.28125,0.199218 0.417969,0.117187 0,0 0.125,0.08203 0.253907,0.06641 0,-0.109375 -0.04297,-0.183593 -0.105469,-0.261719 0.03906,-0.125 0.04297,-0.261718 -0.132813,-0.425781 -0.144531,-0.136719 -0.3125,-0.261719 -0.503906,-0.375 0.359375,-0.117187 0.925781,-0.542969 1.144531,-0.796875 0.1875,-0.21875 0.382813,-0.605468 0.382813,-0.605468 0.164062,0.03906 0.207031,0.214843 0.21875,0.332031 0.0078,0.101562 0.203125,0.144531 0.253906,-0.03125 0.04297,-0.171875 0.07813,-0.347657 0.07031,-0.574219 -0.0039,-0.148438 -0.01953,-0.464844 -0.164062,-0.734375 0.03516,-0.08203 0.09375,-0.148437 0.167969,-0.144531 0.117187,0.0078 0.199219,0.152344 0.230469,0.21875 0.09766,0.214844 0.386718,0.140625 0.382812,-0.07422 -0.0078,-0.179687 -0.0078,-0.320313 -0.07031,-0.5625 -0.02734,-0.113281 -0.152344,-0.347656 -0.261719,-0.4375 0.06641,-0.40625 0.332031,-0.417969 0.871093,-0.851563 0.199219,-0.160156 0.484376,-0.394531 0.6875,-0.660156 0.05859,-0.07813 0.15625,-0.234375 0.144532,-0.351562 -0.01172,-0.08594 -0.148438,-0.128906 -0.269532,-0.167969 z m 0,0"
             id="path2175" /><path
             fill-rule="nonzero"
             fill="#ffffff"
             fill-opacity="1"
             d="m 32.359375,11.75 c 0,0 0.300781,0.480469 0.527344,0.335938 0.160156,-0.105469 0.07813,-0.292969 -0.03516,-0.417969 -0.15625,-0.175781 -0.328124,-0.05859 -0.492187,0.08203 z m 4.132813,8.488281 c -0.09766,0.480469 -0.464844,0.796875 -0.96875,1.003907 0.02734,0.914062 -0.535157,1.359374 -0.542969,1.675781 -0.0078,0.238281 0.203125,0.308593 0.441406,0.625 0.226563,0.3125 0.3125,0.816406 0.25,1.210937 -0.05078,0.296875 -0.113281,0.449219 -0.230469,0.660156 -0.113281,0.210938 -0.367187,0.125 -0.351562,-0.03906 0.04297,-0.445312 -0.277344,-0.292969 -0.277344,-0.292969 0,0 0.01172,0.476563 -0.316406,1.117188 -0.195313,0.38281 -0.746094,0.886717 -0.746094,0.886717 0,0 0.449219,0.07031 0.585938,0.132812 0.21875,0.09375 0.265624,0.265625 0.269531,0.394531 0.08203,0.05859 0.148437,0.128907 0.179687,0.230469 -0.09375,0.03906 -0.265625,0.0039 -0.265625,0.0039 0,0 -0.15625,0.140625 -0.445312,-0.03125 -0.105469,-0.0625 -0.191407,-0.160156 -0.242188,-0.21875 -0.07422,-0.08203 -0.144531,-0.08984 -0.195312,-0.04297 -0.03906,0.03906 -0.04687,0.105468 0.01172,0.171874 0.09375,0.101563 0.214843,0.261719 0.253906,0.328126 0.05859,0.109374 0.08984,0.359374 0.0039,0.449218 0,0 0.0625,0.183594 0.03125,0.285156 -0.101562,-0.01172 -0.246094,-0.1875 -0.246094,-0.1875 -0.140625,-0.02344 -0.269531,-0.15625 -0.308594,-0.3125 -0.04297,-0.183593 -0.01953,-0.332031 -0.01562,-0.457031 0,-0.117187 -0.02734,-0.171875 -0.101563,-0.179687 -0.08984,-0.0039 -0.121094,0.05469 -0.132813,0.140625 -0.02344,0.234375 -0.1875,0.605469 -0.503906,0.65625 -0.05078,0.09375 -0.167968,0.15625 -0.242187,0.179687 -0.05078,-0.117187 -0.01563,-0.257812 0.01953,-0.332031 -0.09375,-0.246094 0.01953,-0.492187 0.441406,-0.742187 0.0625,-0.03516 0.08984,-0.101563 0.05859,-0.160157 -0.02734,-0.05078 -0.08203,-0.0625 -0.15625,-0.03906 -0.08203,0.02734 -0.222656,0.06641 -0.414062,0.105469 -0.1875,0.03906 -0.359376,0.0078 -0.433594,-0.144532 0,0 -0.148438,-0.0039 -0.246094,-0.07422 0.05469,-0.08594 0.132812,-0.15625 0.222656,-0.175782 0.03125,-0.121094 0.21875,-0.210937 0.359375,-0.226562 0.386719,-0.03906 0.878907,0.04687 0.878907,0.04687 0,0 0.253906,-0.25 0.492187,-0.640625 0.3125,-0.5 0.265625,-1.050782 0.265625,-1.050782 0,0 -0.0625,-0.08594 -0.167969,-0.09375 -0.117187,-0.0078 -0.203125,0.113282 -0.253906,0.164063 -0.0625,0.0625 -0.230469,0.07031 -0.230469,-0.113281 0,-0.109375 0.01953,-0.273438 0.08984,-0.488282 0.04687,-0.140624 0.121094,-0.265624 0.234375,-0.433593 -0.05859,-0.08203 -0.164063,-0.15625 -0.234375,-0.132813 -0.09766,0.02734 -0.152344,0.101563 -0.183594,0.195313 -0.04687,0.132812 -0.257812,0.15625 -0.304687,-0.03906 -0.03906,-0.175781 -0.05078,-0.339844 -0.02344,-0.570312 0.04297,-0.398438 0.105469,-0.804688 0.550781,-1.417969 0.214844,-0.292969 0.722657,-0.894531 0.734376,-1.257813 0.0078,-0.34375 -1.15625,-0.382812 -2.027344,-0.960937 -0.710938,-0.472656 -0.878906,-1.222656 -0.878906,-1.222656 0,0 -0.253907,0.332031 -0.8125,0.667969 -0.367188,0.21875 -1.066407,0.386718 -1.066407,0.386718 0.125,0.15625 0.21875,0.351563 0.273438,0.511719 0.08594,0.25 0.02344,0.386719 -0.07031,0.476563 0.01953,0.09766 -0.01172,0.203124 -0.06641,0.300781 -0.09375,-0.0625 -0.15625,-0.203125 -0.15625,-0.203125 -0.160156,0.0078 -0.242188,-0.08984 -0.285156,-0.28125 -0.02344,-0.109375 -0.04297,-0.292969 -0.03906,-0.371094 0,-0.121094 -0.03906,-0.175781 -0.101562,-0.175781 -0.05078,0 -0.09375,0.04297 -0.101563,0.121093 -0.0078,0.136719 -0.03125,0.332032 -0.05469,0.410157 -0.03906,0.117187 -0.144531,0.300781 -0.269531,0.300781 0,0 -0.08203,0.1875 -0.175782,0.238281 -0.0625,-0.08594 -0.03516,-0.308593 -0.03516,-0.308593 -0.08203,-0.06641 -0.128906,-0.203126 -0.01563,-0.457032 0.08203,-0.1875 0.144531,-0.238281 0.230469,-0.332031 0.07813,-0.08203 0.113281,-0.140625 0.05469,-0.195313 -0.04297,-0.04687 -0.08203,-0.03125 -0.15625,0.01563 -0.164062,0.109374 -0.566406,0.296874 -0.824219,0.105468 -0.101562,0.02734 -0.203124,-0.02344 -0.273437,-0.05859 0.05078,-0.121093 0.15625,-0.203124 0.253906,-0.21875 0.113281,-0.164062 0.351563,-0.265624 0.84375,-0.195312 0.06641,0.01172 0.140625,0 0.160157,-0.06641 0.01953,-0.0625 0,-0.121094 -0.08594,-0.160156 -0.07422,-0.03516 -0.203125,-0.09766 -0.363281,-0.210938 -0.15625,-0.105469 -0.257813,-0.25 -0.199219,-0.410156 0,0 -0.101562,-0.109375 -0.121094,-0.230469 0.101563,-0.01563 0.207032,-0.01172 0.285156,0.03906 0.109376,-0.0625 0.300782,-0.0039 0.425782,0.109374 0.128906,0.117188 0.320312,0.347657 0.492187,0.582032 0,0 0.640625,-0.08594 1.148438,-0.644532 0.3125,-0.34375 0.375,-0.902343 0.394531,-1.394531 0.0039,-0.08203 -0.03125,-0.160156 -0.09766,-0.191406 -0.109375,-0.05078 -0.230469,0.03516 -0.296875,0.06641 -0.07813,0.03906 -0.242188,-0.01563 -0.175781,-0.183593 0.0625,-0.167969 0.109374,-0.261719 0.257812,-0.429688 0.08594,-0.09375 0.269531,-0.285156 0.511719,-0.417969 -0.207031,-0.152343 -0.441407,-0.363281 -0.652344,-0.570312 -0.183594,-0.179688 -0.488281,-0.644531 -0.644531,-1.007813 -0.03125,0.117188 -0.06641,0.273438 -0.113282,0.378906 -0.08984,0.222657 -0.199218,0.265626 -0.328124,0.277344 -0.05078,0.08594 -0.144532,0.148438 -0.246094,0.1875 -0.03125,-0.109375 0.01953,-0.273437 0.01953,-0.273437 -0.128906,-0.09766 -0.101563,-0.253907 -0.03516,-0.410157 0.05859,-0.140624 0.136719,-0.226562 0.195312,-0.285156 0.08984,-0.08984 0.09766,-0.160156 0.04687,-0.203125 -0.04687,-0.04297 -0.109375,-0.02734 -0.167968,0.03906 -0.08594,0.105468 -0.234376,0.230468 -0.304688,0.273437 -0.101562,0.06641 -0.34375,0.101563 -0.4375,0.02344 0,0 -0.167969,0.07031 -0.277344,0.05078 0.0078,-0.105469 0.15625,-0.246094 0.15625,-0.246094 0.01563,-0.136718 0.03906,-0.199218 0.285156,-0.328125 0.113282,-0.05859 0.300782,-0.09766 0.425782,-0.09766 0.136718,0.0078 0.191406,-0.05469 0.191406,-0.109375 0,-0.07031 -0.05859,-0.117188 -0.15625,-0.113281 -0.230469,0.01172 -0.621094,-0.117188 -0.695312,-0.429688 -0.09375,-0.04687 -0.140626,-0.148437 -0.167969,-0.21875 0.113281,-0.05859 0.257812,-0.03125 0.332031,-0.0039 0.242188,-0.109375 0.496094,-0.01563 0.769531,0.390625 0.07422,0.105469 0.261719,0.04687 0.195313,-0.113281 -0.03125,-0.07813 -0.08203,-0.21875 -0.132813,-0.40625 -0.05078,-0.179688 -0.03906,-0.355469 0.113281,-0.441407 0,0 -0.0078,-0.148437 0.05469,-0.253906 0.08594,0.05078 0.164062,0.121094 0.191406,0.210938 0.128906,0.02344 0.238282,0.207031 0.273438,0.355468 0.03125,0.148438 0.07031,0.421876 0.0078,0.757813 0.08984,0.328125 0.308594,0.605469 0.472656,0.78125 0.289063,0.320313 0.871094,0.6875 1.28125,0.921875 0.04688,-0.05078 0.09375,-0.101562 0.148438,-0.152344 0.04297,-0.04297 0.03516,-0.113281 0.0078,-0.164062 -0.0625,-0.101563 -0.207031,-0.101563 -0.28125,-0.117188 -0.08594,-0.01563 -0.183593,-0.148437 -0.03516,-0.253906 0.148438,-0.105469 0.316406,-0.160156 0.535156,-0.214844 0.148438,-0.03125 0.429688,-0.07422 0.753907,0.01172 0,0 0.179687,-0.210937 0.08984,-0.277344 -0.328124,-0.257812 -0.960937,-0.09766 -0.960937,-0.09766 -0.25,-0.339844 -0.03125,-0.429687 0.320313,-0.441406 0.289062,-0.01172 0.605468,0.03906 0.941406,0.160156 0.226562,-0.179687 0.15625,-0.707031 -0.15625,-0.851563 -0.679688,-0.324218 -1.207032,0.0039 -1.207032,0.0039 -0.148437,-0.02344 -0.292968,-0.09766 -0.363281,-0.261719 -0.08594,-0.183594 -0.02734,-0.390625 -0.02734,-0.390625 -0.15625,-0.113281 -0.152344,-0.460937 0.875,-0.390625 0,0 -0.109376,-0.289062 -0.03125,-0.519531 0.105468,-0.308594 1.222656,-0.144531 1.480468,-0.203125 0.0625,-0.01563 0.191406,-0.05859 0.253906,-0.07813 0.160157,-0.04687 0.210938,0.109375 0.160157,0.199219 -0.08594,0.152343 -0.113281,0.34375 -0.113281,0.34375 0,0 0.414062,0.109374 0.78125,0.554687 0.195312,0.238281 0.269531,0.621094 0.304687,0.796875 0.03516,0.179688 -0.144531,0.195312 -0.210937,0.140625 -0.0625,-0.04687 -0.15625,-0.15625 -0.277344,-0.132813 -0.06641,0.01172 -0.144532,0.132813 -0.167969,0.207032 0.40625,0.214844 0.550781,0.707031 0.585937,0.910156 0.03516,0.222656 0.02734,0.398438 0,0.582031 -0.02344,0.179688 -0.199218,0.132813 -0.246093,0.0625 -0.03906,-0.0625 -0.09766,-0.199219 -0.214844,-0.214843 -0.105469,-0.01563 -0.179687,0.07031 -0.226563,0.171874 0.15625,0.242188 0.214844,0.527344 0.230469,0.667969 0.03125,0.222657 0.01172,0.398438 -0.01563,0.578125 -0.03125,0.179688 -0.207031,0.128906 -0.246094,0.05469 -0.03906,-0.06641 -0.09375,-0.199219 -0.210937,-0.222656 -0.113281,-0.01953 -0.207031,0.109374 -0.253906,0.210937 0.246093,0.25 0.332031,0.617187 0.359375,0.78125 0.03516,0.226563 0.02734,0.402344 0.0039,0.582031 -0.02344,0.179688 -0.207031,0.167969 -0.246094,0.0625 -0.03516,-0.08594 -0.08984,-0.207031 -0.203125,-0.222656 -0.07031,-0.01172 -0.167969,0.05859 -0.207031,0.105469 -0.04297,0.246093 0.01172,0.46875 0.05469,0.691406 0.07422,0.375 0.273437,0.734375 0.75,1.082031 0.527343,0.386719 1.183593,1.011719 1.398437,1.773438 0.453125,-0.203125 0.867187,-0.632813 0.339844,-1.359375 -0.515625,-0.703125 -0.917969,-0.929688 -1.132813,-1.75 -0.125,-0.480469 -0.04297,-0.984375 0.367188,-1.507813 -0.05469,-0.08594 -0.08203,-0.195312 -0.08984,-0.3125 -0.01563,-0.214844 0.0078,-0.511718 0.207031,-0.847656 0.179688,-0.304688 0.511719,-0.703125 0.996094,-0.921875 0.121094,0.07031 0.132813,0.300781 0.105469,0.351563 -0.144532,0.285156 -0.710938,0.691406 -0.714844,0.859374 -0.0039,0.09375 0.21875,0.234376 0.300781,0.207032 0.152344,-0.05078 0.324219,-0.464844 0.386719,-0.546875 0.05469,-0.07031 0.246094,-0.07031 0.230469,0.113281 -0.01563,0.179688 -0.04297,0.355469 -0.125,0.566406 -0.07813,0.203125 -0.347657,0.617188 -0.886719,0.695313 -0.05859,0.0078 -0.113281,0.0039 -0.160156,-0.0039 -0.320313,0.441407 -0.269532,0.886719 -0.226563,1.144532 0.09375,0.53125 0.453125,0.832031 0.917969,1.429687 0.421875,0.539063 0.636719,0.84375 0.523438,1.4375 z m 0,0"
             id="path2177" /><path
             fill-rule="nonzero"
             fill="#ffffff"
             fill-opacity="1"
             d="M 28.21875,8.359375 C 28.058594,8.113281 27.847656,7.871094 27.671875,7.617188 27.476562,7.332031 27.507812,6.96875 27.851562,6.902344 c 0.109376,-0.019532 0.25,0.023437 0.351563,0.128906 0.0078,0.00781 0.02344,0.00781 0.03516,0 0.101563,-0.105469 0.242188,-0.148438 0.347657,-0.128906 0.34375,0.066406 0.378906,0.429687 0.183593,0.714844 -0.175781,0.253906 -0.390625,0.496093 -0.550781,0.742187 z m 0,0"
             id="path2179" /><path
             fill-rule="nonzero"
             fill="#ffffff"
             fill-opacity="1"
             d="m 28.222656,32.03125 c -0.164062,-0.246094 -0.375,-0.488281 -0.550781,-0.742188 -0.195313,-0.285156 -0.164063,-0.648437 0.179687,-0.714843 0.109376,-0.02344 0.25,0.02344 0.351563,0.125 0.0078,0.01172 0.02344,0.01172 0.03516,0 0.101563,-0.101563 0.242188,-0.148438 0.347657,-0.125 0.34375,0.06641 0.378906,0.429687 0.183593,0.714843 -0.175781,0.253907 -0.390625,0.496094 -0.546875,0.742188 z m 0,0"
             id="path2181" /><path
             fill-rule="nonzero"
             fill="#ffffff"
             fill-opacity="1"
             d="M 30.746094,30.867188 C 30.582031,30.621094 30.371094,30.378906 30.195312,30.125 30,29.839844 30.03125,29.476562 30.378906,29.410156 c 0.101563,-0.02344 0.246094,0.02344 0.347656,0.125 0.0078,0.01172 0.02344,0.01172 0.03516,0 0.101562,-0.101562 0.246093,-0.148437 0.351562,-0.125 0.34375,0.06641 0.375,0.429688 0.179688,0.714844 -0.175781,0.253906 -0.386719,0.496094 -0.546875,0.742188 z m 0,0"
             id="path2183" /><path
             fill-rule="nonzero"
             fill="#ffffff"
             fill-opacity="1"
             d="m 28.222656,17.570312 c -0.164062,-0.246093 -0.375,-0.488281 -0.550781,-0.746093 -0.199219,-0.28125 -0.164063,-0.644531 0.179687,-0.710938 0.109376,-0.02344 0.246094,0.02344 0.351563,0.125 0.0078,0.01172 0.02344,0.01172 0.03516,0 0.101563,-0.101562 0.242188,-0.148437 0.347657,-0.125 0.34375,0.06641 0.378906,0.429688 0.183593,0.710938 -0.175781,0.257812 -0.390625,0.5 -0.546875,0.746093 z m 0,0"
             id="path2185" /><path
             fill-rule="nonzero"
             fill="#ffffff"
             fill-opacity="1"
             d="m 30.746094,9.699219 c -0.164063,-0.25 -0.375,-0.488281 -0.550782,-0.746094 C 30,8.671875 30.03125,8.308594 30.378906,8.242188 c 0.101563,-0.023438 0.246094,0.019531 0.347656,0.125 0.0078,0.011718 0.02344,0.011718 0.03516,0 0.101562,-0.105469 0.246093,-0.148438 0.351562,-0.125 0.34375,0.066406 0.375,0.429687 0.179688,0.710937 -0.175781,0.257813 -0.386719,0.496094 -0.546875,0.746094 z m 0,0"
             id="path2187" /><path
             fill-rule="nonzero"
             fill="#ffffff"
             fill-opacity="1"
             d="m 30.921875,21.667969 c -0.160156,-0.242188 -0.375,-0.488281 -0.550781,-0.742188 -0.195313,-0.285156 -0.160156,-0.648437 0.183594,-0.714843 0.105468,-0.01953 0.246093,0.02344 0.351562,0.128906 0.0078,0.0078 0.02344,0.0078 0.03125,0 0.105469,-0.105469 0.246094,-0.148438 0.351562,-0.128906 0.34375,0.06641 0.378907,0.429687 0.183594,0.714843 -0.175781,0.253907 -0.390625,0.5 -0.550781,0.742188 z m 0,0"
             id="path2189" /><path
             fill-rule="nonzero"
             fill="#ffffff"
             fill-opacity="1"
             d="m 26.113281,6.71875 c 0,0 0.136719,0.015625 0.207031,0.039062 v 25.28125 c -0.140624,0.04297 -0.210937,0.04297 -0.210937,0.04297 0,0 -0.05859,0 -0.203125,-0.04297 V 6.757812 C 25.972656,6.734375 26.113281,6.71875 26.113281,6.71875 Z m 0,0"
             id="path2191" /><path
             fill-rule="nonzero"
             fill="#ffffff"
             fill-opacity="1"
             d="m 14.492188,24.882812 c -0.02734,-0.08203 -0.05859,-0.160156 -0.08594,-0.246093 l -0.621094,0.199219 0.06641,0.203124 c 0.05469,0.183594 0.253907,0.222657 0.414063,0.171876 0.15625,-0.05078 0.28125,-0.148438 0.226563,-0.328126 z m -0.878907,0.265626 -0.07422,-0.234376 -0.613281,0.195313 c -0.121093,0.03906 -0.121093,0.08984 -0.06641,0.261719 0.06641,0.210937 0.234375,0.355468 0.492187,0.273437 0.214844,-0.06641 0.328126,-0.277343 0.261719,-0.496093 z m -0.9375,0.480468 c -0.06641,-0.226562 -0.128906,-0.453125 -0.203125,-0.679687 l -0.230468,-0.695313 0.210937,-0.07031 0.15625,0.378906 1.601563,-0.511719 -0.144532,-0.410156 0.222656,-0.07031 c 0.167969,0.421876 0.332032,0.851563 0.46875,1.285157 0.148438,0.46875 0.03906,0.867187 -0.285156,0.972656 -0.207031,0.06641 -0.421875,-0.05469 -0.558594,-0.210937 0.01172,0.277343 -0.08984,0.566406 -0.375,0.65625 -0.4375,0.136718 -0.742187,-0.28125 -0.863281,-0.644532 z m 0,0"
             id="path2193" /><path
             fill-rule="nonzero"
             fill="#ffffff"
             fill-opacity="1"
             d="m 15.585938,27.472656 -0.0625,-0.109375 -0.742188,0.390625 0.04687,0.09375 c 0.121094,0.234375 0.367187,0.25 0.566406,0.148438 0.171875,-0.09375 0.316407,-0.28125 0.191407,-0.523438 z m -1.347657,2.125 -0.128906,-0.390625 C 13.996094,28.875 14.535156,28.1875 14.691406,27.921875 l -0.05078,-0.09375 -0.621094,0.328125 0.09375,0.253906 -0.199219,0.105469 -0.265624,-0.527344 -0.320313,-0.582031 0.203125,-0.105469 0.199219,0.308594 1.496093,-0.789063 -0.214843,-0.375 0.203125,-0.109374 c 0.121094,0.199218 0.269531,0.449218 0.363281,0.597656 0.03516,0.05469 0.207031,0.347656 0.265625,0.457031 0.355469,0.671875 0.238281,0.988281 -0.09766,1.164063 -0.296875,0.15625 -0.554688,0.105468 -0.757813,-0.15625 -0.04687,0.08594 -0.574219,0.871093 -0.574219,0.9375 0.0078,0.105468 0.01172,0.101562 0.04688,0.222656 z m 0,0"
             id="path2195" /><path
             fill-rule="nonzero"
             fill="#ffffff"
             fill-opacity="1"
             d="m 16.816406,29.859375 -0.6875,0.207031 0.308594,0.390625 z m -0.738281,1.777344 -0.453125,-0.558594 0.171875,-0.136719 0.21875,0.230469 0.28125,-0.472656 -0.449219,-0.558594 -0.523437,0.160156 0.21875,0.320313 -0.175781,0.140625 -0.304688,-0.402344 -0.261719,-0.304687 0.171875,-0.136719 0.148438,0.136719 2.003906,-0.574219 c 0.113281,0.07422 0.253906,0.113281 0.359375,0.136719 l 0.05859,0.07812 -1.128907,1.976563 0.113282,0.195313 -0.171875,0.140624 z m 0,0"
             id="path2197" /><path
             fill-rule="nonzero"
             fill="#ffffff"
             fill-opacity="1"
             d="m 19.84375,32.472656 -0.742188,0.886719 c -0.34375,0.410156 -0.816406,0.40625 -1.3125,-0.0078 -0.464843,-0.386718 -0.617187,-0.917968 -0.332031,-1.257812 l 0.796875,-0.953125 -0.273437,-0.265625 0.140625,-0.167969 0.5,0.429688 0.550781,0.445312 -0.144531,0.171875 -0.300782,-0.214844 -0.738281,0.878907 c -0.269531,0.328125 -0.109375,0.617187 0.03906,0.742187 0.152344,0.125 0.554687,0.300782 0.820312,-0.02344 l 0.738282,-0.878907 -0.253907,-0.25 0.144531,-0.171874 0.371094,0.316406 0.410156,0.339844 -0.140624,0.171874 z m 0,0"
             id="path2199" /><path
             fill-rule="nonzero"
             fill="#ffffff"
             fill-opacity="1"
             d="m 22.757812,33.960938 -0.808593,1.808593 -0.351563,-0.160156 -0.535156,-1.949219 -0.523438,1.175782 0.296876,0.160156 -0.09375,0.210937 L 20.316406,35 l -0.492187,-0.203125 0.08984,-0.203125 0.320313,0.113281 0.667969,-1.5 c -0.02734,-0.08594 -0.125,-0.148437 -0.332032,-0.238281 l 0.09766,-0.214844 0.824219,0.371094 0.496093,1.765625 0.472657,-1.0625 -0.296876,-0.160156 0.08984,-0.203125 0.433594,0.195312 0.484375,0.207032 -0.09375,0.207031 z m 0,0"
             id="path2201" /><path
             fill-rule="nonzero"
             fill="#ffffff"
             fill-opacity="1"
             d="M 24.277344,36.34375 C 24.078125,36.3125 23.941406,36.26953 23.691406,36.164062 l -0.01563,0.06641 -0.230469,-0.03516 0.04688,-0.15625 0.105468,-0.511718 0.222656,0.03516 c -0.03516,0.289062 0.136719,0.496094 0.375,0.53125 0.242188,0.03906 0.375,-0.07422 0.398438,-0.246094 0.03125,-0.203125 -0.292969,-0.386718 -0.550781,-0.636718 -0.195313,-0.1875 -0.355469,-0.414063 -0.3125,-0.679688 0.05859,-0.382812 0.398437,-0.554688 0.898437,-0.480469 0.136719,0.02344 0.40625,0.09375 0.511719,0.128907 l 0.04297,-0.08984 0.207031,0.03125 -0.101563,0.675781 -0.222656,-0.03516 c 0.0078,-0.261719 -0.113281,-0.421875 -0.351562,-0.460938 -0.25,-0.03906 -0.332032,0.148438 -0.347656,0.246094 -0.03125,0.195313 0.21875,0.367187 0.460937,0.578125 0.226563,0.207031 0.441406,0.441406 0.394531,0.734375 -0.0625,0.414063 -0.4375,0.5625 -0.945312,0.484375 z m 0,0"
             id="path2203" /><path
             fill-rule="nonzero"
             fill="#ffffff"
             fill-opacity="1"
             d="m 27.414062,36.417969 c -0.738281,0.07031 -1.328124,-0.347657 -1.390624,-1.03125 -0.05469,-0.582031 0.347656,-1.199219 1.144531,-1.273438 0.367187,-0.03125 0.429687,-0.03125 0.667969,-0.01563 l 0.0078,-0.08984 0.21875,-0.01562 0.01953,0.203124 0.0625,0.53125 -0.21875,0.02344 c -0.05859,-0.335938 -0.347656,-0.417969 -0.671875,-0.386719 -0.339844,0.03125 -0.632812,0.410157 -0.582031,0.941407 0.04687,0.507812 0.441406,0.882812 0.792969,0.851562 0.34375,-0.03125 0.519531,-0.136719 0.519531,-0.140625 0.02344,-0.06641 0.02344,-0.371094 0.02344,-0.425781 l 0.21875,-0.02344 0.05859,0.597656 c -0.324218,0.128907 -0.421875,0.210938 -0.871094,0.253907 z m 0,0"
             id="path2205" /><path
             fill-rule="nonzero"
             fill="#ffffff"
             fill-opacity="1"
             d="m 31.714844,35.132812 -0.640625,0.273438 -0.08594,-0.207031 0.332031,-0.171875 -0.277343,-0.667969 -0.984375,0.40625 0.277344,0.671875 0.351562,-0.113281 0.08203,0.207031 -0.621093,0.246094 -0.625,0.269531 -0.08594,-0.203125 0.328125,-0.171875 -0.648437,-1.566406 -0.347657,0.113281 -0.08594,-0.207031 0.632812,-0.25 0.613282,-0.265625 0.08594,0.207031 -0.328125,0.164063 0.273438,0.660156 0.984374,-0.410156 -0.273437,-0.65625 -0.351563,0.117187 -0.08594,-0.207031 0.613281,-0.246094 0.636719,-0.273438 0.08594,0.207032 -0.332031,0.167968 0.648438,1.566407 0.355469,-0.109375 0.08594,0.203125 z m 0,0"
             id="path2207" /><path
             fill-rule="nonzero"
             fill="#ffffff"
             fill-opacity="1"
             d="m 34.582031,30.636719 0.699219,2.039062 -0.257812,0.226563 -0.933594,-0.460938 0.339844,0.972656 -0.28125,0.242188 -1.949219,-0.960938 -0.1875,0.125 -0.144531,-0.167968 0.382812,-0.320313 0.398438,-0.359375 0.144531,0.171875 -0.113281,0.128907 1.308593,0.675781 -0.265625,-0.691407 -0.648437,-0.320312 -0.148438,0.08984 -0.144531,-0.164063 0.347656,-0.289062 0.457032,-0.410157 0.148437,0.167969 -0.195313,0.199219 1.304688,0.679688 -0.511719,-1.359376 -0.234375,0.167969 -0.148437,-0.167969 0.359375,-0.300781 0.273437,-0.257812 0.152344,0.175781 z m 0,0"
             id="path2209" /><path
             fill-rule="nonzero"
             fill="#ffffff"
             fill-opacity="1"
             d="m 37.171875,30.371094 -0.183594,0.25 -0.414062,0.601562 -0.183594,-0.132812 0.207031,-0.339844 -1.386718,-0.984375 -0.242188,0.273437 -0.183594,-0.128906 0.414063,-0.554687 0.265625,-0.390625 0.292968,-0.417969 -0.08594,-0.08984 0.132813,-0.179687 0.144531,0.101562 0.449219,0.304688 -0.125,0.179687 -0.308594,-0.140625 -0.386719,0.542969 0.5625,0.398437 0.289063,-0.402343 -0.1875,-0.171875 0.128906,-0.179688 0.636718,0.449219 -0.128906,0.179687 -0.234375,-0.125 -0.289062,0.40625 0.523437,0.371094 c 0.03125,0.01953 0.05859,0.04297 0.06641,0.04297 0.03125,-0.03516 0.06641,-0.06641 0.128907,-0.15625 0.08984,-0.128906 0.21875,-0.300781 0.226562,-0.316406 0.03906,-0.05078 0.101563,-0.144531 0.09766,-0.152344 -0.0039,-0.01172 -0.207032,-0.195313 -0.25,-0.230469 l 0.128906,-0.183594 0.484375,0.34375 z m 0,0"
             id="path2211" /><path
             fill-rule="nonzero"
             fill="#ffffff"
             fill-opacity="1"
             d="m 38.59375,27.980469 -0.292969,0.613281 -0.203125,-0.09766 0.132813,-0.339844 -1.519531,-0.753906 -0.183594,0.316406 -0.203125,-0.09766 0.3125,-0.605469 0.285156,-0.605469 0.199219,0.101563 -0.136719,0.335937 1.523437,0.753906 0.1875,-0.316406 0.199219,0.101563 z m 0,0"
             id="path2213" /><path
             fill-rule="nonzero"
             fill="#ffffff"
             fill-opacity="1"
             d="m 39.207031,24.121094 c 0.0625,0.01953 0.152344,0.05469 0.257813,0.08594 l 0.07813,0.02344 c 0.148437,0.03906 0.292969,0.07031 0.414062,0.03125 -0.08203,0.269531 -0.07031,0.246093 -0.109375,0.472656 -0.03906,0.246094 -0.04297,0.335937 -0.132812,0.617187 -0.285156,0.910157 -0.941406,1.109376 -1.515625,0.929688 -0.511719,-0.160156 -0.972657,-0.730469 -0.710938,-1.570312 0.07422,-0.234376 0.195313,-0.507813 0.273438,-0.664063 l -0.08984,-0.05469 0.0625,-0.199219 0.144531,0.04687 L 38.449219,24 l -0.06641,0.210938 c -0.328124,-0.05469 -0.519531,0.171874 -0.636718,0.53125 -0.08984,0.289062 0.164062,0.761718 0.652344,0.914062 0.519531,0.167969 0.984374,-0.09375 1.082031,-0.402344 0.05078,-0.160156 0.05469,-0.273437 0.04297,-0.394531 l -0.492188,-0.152344 -0.144531,0.347657 -0.210938,-0.06641 0.214844,-0.660156 0.171875,-0.582031 0.214844,0.06641 z m 0,0"
             id="path2215" /><path
             fill-rule="nonzero"
             fill="#ffffff"
             fill-opacity="1"
             d="m 13.988281,19.6875 c 0.01953,0.746094 -0.4375,1.308594 -1.121093,1.324219 -0.589844,0.01563 -1.175782,-0.429688 -1.191407,-1.234375 -0.01172,-0.367188 0,-0.433594 0.03125,-0.671875 l -0.08984,-0.01172 -0.0039,-0.222656 0.203125,-0.0039 0.535156,-0.02734 0.0078,0.222656 c -0.335937,0.03516 -0.4375,0.316406 -0.429687,0.644531 0.0078,0.34375 0.367187,0.660157 0.898437,0.648438 0.511719,-0.01172 0.914063,-0.378907 0.90625,-0.734375 -0.01172,-0.347656 -0.101563,-0.53125 -0.105469,-0.53125 -0.06641,-0.02734 -0.371094,-0.05078 -0.425781,-0.05078 l -0.0039,-0.226562 0.59375,-0.01172 c 0.113281,0.332031 0.183593,0.4375 0.195312,0.886719 z m 0,0"
             id="path2217" /><path
             fill-rule="nonzero"
             fill="#ffffff"
             fill-opacity="1"
             d="M 12.371094,17.027344 13,17.375 13.0625,16.882812 Z M 14.160156,16.3125 14.078125,17.03125 13.855469,17 l 0.01172,-0.316406 -0.527344,0.125 -0.09375,0.71875 0.484375,0.265625 0.07422,-0.386719 0.222656,0.02734 -0.07422,0.5 -0.03906,0.40625 -0.214843,-0.02734 -0.0078,-0.207031 -1.808594,-1.035157 c -0.02344,-0.132812 -0.09375,-0.261718 -0.152343,-0.359374 l 0.01563,-0.09375 2.207031,-0.570313 0.05859,-0.222656 0.222656,0.03125 z m 0,0"
             id="path2219" /><path
             fill-rule="nonzero"
             fill="#ffffff"
             fill-opacity="1"
             d="m 12.800781,13.691406 -0.03516,0.125 0.808594,0.242188 0.02734,-0.101563 c 0.07813,-0.253906 -0.08594,-0.4375 -0.300781,-0.503906 -0.1875,-0.05469 -0.421875,-0.02344 -0.5,0.238281 z m 2.453125,-0.574218 -0.179687,0.371093 C 14.921875,13.804688 14.054688,13.917969 13.75,14 l -0.02734,0.101562 0.675782,0.203126 0.109374,-0.25 0.21875,0.06641 -0.183593,0.5625 -0.179688,0.644531 -0.21875,-0.06641 0.07422,-0.363281 -1.621094,-0.484376 -0.109375,0.421876 -0.222656,-0.06641 c 0.05469,-0.230469 0.125,-0.515625 0.164063,-0.683593 0.01172,-0.06641 0.09375,-0.394532 0.128906,-0.515626 0.21875,-0.730468 0.523437,-0.875 0.886718,-0.765624 0.324219,0.09766 0.46875,0.3125 0.429688,0.644531 0.09375,-0.03125 1.023438,-0.222657 1.066406,-0.273438 0.07031,-0.07422 0.06641,-0.07422 0.125,-0.1875 z m 0,0"
             id="path2221" /><path
             fill-rule="nonzero"
             fill="#ffffff"
             fill-opacity="1"
             d="m 13.960938,10.648438 c -0.1875,0.367187 0.128906,0.738281 0.535156,0.945312 0.402344,0.203125 0.902344,0.25 1.089844,-0.117188 0.183593,-0.367187 -0.160157,-0.742187 -0.550782,-0.941406 -0.386718,-0.195312 -0.890625,-0.253906 -1.074218,0.113282 z m 1.84375,0.9375 c -0.390626,0.769531 -1.097657,0.851562 -1.601563,0.59375 -0.503906,-0.257813 -0.851563,-0.878907 -0.460937,-1.644532 0.386718,-0.757812 1.089843,-0.84375 1.59375,-0.585937 0.492187,0.25 0.855468,0.882812 0.46875,1.636719 z m 0,0"
             id="path2223" /><path
             fill-rule="nonzero"
             fill="#ffffff"
             fill-opacity="1"
             d="M 17.769531,8.5 17.183594,9.265625 16.992188,9.511719 16.574219,10.070312 16.398438,9.9375 16.597656,9.625 15.25,8.597656 15.003906,8.871094 14.824219,8.738281 15.253906,8.191406 15.648438,7.660156 15.824219,7.792969 15.625,8.105469 16.992188,9.144531 C 17.015625,9.117188 17.300781,8.726562 17.3125,8.710938 17.351562,8.65625 17.410156,8.5625 17.402344,8.546875 17.394531,8.53125 17.195312,8.246094 17.164062,8.203125 l 0.140626,-0.179687 z m 0,0"
             id="path2225" /><path
             fill-rule="nonzero"
             fill="#ffffff"
             fill-opacity="1"
             d="m 17.570312,5.90625 c -0.308593,0.277344 -0.144531,0.734375 0.160157,1.074219 0.300781,0.335937 0.746093,0.558593 1.054687,0.285156 0.304688,-0.273437 0.121094,-0.75 -0.171875,-1.074219 C 18.324219,5.867188 17.875,5.632812 17.570312,5.90625 Z m 1.378907,1.542969 C 18.308594,8.023438 17.617188,7.84375 17.242188,7.421875 16.863281,7 16.765625,6.296875 17.40625,5.722656 c 0.632812,-0.566406 1.320312,-0.390625 1.695312,0.03125 0.371094,0.410156 0.484376,1.128906 -0.152343,1.695313 z m 0,0"
             id="path2227" /><path
             fill-rule="nonzero"
             fill="#ffffff"
             fill-opacity="1"
             d="M 19.816406,5.671875 19.550781,5.230469 20.542969,4.632812 20.8125,5.074219 Z m 0,0"
             id="path2229" /><path
             fill-rule="nonzero"
             fill="#ffffff"
             fill-opacity="1"
             d="m 23.652344,2.734375 -0.109375,2.15625 -0.328125,0.113281 -0.691406,-0.773437 -0.05469,1.027343 -0.351562,0.125 -1.449219,-1.621093 -0.222657,0.046875 -0.07422,-0.210938 0.476562,-0.152344 0.507813,-0.183593 0.07031,0.210937 -0.15625,0.078125 0.964844,1.113281 0.01172,-0.742187 -0.480469,-0.535156 -0.175781,0.027343 -0.07031,-0.210937 0.429688,-0.136719 0.582031,-0.207031 0.07422,0.210937 -0.257813,0.113282 0.960938,1.113281 0.03516,-1.453125 -0.28125,0.066406 -0.07422,-0.207031 0.445313,-0.148437 0.351562,-0.136719 0.07422,0.21875 z m 0,0"
             id="path2231" /><path
             fill-rule="nonzero"
             fill="#ffffff"
             fill-opacity="1"
             d="M 25.382812,4.5625 24.699219,4.617188 24.683594,4.394531 25.050781,4.335938 24.929688,2.644531 H 24.5625 l -0.01563,-0.222656 0.683594,-0.039063 0.667969,-0.058593 0.01562,0.222656 -0.363281,0.054687 0.117188,1.691407 0.367187,0.00781 0.01953,0.222657 z m 0,0"
             id="path2233" /><path
             fill-rule="nonzero"
             fill="#ffffff"
             fill-opacity="1"
             d="M 28.664062,4.824219 27.710938,4.671875 27.402344,4.617188 26.710938,4.515625 26.746094,4.292969 27.117188,4.320312 27.386719,2.648438 27.027344,2.5625 27.0625,2.339844 27.75,2.460938 28.402344,2.558594 28.367188,2.777344 28,2.746094 27.722656,4.445312 c 0.03906,0.00391 0.515625,0.074219 0.539063,0.074219 0.0625,0.011719 0.175781,0.015625 0.183593,0.00391 0.01172,-0.011719 0.171876,-0.324219 0.191407,-0.371094 l 0.226562,0.039062 z m 0,0"
             id="path2235" /><path
             fill-rule="nonzero"
             fill="#ffffff"
             fill-opacity="1"
             d="M 31.320312,5.9375 30.6875,5.644531 l 0.09766,-0.203125 0.347656,0.132813 0.3125,-0.652344 -0.964843,-0.464844 -0.3125,0.652344 0.316406,0.1875 L 30.386719,5.5 29.785156,5.203125 29.167969,4.914062 29.261719,4.710938 29.609375,4.84375 30.339844,3.3125 30.023438,3.128906 30.121094,2.929688 30.734375,3.230469 31.34375,3.515625 31.242188,3.71875 30.902344,3.582031 30.59375,4.222656 31.558594,4.6875 l 0.308594,-0.640625 -0.324219,-0.1875 0.09766,-0.199219 0.597656,0.296875 0.628907,0.289063 -0.09766,0.203125 L 32.421875,4.3125 31.6875,5.839844 32.011719,6.03125 31.914062,6.234375 Z m 0,0"
             id="path2237" /><path
             fill-rule="nonzero"
             fill="#ffffff"
             fill-opacity="1"
             d="M 33.023438,7.183594 32.785156,6.980469 32.222656,6.511719 32.367188,6.34375 32.695312,6.578125 33.792969,5.28125 33.535156,5.015625 33.679688,4.84375 34.199219,5.304688 34.566406,5.605469 34.960938,5.9375 35.058594,5.859375 35.230469,6.003906 35.117188,6.140625 34.773438,6.5625 34.605469,6.417969 34.769531,6.125 34.257812,5.691406 33.8125,6.21875 34.195312,6.542969 34.378906,6.371094 34.550781,6.515625 34.042969,7.109375 33.875,6.964844 34.023438,6.742188 33.640625,6.417969 33.222656,6.910156 c -0.02344,0.027344 -0.04297,0.054688 -0.04297,0.0625 0.03125,0.03125 0.0625,0.070313 0.144531,0.140625 0.117187,0.101563 0.28125,0.242188 0.292969,0.257813 0.05078,0.039062 0.136718,0.109375 0.144531,0.105468 0.01563,-0.00391 0.214843,-0.1875 0.253906,-0.226562 L 34.1875,7.398438 33.800781,7.847656 Z m 0,0"
             id="path2239" /><path
             fill-rule="nonzero"
             fill="#ffffff"
             fill-opacity="1"
             d="M 35.425781,9.796875 34.824219,9.042969 34.632812,8.796875 34.1875,8.257812 34.363281,8.117188 34.617188,8.382812 35.9375,7.320312 35.730469,7.019531 35.90625,6.878906 l 0.425781,0.546875 0.421875,0.511719 -0.175781,0.136719 -0.25,-0.265625 -1.339844,1.070312 c 0.02344,0.03125 0.332031,0.402344 0.347657,0.421875 0.03906,0.050781 0.117187,0.128907 0.132812,0.125 0.01953,-0.00391 0.34375,-0.128906 0.390625,-0.148437 l 0.144531,0.179687 z m 0,0"
             id="path2241" /><path
             fill-rule="nonzero"
             fill="#ffffff"
             fill-opacity="1"
             d="m 36.972656,12.597656 -0.265625,-0.511718 0.195313,-0.09766 0.144531,0.222657 1.265625,-0.667969 -1.957031,0.03516 1.089843,-1.519531 -1.199218,0.558594 0.109375,0.277343 -0.203125,0.101563 -0.15625,-0.332032 -0.265625,-0.511718 0.199219,-0.101563 0.179687,0.296875 1.546875,-0.714844 -0.140625,-0.34375 0.199219,-0.101562 0.257812,0.523438 0.167969,0.320312 -0.886719,1.21875 1.480469,-0.03906 0.125,0.265624 0.355469,0.695313 -0.195313,0.101563 -0.199219,-0.335938 -1.5,0.816406 0.148438,0.355469 -0.199219,0.09766 z m 0,0"
             id="path2243" /><path
             fill-rule="nonzero"
             fill="#ffffff"
             fill-opacity="1"
             d="m 37.582031,14.382812 -0.203125,-0.65625 0.210938,-0.0625 0.136718,0.34375 1.625,-0.484374 -0.07422,-0.359376 0.210937,-0.0625 0.1875,0.660157 0.199219,0.636719 -0.214844,0.06641 -0.128906,-0.347656 -1.625,0.484374 0.07422,0.363282 -0.214844,0.0625 z m 0,0"
             id="path2245" /><path
             fill-rule="nonzero"
             fill="#ffffff"
             fill-opacity="1"
             d="m 40.199219,17.679688 -1.960938,0.273437 -0.05078,-0.382813 1.371094,-1.492187 -1.277344,0.175781 0.02344,0.339844 -0.226563,0.03125 -0.05469,-0.472656 -0.08594,-0.527344 0.222656,-0.03125 0.07422,0.332031 1.625,-0.226562 c 0.05859,-0.06641 0.05859,-0.183594 0.02734,-0.40625 l 0.230469,-0.03125 0.125,0.902343 -1.238282,1.359376 1.148438,-0.160157 -0.01563,-0.339843 0.21875,-0.03125 0.0625,0.472656 0.07422,0.523437 -0.21875,0.03125 z m 0,0"
             id="path2247" /><path
             fill-rule="nonzero"
             fill="#ffffff"
             fill-opacity="1"
             d="m 39.984375,19.722656 -0.65625,-0.28125 -0.01172,0.496094 z m -1.699219,0.894532 0.0039,-0.722657 0.226563,0.0078 0.01953,0.316406 0.515625,-0.179688 0.01563,-0.722656 -0.507812,-0.210937 -0.03516,0.386719 -0.222657,-0.0039 0.01953,-0.503906 -0.0039,-0.40625 0.21875,0.0039 0.02734,0.203125 1.90625,0.84375 c 0.03906,0.128906 0.121094,0.25 0.1875,0.339844 l -0.0039,0.09766 -2.132813,0.796875 -0.03516,0.222657 -0.222656,-0.0039 z m 0,0"
             id="path2249" /><path
             fill-rule="nonzero"
             fill="#ffffff"
             fill-opacity="1"
             d="m 48.917969,9.058594 v 4.417968 H 47.957031 V 9.058594 H 46.417969 V 8.242188 h 4.046875 v 0.816406 z m 0,0"
             id="path2251" /><path
             fill-rule="nonzero"
             fill="#ffffff"
             fill-opacity="1"
             d="m 52.082031,10.503906 c -0.117187,0 -0.371093,0.08594 -0.40625,0.109375 -0.01172,0.01563 -0.253906,0.246094 -0.300781,0.582031 h 1.425781 c -0.03125,-0.414062 -0.101562,-0.691406 -0.71875,-0.691406 z m -0.738281,1.285156 c 0.02734,0.492188 0.378906,0.972657 0.9375,0.972657 0.378906,0 0.800781,-0.15625 1.242188,-0.519531 l 0.08984,0.933593 c -0.429687,0.253907 -0.816406,0.40625 -1.523437,0.40625 -1.007813,0 -1.757813,-0.714843 -1.757813,-1.890625 0,-1.1875 0.726563,-1.902344 1.75,-1.902344 1.226563,0 1.585938,0.652344 1.585938,2 z m 0,0"
             id="path2253" /><path
             fill-rule="nonzero"
             fill="#ffffff"
             fill-opacity="1"
             d="m 56.316406,13.582031 c -1.046875,0 -1.777344,-0.707031 -1.777344,-1.929687 0,-1.300782 0.871094,-1.863282 1.683594,-1.863282 0.734375,0 1.355469,0.167969 1.355469,0.746094 v 0.207032 c 0,0.0625 0,0.125 -0.0078,0.207031 h -0.929687 c 0,-0.335938 -0.08594,-0.398438 -0.339844,-0.398438 -0.167969,0 -0.246093,0.01563 -0.300781,0.03906 -0.07813,0.03125 -0.445312,0.230468 -0.445312,1.039062 0,0.925782 0.523437,1.132813 0.925781,1.132813 0.246093,0 0.535156,-0.01563 1.054687,-0.460938 l 0.08984,0.890625 c -0.5,0.292969 -0.863281,0.390625 -1.308594,0.390625 z m 0,0"
             id="path2255" /><path
             fill-rule="nonzero"
             fill="#ffffff"
             fill-opacity="1"
             d="m 61.875,13.476562 h -0.960938 c 0.01563,-0.910156 0.03125,-1.101562 0.03125,-1.585937 0,-1.015625 -0.03125,-1.269531 -0.425781,-1.269531 -0.152343,0 -0.390625,0.03516 -0.453125,0.08203 -0.05469,0.03906 -0.308594,0.226563 -0.476562,0.425781 v 2.347656 H 58.632812 V 7.6875 h 0.957032 v 2.523438 c 0.277344,-0.277344 0.597656,-0.421876 0.984375,-0.421876 1.226562,0 1.339843,0.761719 1.339843,1.5625 0,0.144532 -0.0078,0.292969 -0.0078,0.4375 -0.0078,0.511719 -0.0078,0.785157 -0.03125,1.6875 z m 0,0"
             id="path2257" /><path
             fill-rule="nonzero"
             fill="#ffffff"
             fill-opacity="1"
             d="m 66.265625,13.476562 h -0.957031 c 0.02344,-1.046874 0.03125,-1.140624 0.03125,-1.824218 0,-0.136719 0,-0.292969 -0.01563,-0.445313 -0.03125,-0.457031 -0.128907,-0.585937 -0.410157,-0.585937 -0.152343,0 -0.40625,0.03516 -0.453124,0.08203 -0.05469,0.03906 -0.320313,0.226563 -0.476563,0.425781 v 2.347656 h -0.960937 v -2.527343 c 0,-0.320313 -0.05469,-0.867188 -0.09375,-1.066407 h 0.855468 l 0.09375,0.421876 c 0.320313,-0.355469 0.675782,-0.515626 1.085938,-0.515626 1.230468,0 1.339844,0.761719 1.339844,1.5625 v 0.4375 c -0.0039,0.511719 -0.01172,0.785157 -0.03906,1.6875 z m 0,0"
             id="path2259" /><path
             fill-rule="nonzero"
             fill="#ffffff"
             fill-opacity="1"
             d="m 67.386719,13.476562 v -3.59375 h 0.957031 v 3.59375 z m 0.472656,-4.273437 c -0.300781,0 -0.5625,-0.261719 -0.5625,-0.578125 0,-0.316406 0.261719,-0.570312 0.5625,-0.570312 0.3125,0 0.558594,0.246093 0.558594,0.5625 0,0.316406 -0.246094,0.585937 -0.558594,0.585937 z m 0,0"
             id="path2261" /><path
             fill-rule="nonzero"
             fill="#ffffff"
             fill-opacity="1"
             d="m 70.539062,13.582031 c -0.449218,0 -0.910156,-0.09766 -1.3125,-0.351562 L 69.328125,12.4375 c 0.417969,0.246094 0.664063,0.355469 1.1875,0.355469 0.460937,0 0.5625,-0.140625 0.5625,-0.257813 0,-0.574218 -1.863281,-0.414062 -1.863281,-1.707031 0,-0.640625 0.542968,-1.039063 1.484375,-1.039063 0.457031,0 0.738281,0.09375 1.238281,0.316407 l -0.113281,0.84375 c -0.480469,-0.359375 -0.910157,-0.390625 -1.171875,-0.390625 -0.160156,0 -0.476563,0.03906 -0.476563,0.238281 0,0.539063 1.878907,0.453125 1.878907,1.65625 0,0.601563 -0.523438,1.128906 -1.515626,1.128906 z m 0,0"
             id="path2263" /><path
             fill-rule="nonzero"
             fill="#ffffff"
             fill-opacity="1"
             d="m 74.589844,13.582031 c -1.042969,0 -1.773438,-0.707031 -1.773438,-1.929687 0,-1.300782 0.871094,-1.863282 1.679688,-1.863282 0.738281,0 1.355468,0.167969 1.355468,0.746094 v 0.207032 c 0,0.0625 0,0.125 -0.0078,0.207031 h -0.929688 c 0,-0.335938 -0.08594,-0.398438 -0.339843,-0.398438 -0.164063,0 -0.246094,0.01563 -0.300781,0.03906 -0.07813,0.03125 -0.445313,0.230468 -0.445313,1.039062 0,0.925782 0.527344,1.132813 0.929687,1.132813 0.246094,0 0.53125,-0.01563 1.054688,-0.460938 l 0.08984,0.890625 c -0.503906,0.292969 -0.867188,0.390625 -1.3125,0.390625 z m 0,0"
             id="path2265" /><path
             fill-rule="nonzero"
             fill="#ffffff"
             fill-opacity="1"
             d="M 79.992188,13.476562 H 79.03125 c 0.01563,-0.910156 0.03125,-1.101562 0.03125,-1.585937 0,-1.015625 -0.03125,-1.269531 -0.429688,-1.269531 -0.148437,0 -0.386718,0.03516 -0.449218,0.08203 -0.05469,0.03906 -0.3125,0.226563 -0.476563,0.425781 v 2.347656 H 76.746094 V 7.6875 h 0.960937 v 2.523438 c 0.277344,-0.277344 0.59375,-0.421876 0.984375,-0.421876 1.226563,0 1.339844,0.761719 1.339844,1.5625 0,0.144532 -0.0078,0.292969 -0.0078,0.4375 -0.0078,0.511719 -0.0078,0.785157 -0.03125,1.6875 z m 0,0"
             id="path2267" /><path
             fill-rule="nonzero"
             fill="#ffffff"
             fill-opacity="1"
             d="m 82.597656,10.503906 c -0.117187,0 -0.371094,0.08594 -0.402344,0.109375 -0.01562,0.01563 -0.253906,0.246094 -0.300781,0.582031 h 1.425781 C 83.289062,10.78125 83.21875,10.503906 82.597656,10.503906 Z m -0.734375,1.285156 c 0.01953,0.492188 0.378907,0.972657 0.933594,0.972657 0.378906,0 0.800781,-0.15625 1.246094,-0.519531 l 0.08594,0.933593 c -0.425781,0.253907 -0.816406,0.40625 -1.523437,0.40625 -1.007813,0 -1.757813,-0.714843 -1.757813,-1.890625 0,-1.1875 0.730469,-1.902344 1.75,-1.902344 1.230469,0 1.585938,0.652344 1.585938,2 z m 0,0"
             id="path2269" /><path
             fill-rule="nonzero"
             fill="#ffffff"
             fill-opacity="1"
             d="m 51.226562,20.070312 c 0,1.363282 -0.933593,1.957032 -2.222656,1.957032 -1.066406,0 -2.082031,-0.625 -2.082031,-1.757813 v -3.5625 h 0.957031 v 3.339844 c 0,0.925781 0.660156,1.15625 1.160156,1.15625 0.601563,0 1.226563,-0.238281 1.226563,-1.164063 v -3.332031 h 0.960937 z m 0,0"
             id="path2271" /><path
             fill-rule="nonzero"
             fill="#ffffff"
             fill-opacity="1"
             d="M 55.492188,21.933594 H 54.53125 c 0.02344,-1.046875 0.03125,-1.140625 0.03125,-1.824219 0,-0.132813 0,-0.292969 -0.01563,-0.445313 -0.03125,-0.457031 -0.125,-0.585937 -0.410156,-0.585937 -0.152344,0 -0.40625,0.03516 -0.453125,0.08203 -0.05469,0.03906 -0.316406,0.226563 -0.476563,0.425782 v 2.347656 H 52.25 V 19.40625 c 0,-0.320312 -0.05859,-0.867188 -0.09766,-1.0625 h 0.855468 l 0.09766,0.417969 c 0.316406,-0.355469 0.671875,-0.515625 1.085937,-0.515625 1.230469,0 1.339844,0.761718 1.339844,1.5625 v 0.4375 c -0.0078,0.515625 -0.01563,0.785156 -0.03906,1.6875 z m 0,0"
             id="path2273" /><path
             fill-rule="nonzero"
             fill="#ffffff"
             fill-opacity="1"
             d="M 56.664062,21.933594 V 18.34375 H 57.625 v 3.589844 z m 0.476563,-4.273438 c -0.300781,0 -0.5625,-0.261718 -0.5625,-0.578125 0,-0.316406 0.261719,-0.570312 0.5625,-0.570312 0.308594,0 0.554687,0.246093 0.554687,0.5625 0,0.316406 -0.246093,0.585937 -0.554687,0.585937 z m 0,0"
             id="path2275" /><path
             fill-rule="nonzero"
             fill="#ffffff"
             fill-opacity="1"
             d="M 60.429688,22.039062 H 59.707031 L 58.367188,18.34375 h 1.035156 l 0.6875,2.1875 0.707031,-2.1875 h 0.964844 z m 0,0"
             id="path2277" /><path
             fill-rule="nonzero"
             fill="#ffffff"
             fill-opacity="1"
             d="m 64.0625,18.960938 c -0.117188,0 -0.371094,0.08594 -0.402344,0.109374 -0.01953,0.01563 -0.253906,0.246094 -0.304687,0.582032 h 1.429687 C 64.753906,19.238281 64.679688,18.960938 64.0625,18.960938 Z m -0.738281,1.285156 c 0.02344,0.492187 0.378906,0.972656 0.933593,0.972656 0.382813,0 0.804688,-0.15625 1.246094,-0.519531 l 0.08984,0.933593 c -0.429688,0.253907 -0.816406,0.40625 -1.523438,0.40625 -1.007812,0 -1.757812,-0.714843 -1.757812,-1.890624 0,-1.1875 0.726562,-1.902344 1.75,-1.902344 1.226562,0 1.585938,0.652344 1.585938,2 z m 0,0"
             id="path2279" /><path
             fill-rule="nonzero"
             fill="#ffffff"
             fill-opacity="1"
             d="m 68.144531,19.417969 c -0.0078,-0.171875 0.0078,-0.371094 -0.140625,-0.371094 -0.128906,0 -0.222656,0.167969 -0.375,0.4375 v 2.449219 h -0.957031 v -2.535156 c 0,-0.351563 -0.03906,-0.707032 -0.09375,-1.054688 h 0.851563 l 0.09766,0.425781 c 0.136718,-0.253906 0.46875,-0.515625 0.761718,-0.515625 0.476563,0 0.636719,0.292969 0.636719,0.730469 0,0.109375 -0.01172,0.230469 -0.02734,0.34375 z m 0,0"
             id="path2281" /><path
             fill-rule="nonzero"
             fill="#ffffff"
             fill-opacity="1"
             d="m 70.863281,22.039062 c -0.449219,0 -0.910156,-0.09766 -1.3125,-0.351562 l 0.101563,-0.792969 c 0.417968,0.246094 0.664062,0.355469 1.1875,0.355469 0.460937,0 0.5625,-0.140625 0.5625,-0.257812 0,-0.574219 -1.859375,-0.414063 -1.859375,-1.707032 0,-0.640625 0.539062,-1.039062 1.480469,-1.039062 0.460937,0 0.738281,0.09766 1.238281,0.316406 l -0.113281,0.84375 c -0.484376,-0.359375 -0.910157,-0.390625 -1.171876,-0.390625 -0.160156,0 -0.476562,0.03906 -0.476562,0.238281 0,0.539063 1.878906,0.453125 1.878906,1.660156 0,0.597657 -0.523437,1.125 -1.515625,1.125 z m 0,0"
             id="path2283" /><path
             fill-rule="nonzero"
             fill="#ffffff"
             fill-opacity="1"
             d="M 73.371094,21.933594 V 18.34375 h 0.957031 v 3.589844 z m 0.476562,-4.273438 c -0.300781,0 -0.566406,-0.261718 -0.566406,-0.578125 0,-0.316406 0.265625,-0.570312 0.566406,-0.570312 0.304688,0 0.554688,0.246093 0.554688,0.5625 0,0.316406 -0.25,0.585937 -0.554688,0.585937 z m 0,0"
             id="path2285" /><path
             fill-rule="nonzero"
             fill="#ffffff"
             fill-opacity="1"
             d="M 76.683594,22.039062 C 76.148438,22.039062 75.75,21.695312 75.75,21.03125 V 18.984375 H 75.226562 V 18.351562 H 75.75 v -1.222656 h 0.945312 v 1.214844 h 0.78125 v 0.632812 h -0.78125 v 1.863282 c 0,0.347656 0.08984,0.363281 0.179688,0.363281 0.214844,0 0.492188,-0.15625 0.664062,-0.261719 l 0.09766,0.792969 c -0.3125,0.175781 -0.652344,0.304687 -0.953125,0.304687 z m 0,0"
             id="path2287" /><path
             fill-rule="nonzero"
             fill="#ffffff"
             fill-opacity="1"
             d="m 80.5625,17.761719 c -0.285156,0 -0.507812,-0.234375 -0.507812,-0.523438 0,-0.289062 0.203124,-0.542969 0.507812,-0.542969 0.285156,0 0.507812,0.253907 0.507812,0.539063 0,0.292969 -0.222656,0.527344 -0.507812,0.527344 z m -0.304688,2.605469 c -0.378906,0.08984 -0.585937,0.15625 -0.933593,0.304687 -0.03906,0.113281 -0.04687,0.152344 -0.04687,0.269531 0,0.207032 0.04687,0.382813 0.285156,0.382813 0.175781,0 0.421875,-0.121094 0.695312,-0.429688 z m -1.035156,-2.605469 c -0.285156,0 -0.507812,-0.234375 -0.507812,-0.523438 0,-0.289062 0.207031,-0.542969 0.507812,-0.542969 0.28125,0 0.507813,0.253907 0.507813,0.539063 0,0.292969 -0.226563,0.527344 -0.507813,0.527344 z m 1.261719,4.171875 c -0.05078,-0.148438 -0.05859,-0.214844 -0.09766,-0.421875 -0.175781,0.253906 -0.539063,0.527343 -1,0.527343 -0.625,0 -1.046875,-0.382812 -1.046875,-0.898437 0,-0.316406 0.06641,-0.617187 0.175781,-0.753906 0.191406,-0.253907 1.253906,-0.546875 1.742187,-0.640625 v -0.269532 c 0,-0.390624 -0.05469,-0.515624 -0.457031,-0.515624 -0.160156,0 -0.460937,0.0078 -0.507812,0.08594 -0.04687,0.08594 -0.03906,0.144531 -0.04687,0.28125 l -0.777344,0.07031 c 0,-0.05859 -0.0078,-0.105469 -0.0078,-0.152344 0,-0.199219 0.03125,-0.367188 0.07812,-0.539063 0.03906,-0.144531 0.613282,-0.460937 1.339844,-0.460937 0.839844,0 1.347656,0.386718 1.347656,1.03125 v 1.59375 c 0,0.394531 0.07031,0.792968 0.128907,1.0625 z m 0,0"
             id="path2289" /><path
             fill-rule="nonzero"
             fill="#ffffff"
             fill-opacity="1"
             d="m 83.417969,22.039062 c -0.542969,0 -0.9375,-0.34375 -0.9375,-1.007812 v -2.046875 h -0.523438 v -0.632813 h 0.523438 v -1.222656 h 0.941406 v 1.214844 h 0.789063 v 0.632812 h -0.789063 v 1.863282 c 0,0.347656 0.09766,0.363281 0.183594,0.363281 0.214843,0 0.492187,-0.15625 0.667969,-0.261719 l 0.09375,0.792969 c -0.3125,0.175781 -0.648438,0.304687 -0.949219,0.304687 z m 0,0"
             id="path2291" /><path
             fill-rule="nonzero"
             fill="#ffffff"
             fill-opacity="1"
             d="M 48.855469,28.011719 H 48 v 1.605469 h 0.808594 c 0.753906,0 1.046875,-0.246094 1.046875,-0.8125 0,-0.53125 -0.382813,-0.792969 -1,-0.792969 z M 48.757812,25.902344 48,25.910156 v 1.328125 h 0.6875 c 0.628906,0 0.851562,-0.273437 0.851562,-0.667969 0,-0.367187 -0.261718,-0.667968 -0.78125,-0.667968 z m 0.34375,4.488281 h -2.0625 v -5.191406 c 0.617188,-0.04297 1.238282,-0.07422 1.863282,-0.07422 1.183594,0 1.65625,0.652344 1.65625,1.332031 0,0.453125 -0.226563,0.953125 -0.664063,1.117188 0.59375,0.08203 0.984375,0.652343 0.984375,1.335937 0,0.886719 -0.730468,1.480469 -1.777344,1.480469 z m 0,0"
             id="path2293" /><path
             fill-rule="nonzero"
             fill="#ffffff"
             fill-opacity="1"
             d="m 53.222656,27.875 c -0.0078,-0.171875 0.0078,-0.371094 -0.140625,-0.371094 -0.125,0 -0.222656,0.167969 -0.371093,0.4375 v 2.449219 H 51.75 v -2.535156 c 0,-0.351563 -0.03906,-0.707031 -0.09375,-1.054688 h 0.855469 l 0.09375,0.425781 c 0.132812,-0.25 0.46875,-0.515624 0.761719,-0.515624 0.472656,0 0.632812,0.292968 0.632812,0.730468 0,0.109375 -0.0078,0.230469 -0.02344,0.34375 z m 0,0"
             id="path2295" /><path
             fill-rule="nonzero"
             fill="#ffffff"
             fill-opacity="1"
             d="m 56.347656,28.824219 c -0.378906,0.08984 -0.585937,0.15625 -0.9375,0.304687 -0.03906,0.113282 -0.04687,0.152344 -0.04687,0.269532 0,0.207031 0.04687,0.382812 0.285157,0.382812 0.175781,0 0.421874,-0.121094 0.699218,-0.429688 z m 0.222656,1.566406 c -0.04687,-0.148437 -0.05469,-0.214844 -0.09375,-0.421875 -0.175781,0.253906 -0.542968,0.527344 -1,0.527344 -0.628906,0 -1.046874,-0.382813 -1.046874,-0.898438 0,-0.316406 0.0625,-0.617187 0.171874,-0.753906 0.191407,-0.253906 1.253907,-0.546875 1.746094,-0.640625 v -0.269531 c 0,-0.390625 -0.05469,-0.515625 -0.460937,-0.515625 -0.15625,0 -0.457031,0.0078 -0.503907,0.08594 -0.05078,0.08984 -0.04297,0.144532 -0.05078,0.28125 l -0.777343,0.07031 c 0,-0.05859 -0.0078,-0.105469 -0.0078,-0.152344 0,-0.199219 0.03516,-0.367187 0.08203,-0.539063 0.03906,-0.140624 0.609375,-0.460937 1.339844,-0.460937 0.839844,0 1.347656,0.390625 1.347656,1.03125 v 1.59375 c 0,0.398437 0.07031,0.792969 0.125,1.0625 z m 0,0"
             id="path2297" /><path
             fill-rule="nonzero"
             fill="#ffffff"
             fill-opacity="1"
             d="m 60.824219,30.390625 -0.09375,-0.421875 c -0.285157,0.332031 -0.640625,0.527344 -1.085938,0.527344 -0.953125,0 -1.296875,-0.4375 -1.296875,-1.339844 v -2.355469 h 0.957032 v 2.273438 c 0,0.324219 0.02344,0.585937 0.402343,0.585937 0.105469,0 0.34375,-0.01563 0.4375,-0.07031 0.128907,-0.09375 0.375,-0.300782 0.484375,-0.433594 v -2.355469 h 0.960938 v 2.527344 c 0,0.355469 0.03906,0.714844 0.09375,1.0625 z m 0,0"
             id="path2299" /><path
             fill-rule="nonzero"
             fill="#ffffff"
             fill-opacity="1"
             d="m 65.910156,30.390625 h -0.957031 c 0.01953,-1.046875 0.03125,-1.140625 0.03125,-1.824219 0,-0.132812 0,-0.292968 -0.01953,-0.445312 -0.03125,-0.457032 -0.125,-0.585938 -0.410156,-0.585938 -0.148438,0 -0.40625,0.03516 -0.453126,0.08203 -0.05469,0.03906 -0.316406,0.230468 -0.476562,0.425781 v 2.347656 H 62.66797 v -2.527344 c 0,-0.320312 -0.05469,-0.867187 -0.09375,-1.0625 h 0.851562 l 0.09766,0.417969 c 0.316406,-0.355469 0.675781,-0.515625 1.085937,-0.515625 1.230469,0 1.339844,0.761719 1.339844,1.5625 v 0.4375 c -0.0078,0.515625 -0.01563,0.785156 -0.03906,1.6875 z m 0,0"
             id="path2301" /><path
             fill-rule="nonzero"
             fill="#ffffff"
             fill-opacity="1"
             d="m 68.144531,30.496094 c -0.453125,0 -0.910156,-0.09766 -1.3125,-0.351563 l 0.101563,-0.792969 c 0.417968,0.246094 0.664062,0.355469 1.1875,0.355469 0.460937,0 0.5625,-0.140625 0.5625,-0.257812 0,-0.574219 -1.863282,-0.414063 -1.863282,-1.707031 0,-0.640626 0.539063,-1.039063 1.484376,-1.039063 0.460937,0 0.738281,0.09766 1.238281,0.320313 l -0.113281,0.839843 c -0.484376,-0.359375 -0.910157,-0.390625 -1.171876,-0.390625 -0.160156,0 -0.476562,0.03906 -0.476562,0.238282 0,0.539062 1.878906,0.453124 1.878906,1.660156 0,0.597656 -0.523437,1.125 -1.515625,1.125 z m 0,0"
             id="path2303" /><path
             fill-rule="nonzero"
             fill="#ffffff"
             fill-opacity="1"
             d="m 72.015625,30.496094 c -1.046875,0 -1.777344,-0.707032 -1.777344,-1.929688 0,-1.300781 0.871094,-1.863281 1.679688,-1.863281 0.738281,0 1.359375,0.167969 1.359375,0.746094 v 0.207031 c 0,0.0625 0,0.128906 -0.0078,0.207031 h -0.929687 c 0,-0.335937 -0.08594,-0.398437 -0.339844,-0.398437 -0.167969,0 -0.246094,0.01563 -0.304688,0.03906 -0.07812,0.03125 -0.441406,0.230469 -0.441406,1.039063 0,0.925781 0.523438,1.132812 0.929688,1.132812 0.242187,0 0.527344,-0.01563 1.050781,-0.457031 l 0.08984,0.886719 c -0.5,0.292969 -0.867188,0.390625 -1.308594,0.390625 z m 0,0"
             id="path2305" /><path
             fill-rule="nonzero"
             fill="#ffffff"
             fill-opacity="1"
             d="m 77.390625,30.390625 h -0.960937 c 0.01953,-0.910156 0.03125,-1.101563 0.03125,-1.585937 0,-1.015626 -0.03125,-1.269532 -0.425782,-1.269532 -0.152344,0 -0.390625,0.03516 -0.453125,0.08203 -0.05469,0.03906 -0.308593,0.230468 -0.472656,0.425781 v 2.347656 h -0.960937 v -5.785156 h 0.960937 V 27.125 c 0.273437,-0.277344 0.59375,-0.421875 0.980469,-0.421875 1.230468,0 1.339844,0.761719 1.339844,1.5625 0,0.144531 -0.0078,0.292969 -0.0078,0.4375 -0.0078,0.515625 -0.0078,0.785156 -0.03125,1.6875 z m 0,0"
             id="path2307" /><path
             fill-rule="nonzero"
             fill="#ffffff"
             fill-opacity="1"
             d="M 81.871094,30.496094 H 81.332031 L 80.601562,28.804688 79.9375,30.496094 h -0.550781 l -1.433594,-3.695313 h 1.015625 l 0.761719,2.066407 0.871093,-2.1875 0.925782,2.230468 0.738281,-2.109375 h 0.929687 z m 0,0"
             id="path2309" /><path
             fill-rule="nonzero"
             fill="#ffffff"
             fill-opacity="1"
             d="m 85.21875,27.417969 c -0.121094,0 -0.375,0.08594 -0.410156,0.109375 -0.01172,0.01563 -0.25,0.246094 -0.296875,0.582031 H 85.9375 c -0.03125,-0.414063 -0.101562,-0.691406 -0.71875,-0.691406 z m -0.742188,1.285156 c 0.02734,0.492187 0.382813,0.972656 0.9375,0.972656 0.378907,0 0.800782,-0.15625 1.242188,-0.519531 l 0.08984,0.933594 c -0.429688,0.253906 -0.816406,0.40625 -1.523438,0.40625 -1.007812,0 -1.757812,-0.714844 -1.757812,-1.886719 0,-1.191406 0.726562,-1.90625 1.753906,-1.90625 1.226562,0 1.585938,0.652344 1.585938,2 z m 0,0"
             id="path2311" /><path
             fill-rule="nonzero"
             fill="#ffffff"
             fill-opacity="1"
             d="m 87.746094,30.390625 v -3.589844 h 0.957031 v 3.589844 z m 0.476562,-4.273437 c -0.304687,0 -0.566406,-0.261719 -0.566406,-0.578126 0,-0.316406 0.261719,-0.570312 0.566406,-0.570312 0.304688,0 0.550782,0.246094 0.550782,0.5625 0,0.316406 -0.246094,0.585938 -0.550782,0.585938 z m 0,0"
             id="path2313" /><path
             fill-rule="nonzero"
             fill="#ffffff"
             fill-opacity="1"
             d="m 91.296875,27.425781 c -0.253906,0 -0.429687,0.08594 -0.46875,0.125 -0.03906,0.04297 -0.179687,0.246094 -0.179687,0.523438 0,0.390625 0.234374,0.667969 0.648437,0.667969 0.214844,0 0.421875,-0.105469 0.449219,-0.128907 0.04297,-0.03516 0.1875,-0.1875 0.1875,-0.539062 0,-0.378907 -0.175782,-0.648438 -0.636719,-0.648438 z m 0.507813,3.320313 c -0.382813,0 -0.585938,0.03516 -0.949219,0.04297 -0.226563,0.15625 -0.390625,0.316407 -0.390625,0.523438 0,0.300781 0.238281,0.386719 0.753906,0.386719 0.742188,0 1.09375,-0.40625 1.09375,-0.707031 0,-0.203126 -0.02344,-0.246094 -0.507812,-0.246094 z M 92.875,27.65625 c 0.04687,0.140625 0.07031,0.238281 0.07031,0.414062 0,0.84375 -0.652343,1.417969 -1.671874,1.417969 -0.144532,0 -0.285157,-0.0078 -0.476563,-0.06641 -0.125,0.128906 -0.230469,0.207031 -0.230469,0.367187 0,0.132813 0.121094,0.175782 0.199219,0.175782 0.394531,0 0.738281,-0.04297 1.132813,-0.04297 0.855468,0 1.386718,0.121094 1.386718,0.953125 0,1.039062 -1.125,1.5625 -2.164062,1.5625 -0.839844,0 -1.554688,-0.152344 -1.554688,-0.863281 0,-0.527344 0.390625,-0.730469 0.644532,-0.875 -0.207032,-0.0625 -0.546876,-0.222657 -0.546876,-0.632813 0,-0.390625 0.425782,-0.578125 0.722657,-0.824218 -0.46875,-0.261719 -0.753907,-0.539063 -0.753907,-1.171876 0,-0.789062 0.675782,-1.367187 1.648438,-1.367187 0.5,0 0.738281,0.128906 0.960938,0.261719 0.179687,0 0.75,0 1.226562,-0.125 v 0.816406 z m 0,0"
             id="path2315" /></g></g></g></g><g
     id="g10"
     inkscape:groupmode="layer"
     inkscape:label="&lt;2-3&gt; Logo Klein"
     transform="matrix(1.3333333,0,0,-1.3333333,0,363.33318)"
     style="display:none"
     sodipodi:insensitive="true"><g
       id="g1217"
       transform="matrix(0.97481509,0,0,-0.98711857,-266.49604,309.1482)"
       style="display:inline"><rect
         style="display:inline;fill:#ffffff;stroke-width:0.148772;paint-order:markers fill stroke"
         id="rect783"
         width="17.420507"
         height="17.168314"
         x="280.86398"
         y="-58.660904"
         transform="scale(1,-1)" /><path
         id="Icon"
         fill="#999999"
         d="m 297.56854,50.101308 c 0,0.399272 -0.24704,0.743436 -0.59754,0.884901 v 5.603738 c 0.3505,0.141466 0.59754,0.48584 0.59754,0.88469 0,0.527858 -0.42862,0.956478 -0.95437,0.956478 -0.52575,0 -0.95437,-0.42862 -0.95437,-0.956478 0,-0.399061 0.24704,-0.743435 0.59754,-0.88469 V 50.98642 c -0.004,-0.0021 -0.0106,-0.0044 -0.0169,-0.0063 l -3.96316,3.960833 c 0.0507,0.114017 0.0781,0.240703 0.0781,0.373934 0,0.527858 -0.42862,0.956267 -0.95436,0.956267 -0.52786,0 -0.95648,-0.428409 -0.95648,-0.956267 0,-0.525746 0.42862,-0.954578 0.95648,-0.954578 0.13091,0 0.25759,0.02745 0.37372,0.07812 l 3.96104,-3.963156 c -0.002,-0.0065 -0.004,-0.01288 -0.006,-0.01689 h -5.60374 c -0.14146,0.350498 -0.48563,0.597535 -0.88469,0.597535 -0.52785,0 -0.95648,-0.428831 -0.95648,-0.954578 0,-0.525323 0.42863,-0.954366 0.95648,-0.954366 0.39906,0 0.74323,0.247037 0.88469,0.597535 h 5.60374 c 0.002,-0.0042 0.004,-0.01035 0.006,-0.01689 l -3.96104,-3.962945 c -0.11613,0.05067 -0.24281,0.07791 -0.37583,0.07791 -0.52575,0 -0.95437,-0.42841 -0.95437,-0.956267 0,-0.525747 0.42862,-0.954367 0.95437,-0.954367 0.52785,0 0.95647,0.428409 0.95647,0.954367 0,0.133231 -0.0274,0.259706 -0.0781,0.373723 l 3.96316,3.963368 h 0.002 c 0.006,-0.0025 0.0106,-0.0044 0.0148,-0.0065 v -5.603527 c -0.3505,-0.141466 -0.59754,-0.48584 -0.59754,-0.887012 0,-0.525746 0.42862,-0.954367 0.95437,-0.954367 0.52575,0 0.95437,0.42841 0.95437,0.954367 0,0.401172 -0.24704,0.745546 -0.59754,0.887012 v 5.603527 c 0.3505,0.141466 0.59754,0.485841 0.59754,0.884479 z m -6.16749,4.972632 c -0.13514,0 -0.24282,0.107683 -0.24282,0.240914 0,0.135131 0.10768,0.242603 0.24282,0.242603 0.13302,0 0.2407,-0.107682 0.2407,-0.242603 2.2e-4,-0.133231 -0.10768,-0.240914 -0.2407,-0.240914 z m -2.16,-5.215024 c -0.13513,0 -0.24281,0.109795 -0.24281,0.242392 0,0.133232 0.10768,0.242815 0.24281,0.242815 0.13302,0 0.24071,-0.109794 0.24071,-0.242815 2.1e-4,-0.132597 -0.10769,-0.242392 -0.24071,-0.242392 z m 2.15789,-5.213335 c -0.13303,0 -0.24071,0.108106 -0.24071,0.240915 0,0.135343 0.10768,0.242814 0.24071,0.242814 0.13513,0 0.24281,-0.107682 0.24281,-0.242814 2.2e-4,-0.13302 -0.10768,-0.240915 -0.24281,-0.240915 z m 5.21523,-2.159782 c -0.13302,0 -0.24281,0.107683 -0.24281,0.240492 0,0.135342 0.10979,0.242814 0.24281,0.242814 0.13302,0 0.24281,-0.107682 0.24281,-0.242814 0,-0.132809 -0.10979,-0.240492 -0.24281,-0.240492 z m 0,7.373117 c -0.13302,0 -0.24281,0.109795 -0.24281,0.242392 0,0.133232 0.10979,0.242815 0.24281,0.242815 0.13302,0 0.24281,-0.109794 0.24281,-0.242815 0,-0.132597 -0.10979,-0.242392 -0.24281,-0.242392 z m 0,7.375229 c -0.13302,0 -0.24281,0.107683 -0.24281,0.240703 0,0.135132 0.10979,0.242603 0.24281,0.242603 0.13302,0 0.24281,-0.107683 0.24281,-0.242603 0,-0.13302 -0.10979,-0.240703 -0.24281,-0.240703 z"
         style="display:inline;stroke-width:0.211143" /></g></g></svg>
